<svg width="257" height="401" viewBox="0 0 257 401" fill="none" xmlns="http://www.w3.org/2000/svg">
<path d="M88.25 263.75C88.25 247.617 93.0167 232.217 102.55 217.55C112.45 202.883 123.083 191.15 134.45 182.35C145.817 173.183 156.267 162.55 165.8 150.45C175.7 138.35 180.65 126.25 180.65 114.15C180.65 101.317 176.25 91.4166 167.45 84.45C158.65 77.4833 146.367 74 130.6 74C99.8 74 77.9833 90.3166 65.15 122.95L0.25 85.55C11.25 58.4167 28.6667 37.5167 52.5 22.85C76.7 7.81664 103.65 0.299975 133.35 0.299975C166.717 0.299975 195.5 10.0166 219.7 29.45C244.267 48.5167 256.55 74.9167 256.55 108.65C256.55 124.05 253.25 138.35 246.65 151.55C240.417 164.75 232.717 176.117 223.55 185.65C214.75 194.817 205.767 203.617 196.6 212.05C187.8 220.117 180.1 228.55 173.5 237.35C167.267 246.15 164.15 254.95 164.15 263.75H88.25ZM159.2 386.4C150.033 395.567 139.033 400.15 126.2 400.15C113.367 400.15 102.367 395.567 93.2 386.4C84.0333 377.233 79.45 366.233 79.45 353.4C79.45 340.567 84.0333 329.567 93.2 320.4C102.367 311.233 113.367 306.65 126.2 306.65C139.033 306.65 150.033 311.233 159.2 320.4C168.367 329.567 172.95 340.567 172.95 353.4C172.95 366.233 168.367 377.233 159.2 386.4Z" fill="#F8F8F8"/>
</svg>
