<svg width="94" height="124" viewBox="0 0 94 124" fill="none" xmlns="http://www.w3.org/2000/svg">
<path opacity="0.3" d="M1.26724 102.496C8.45255 100.546 15.3067 97.5006 21.5896 93.466C21.8325 93.2769 22.1393 93.1918 22.4426 93.2295C22.7459 93.2672 23.0208 93.4246 23.2069 93.6671C23.393 93.9095 23.4749 94.2172 23.4348 94.5224C23.3946 94.8275 23.2356 95.1052 22.9927 95.2944L17.96 100.051C29.8079 98.9062 40.5029 93.0725 49.426 85.0485C58.5973 76.8076 71.8308 63.0637 67.9642 49.6177C67.756 48.9188 67.479 48.2431 67.1374 47.6004C64.1076 52.0603 59.8124 56.4975 54.3729 57.0824C49.9298 57.5597 44.9809 55.0377 44.385 50.2356C42.8657 37.8342 60.7478 35.7774 67.1792 43.2906C73.2924 32.3403 73.4102 18.9345 68.363 7.57605C68.0164 6.7923 69.1212 6.11379 69.5538 6.89756C72.6903 12.8071 74.2509 19.4429 74.0849 26.1643C73.9189 32.8858 72.032 39.4659 68.6062 45.2693C75.9622 57.0791 65.2618 71.6522 57.3253 80.3948C46.9596 91.833 33.5812 100.824 18.2153 102.334L24.2567 105.71C25.1788 106.243 24.847 107.988 23.6792 107.861C16.1748 107.046 8.70732 106.005 1.27667 104.737C0.10038 104.517 0.221606 102.774 1.26724 102.496ZM47.7029 45.6812C43.6431 52.7131 52.1217 56.4036 57.4704 53.8041C60.9007 52.1212 63.7239 48.7218 65.7903 45.5685C61.2691 40.0274 51.9556 38.4006 47.7029 45.6812ZM13.769 101.518C13.7462 101.349 13.764 101.176 13.8209 101.015C13.8779 100.853 13.9722 100.707 14.0962 100.589L14.8184 99.9135C12.1261 101.196 9.36123 102.316 6.53865 103.267C10.3966 103.839 14.2392 104.402 18.0664 104.955C16.7848 104.215 15.5032 103.476 14.2124 102.73C14.0167 102.606 13.8675 102.42 13.7875 102.201C13.7074 101.982 13.7009 101.742 13.769 101.518Z" fill="white"/>
</svg>
