<svg width="60" height="60" viewBox="0 0 60 60" fill="none" xmlns="http://www.w3.org/2000/svg">
<path d="M60 31.2297C60.0037 30.0756 59.6597 28.9471 59.0127 27.9914C58.3656 27.0357 57.4457 26.2972 56.3727 25.8721C55.2784 25.4319 54.3573 24.6474 53.7485 23.6372L51.8575 20.4855C51.7686 20.3375 51.643 20.2149 51.4927 20.1298C51.3424 20.0447 51.1727 20 51 20C50.8273 20 50.6575 20.0447 50.5073 20.1298C50.357 20.2149 50.2313 20.3375 50.1425 20.4855L48.2515 23.6371C47.6427 24.6474 46.7215 25.4319 45.6272 25.8721C44.6114 26.2782 43.7319 26.9649 43.0915 27.852C42.4511 28.7391 42.0762 29.7899 42.0104 30.882C41.9447 31.9741 42.1908 33.0624 42.7201 34.0199C43.2495 34.9774 44.0402 35.7647 45 36.2898V37.8571C44.5154 37.4415 43.9656 37.1087 43.3727 36.8721C42.2784 36.4319 41.3573 35.6474 40.7485 34.6372L38.8575 31.4855C38.7686 31.3375 38.6429 31.2149 38.4927 31.1298C38.3424 31.0447 38.1727 31 38 31V24H37.9986C37.9991 23.8127 37.9469 23.629 37.848 23.47L33 15.7131V12.5017C33.6609 12.1325 34.2001 11.579 34.5522 10.9088C34.9042 10.2386 35.0538 9.48052 34.9827 8.72682C34.9117 7.97312 34.623 7.25634 34.1519 6.66373C33.6809 6.07112 33.0476 5.62825 32.3294 5.38904C32.1325 5.324 31.9505 5.22056 31.7938 5.08471C31.6372 4.94886 31.509 4.78329 31.4168 4.5976L31 3.76398V0H29V3.76398L28.5832 4.5976C28.4909 4.78329 28.3628 4.94886 28.2061 5.08471C28.0495 5.22056 27.8675 5.324 27.6706 5.38904C26.9523 5.62825 26.3191 6.07112 25.848 6.66373C25.3769 7.25634 25.0883 7.97312 25.0172 8.72682C24.9462 9.48052 25.0957 10.2386 25.4478 10.9088C25.7998 11.579 26.3391 12.1325 27 12.5017V15.7131L22.152 23.47C22.053 23.629 22.0008 23.8127 22.0014 24H22V28.0177C21.9109 27.8946 21.8271 27.7678 21.7484 27.6372L19.8575 24.4855C19.7686 24.3375 19.6429 24.2149 19.4927 24.1298C19.3424 24.0447 19.1727 24 19 24C18.8273 24 18.6575 24.0447 18.5073 24.1298C18.357 24.2149 18.2313 24.3375 18.1425 24.4855L16.2515 27.6371C15.6427 28.6474 14.7215 29.4319 13.6272 29.8721C12.6652 30.2549 11.824 30.8896 11.1919 31.7097L9.85746 29.4855C9.76862 29.3374 9.64295 29.2149 9.49267 29.1298C9.34241 29.0447 9.17266 29 8.99997 29C8.82729 29 8.65754 29.0447 8.50727 29.1298C8.357 29.2149 8.23133 29.3374 8.14249 29.4855L6.2515 32.6371C5.64272 33.6474 4.72152 34.4319 3.62723 34.8721C2.61135 35.2782 1.7319 35.9649 1.0915 36.852C0.451106 37.7391 0.0761565 38.7899 0.0104004 39.882C-0.0553556 40.9741 0.190793 42.0624 0.720128 43.0199C1.24946 43.9774 2.04016 44.7647 2.99997 45.2898V48.6667L0.199984 52.4C0.0701588 52.5731 -2.36681e-05 52.7836 -2.79954e-05 53V59C-3.17711e-05 59.1313 0.0258314 59.2614 0.0760848 59.3827C0.126338 59.504 0.199998 59.6143 0.292857 59.7071C0.385716 59.8 0.495957 59.8736 0.617284 59.9239C0.738612 59.9741 0.868649 60 0.999972 60H59C59.1313 60 59.2613 59.9741 59.3827 59.9239C59.504 59.8736 59.6142 59.8 59.7071 59.7071C59.8 59.6143 59.8736 59.504 59.9239 59.3827C59.9741 59.2614 60 59.1313 60 59V44C60 43.7836 59.9298 43.5731 59.8 43.4L57 39.6667V36.2898C57.9076 35.7926 58.6648 35.0606 59.1926 34.1704C59.7204 33.2802 59.9992 32.2645 60 31.2297ZM46.37 27.729C47.8697 27.1258 49.1322 26.0506 49.9665 24.6661L51 22.9437L52.0335 24.6662C52.8678 26.0507 54.1303 27.1258 55.6299 27.729C56.4435 28.0544 57.1183 28.6531 57.5384 29.422C57.9585 30.191 58.0977 31.0822 57.932 31.9427C57.7663 32.8031 57.306 33.5789 56.6304 34.1369C55.9548 34.6948 55.1059 35 54.2297 35H47.7703C46.8941 35 46.0452 34.6948 45.3696 34.1369C44.6939 33.5789 44.2337 32.8031 44.068 31.9427C43.9023 31.0822 44.0415 30.191 44.4616 29.422C44.8817 28.6531 45.5565 28.0544 46.37 27.729ZM55.5 41L57 43H46.947C47.0381 42.3339 47.0116 41.657 46.8688 41H55.5ZM39 54V53C39 52.7348 39.1053 52.4804 39.2929 52.2929C39.4804 52.1054 39.7348 52 40 52C40.2652 52 40.5196 52.1054 40.7071 52.2929C40.8946 52.4804 41 52.7348 41 53V54H39ZM35 54V53C35 52.7348 35.1053 52.4804 35.2929 52.2929C35.4804 52.1054 35.7348 52 36 52C36.2652 52 36.5196 52.1054 36.7071 52.2929C36.8946 52.4804 37 52.7348 37 53V54H35ZM31 54V53C31 52.7348 31.1053 52.4804 31.2929 52.2929C31.4804 52.1054 31.7348 52 32 52C32.2652 52 32.5195 52.1054 32.7071 52.2929C32.8946 52.4804 33 52.7348 33 53V54H31ZM19 53.5858L16 50.5858V49H22V50.5858L19 53.5858ZM15.7703 41H22.2296C22.4873 40.9995 22.7447 40.9818 23 40.9471V43.7663C22.4507 43.2729 21.7383 43 21 43C20.2616 43 19.5493 43.2729 19 43.7663C18.4507 43.2729 17.7383 43 17 43C16.2616 43 15.5493 43.2729 15 43.7663V40.9471C15.2553 40.9818 15.5126 40.9995 15.7703 41ZM24 25H29V26.6667L26.2 30.4C26.0982 30.5367 26.033 30.6972 26.0108 30.8662C25.5236 30.4464 24.97 30.1104 24.3727 29.8721C24.2462 29.8215 24.122 29.7655 24 29.7055V25ZM29.0046 42H28V31.3333L30 28.6667L32 31.3333V37.1674C31.1237 37.6431 30.3866 38.339 29.8613 39.1864C29.3361 40.0339 29.0408 41.0036 29.0046 42ZM16 47V46C16 45.7348 16.1053 45.4804 16.2929 45.2929C16.4804 45.1054 16.7348 45 17 45C17.2652 45 17.5195 45.1054 17.7071 45.2929C17.8946 45.4804 18 45.7348 18 46V47H16ZM20 46C20 45.7348 20.1053 45.4804 20.2929 45.2929C20.4804 45.1054 20.7348 45 21 45C21.2652 45 21.5195 45.1054 21.7071 45.2929C21.8946 45.4804 22 45.7348 22 46V47H20V46ZM24 46C24 45.7348 24.1053 45.4804 24.2929 45.2929C24.4804 45.1054 24.7348 45 25 45C25.2652 45 25.5195 45.1054 25.7071 45.2929C25.8946 45.4804 26 45.7348 26 46V47H24V46ZM34 32H36V33.3897L35.2515 34.6371C34.922 35.1841 34.4983 35.6684 34 36.0677V32ZM36 30H33.4999L31 26.6667V25H36V30ZM26 42H25V40.2898C25.3569 40.0931 25.6921 39.8593 26 39.5923V42ZM14 46V47H12V46C12 45.7348 12.1053 45.4804 12.2929 45.2929C12.4804 45.1054 12.7348 45 13 45C13.2652 45 13.5195 45.1054 13.7071 45.2929C13.8946 45.4804 14 45.7348 14 46ZM12 49H14V50.5858L12 52.5858V49ZM24 49H26V52.5858L24 50.5858V49ZM28 46C28.0005 45.2615 27.7275 44.549 27.2337 44H29.2789C29.7346 45.4027 30.7076 46.5791 32 47.2898V50C31.2046 50.0009 30.4421 50.3172 29.8796 50.8797C29.3172 51.4421 29.0009 52.2046 29 53V58H28V46ZM40 50C39.2615 49.9995 38.549 50.2725 38 50.7663C37.4507 50.2729 36.7383 50 36 50C35.2616 50 34.5493 50.2729 34 50.7663V47.9471C34.2553 47.9818 34.5126 47.9995 34.7703 48H41.2297C41.4873 47.9995 41.7447 47.9818 42 47.9471V50.7663C41.4509 50.2725 40.7384 49.9995 40 50ZM43 53C43 52.7348 43.1053 52.4804 43.2929 52.2929C43.4804 52.1054 43.7348 52 44 52C44.2652 52 44.5196 52.1054 44.7071 52.2929C44.8946 52.4804 45 52.7348 45 53V54H43V53ZM52 58H48V54.4142L50 52.4142L52 54.4142V58ZM54 54.4142L56 52.4142L58 54.4142V58H54V54.4142ZM56.7071 50.2929C56.5195 50.1054 56.2652 50 56 50C55.7348 50 55.4804 50.1054 55.2929 50.2929L53 52.5858L50.7071 50.2929C50.5195 50.1054 50.2652 50 50 50C49.7348 50 49.4804 50.1054 49.2929 50.2929L46.974 52.6118C46.879 51.8899 46.5251 51.2272 45.978 50.7468C45.4309 50.2664 44.728 50.001 44 50V47.2898C44.9648 46.7589 45.7589 45.9648 46.2898 45H58V47H57V49H58V51.5858L56.7071 50.2929ZM39.0335 35.6662C39.8678 37.0507 41.1303 38.1258 42.6299 38.729C43.4435 39.0544 44.1183 39.6531 44.5384 40.422C44.9585 41.191 45.0977 42.0822 44.932 42.9427C44.7663 43.8031 44.306 44.5789 43.6304 45.1369C42.9548 45.6948 42.1059 46 41.2297 46H34.7703C33.8941 46 33.0452 45.6948 32.3696 45.1369C31.6939 44.5789 31.2337 43.8031 31.068 42.9427C30.9023 42.0822 31.0415 41.191 31.4616 40.422C31.8817 39.6531 32.5565 39.0544 33.37 38.729C34.8697 38.1258 36.1322 37.0506 36.9665 35.6661L37.9662 34H38V33.9437L39.0335 35.6662ZM31 23V17H31.4457L35.1957 23H31ZM31 15H29V13H31V15ZM28.303 7.28638C28.9758 7.06416 29.5667 6.64588 30 6.08527C30.4332 6.64588 31.0242 7.06416 31.6969 7.28638C32.1262 7.42948 32.4906 7.72067 32.7248 8.10784C32.959 8.49501 33.0479 8.95289 32.9754 9.39956C32.9029 9.84622 32.6738 10.2525 32.3292 10.5457C31.9845 10.839 31.5468 11 31.0943 11H28.9057C28.4532 11 28.0154 10.839 27.6708 10.5457C27.3261 10.2525 27.0971 9.84622 27.0246 9.39956C26.9521 8.95289 27.0409 8.49501 27.2751 8.10784C27.5094 7.72067 27.8737 7.42948 28.303 7.28638ZM28.5542 17H29V23H24.8042L28.5542 17ZM14.37 31.729C15.8697 31.1258 17.1322 30.0506 17.9665 28.6661L19 26.9437L20.0335 28.6662C20.8678 30.0507 22.1303 31.1258 23.6299 31.729C24.4435 32.0544 25.1183 32.6531 25.5384 33.422C25.9585 34.191 26.0977 35.0822 25.932 35.9427C25.7663 36.8031 25.306 37.5789 24.6304 38.1369C23.9548 38.6948 23.1059 39 22.2296 39H15.7703C14.8941 39 14.0452 38.6948 13.3696 38.1369C12.6939 37.5789 12.2337 36.8031 12.068 35.9427C11.9023 35.0822 12.0414 34.191 12.4616 33.422C12.8817 32.6531 13.5565 32.0544 14.37 31.729ZM4.37003 36.729C5.86971 36.1258 7.13217 35.0506 7.96646 33.6661L8.99997 31.9437L10.0335 33.6661C10.0745 33.7345 10.1176 33.8018 10.1609 33.869C9.86354 35.1025 9.98043 36.3995 10.4935 37.56C11.0066 38.7204 11.8874 39.6797 13 40.2898V43C12.5782 42.9999 12.1612 43.0889 11.7762 43.2613C11.3913 43.4336 11.0471 43.6853 10.7663 44H5.7703C4.89406 44 4.04519 43.6948 3.36955 43.1369C2.69391 42.5789 2.2337 41.8031 2.06799 40.9427C1.90229 40.0822 2.04145 39.191 2.46155 38.422C2.88165 37.6531 3.55647 37.0544 4.37003 36.729ZM5.7703 46H9.99997V48H4.99997V45.9471C5.25528 45.9818 5.51263 45.9995 5.7703 46ZM4.49997 50H9.99997V53C9.43205 52.9999 8.87066 53.1211 8.35331 53.3553C7.83595 53.5896 7.37456 53.9316 6.99997 54.3585C6.39053 53.6638 5.55884 53.2023 4.64692 53.0526C3.73501 52.903 2.79943 53.0746 1.99997 53.5381V53.3333L4.49997 50ZM1.99997 57C1.99997 56.4696 2.21069 55.9609 2.58576 55.5858C2.96083 55.2107 3.46954 55 3.99997 55C4.53041 55 5.03911 55.2107 5.41419 55.5858C5.78926 55.9609 5.99997 56.4696 5.99997 57V58H1.99997V57ZM7.99997 57C8.00058 56.4698 8.21149 55.9614 8.58643 55.5865C8.96137 55.2115 9.46973 55.0006 9.99997 55V58H7.99997V57ZM12 55.4142L15 52.4142L18 55.4142V58H12V55.4142ZM20 58V55.4142L23 52.4142L26 55.4142V58H20ZM45 58H31V56H45V58ZM55 39H47V36.9471C47.2553 36.9818 47.5126 36.9995 47.7703 37H54.2297C54.4873 36.9995 54.7447 36.9818 55 36.9471V39Z" fill="#FFB75E"/>
<path d="M51 47H49V49H51V47Z" fill="#FFB75E"/>
<path d="M55 47H53V49H55V47Z" fill="#FFB75E"/>
<path d="M47 47H45V49H47V47Z" fill="#FFB75E"/>
</svg>
