<svg width="60" height="58" viewBox="0 0 60 58" fill="none" xmlns="http://www.w3.org/2000/svg">
<path d="M30 22C31.1867 22 32.3467 21.6481 33.3334 20.9888C34.3201 20.3295 35.0891 19.3925 35.5433 18.2961C35.9974 17.1997 36.1162 15.9933 35.8847 14.8295C35.6532 13.6656 35.0818 12.5965 34.2426 11.7574C33.4035 10.9182 32.3344 10.3468 31.1705 10.1153C30.0067 9.88378 28.8003 10.0026 27.7039 10.4567C26.6075 10.9108 25.6705 11.6799 25.0112 12.6666C24.3519 13.6533 24 14.8133 24 16C24.0017 17.5908 24.6344 19.1159 25.7593 20.2407C26.8841 21.3656 28.4092 21.9983 30 22ZM30 12C30.7911 12 31.5645 12.2346 32.2223 12.6741C32.8801 13.1136 33.3928 13.7384 33.6955 14.4693C33.9983 15.2002 34.0775 16.0044 33.9231 16.7804C33.7688 17.5563 33.3878 18.269 32.8284 18.8284C32.269 19.3878 31.5563 19.7688 30.7804 19.9231C30.0044 20.0775 29.2002 19.9983 28.4693 19.6955C27.7384 19.3928 27.1136 18.8801 26.6741 18.2223C26.2346 17.5645 26 16.7911 26 16C26.0011 14.9395 26.4229 13.9227 27.1728 13.1728C27.9227 12.4229 28.9395 12.0011 30 12Z" fill="#FFB75E"/>
<path d="M18 15H22V17H18V15Z" fill="#FFB75E"/>
<path d="M38 15H42V17H38V15Z" fill="#FFB75E"/>
<path d="M35 24H38V26H35V24Z" fill="#FFB75E"/>
<path d="M27 24H33V26H27V24Z" fill="#FFB75E"/>
<path d="M22 24H25V26H22V24Z" fill="#FFB75E"/>
<path d="M19 28H28V30H19V28Z" fill="#FFB75E"/>
<path d="M32 28H41V30H32V28Z" fill="#FFB75E"/>
<path d="M25 32H27V34H25V32Z" fill="#FFB75E"/>
<path d="M29 32H35V34H29V32Z" fill="#FFB75E"/>
<path d="M58 0H2C1.46975 0.000606423 0.961398 0.211515 0.586456 0.586456C0.211515 0.961398 0.000606423 1.46975 0 2V46C0.000606423 46.5302 0.211515 47.0386 0.586456 47.4135C0.961398 47.7885 1.46975 47.9994 2 48H35.9462L33.1523 52.4702C33.0576 52.6215 33.005 52.7954 33.0002 52.9739C32.9955 53.1524 33.0386 53.3289 33.1251 53.485C33.2116 53.6412 33.3384 53.7713 33.4923 53.8619C33.6461 53.9525 33.8215 54.0001 34 54H37.3818L39.1055 57.4473C39.1849 57.6061 39.3052 57.7409 39.454 57.8379C39.6028 57.9349 39.7747 57.9905 39.9521 57.999C39.9688 57.9995 39.9844 58 40 58C40.1696 58.0001 40.3364 57.9569 40.4847 57.8747C40.633 57.7924 40.7579 57.6737 40.8477 57.5298L45.5674 49.9781C45.7119 49.9843 45.854 50 46 50C46.146 50 46.2881 49.9843 46.4326 49.9781L51.1523 57.5298C51.2421 57.6737 51.367 57.7924 51.5153 57.8747C51.6636 57.9569 51.8304 58.0001 52 58C52.0156 58 52.0312 57.9995 52.0479 57.999C52.2253 57.9905 52.3972 57.9349 52.546 57.8379C52.6948 57.7409 52.8151 57.6061 52.8945 57.4473L54.6182 54H58C58.1785 54.0001 58.3539 53.9525 58.5077 53.8619C58.6616 53.7713 58.7884 53.6412 58.8749 53.485C58.9614 53.3289 59.0045 53.1524 58.9998 52.9739C58.995 52.7954 58.9424 52.6215 58.8477 52.4702L56.0538 48H58C58.5302 47.9994 59.0386 47.7885 59.4135 47.4135C59.7885 47.0386 59.9994 46.5302 60 46V2C59.9994 1.46975 59.7885 0.961398 59.4135 0.586456C59.0386 0.211515 58.5302 0.000606423 58 0ZM8 40V8H52V32.0191C50.5175 30.8984 48.7516 30.2138 46.901 30.0425C45.0505 29.8712 43.1889 30.2199 41.5259 31.0494C39.8628 31.879 38.4644 33.1563 37.4881 34.7377C36.5118 36.319 35.9965 38.1416 36 40H8ZM6.07452 7.48859C6.02739 7.65506 6.00233 7.827 6 8V40C6.00233 40.173 6.02739 40.3449 6.07452 40.5114L2 44.5859V3.41406L6.07452 7.48859ZM52.5114 6.07459C52.3449 6.02744 52.173 6.00236 52 6H8C7.82702 6.00236 7.6551 6.02744 7.48865 6.07458L3.41406 2H56.5859L52.5114 6.07459ZM3.41406 46L7.48865 41.9254C7.6551 41.9726 7.82702 41.9976 8 42H36.2016C36.4495 43.2023 36.9182 44.3482 37.584 45.3796L37.1962 46H3.41406ZM40.0967 54.958L38.8945 52.5527C38.8114 52.3867 38.6837 52.247 38.5257 52.1494C38.3678 52.0517 38.1857 52 38 52H35.8047L38.9053 47.038C40.1514 48.2918 41.7076 49.1928 43.4154 49.6491L40.0967 54.958ZM38 40C38 38.4178 38.4692 36.871 39.3482 35.5554C40.2273 34.2398 41.4767 33.2145 42.9385 32.609C44.4003 32.0035 46.0089 31.845 47.5607 32.1537C49.1126 32.4624 50.538 33.2243 51.6569 34.3431C52.7757 35.462 53.5376 36.8874 53.8463 38.4393C54.155 39.9911 53.9965 41.5997 53.391 43.0615C52.7855 44.5233 51.7602 45.7727 50.4446 46.6518C49.129 47.5308 47.5822 48 46 48C43.879 47.9976 41.8456 47.1539 40.3458 45.6542C38.8461 44.1544 38.0024 42.121 38 40ZM54 52C53.8143 52 53.6322 52.0517 53.4743 52.1494C53.3163 52.247 53.1886 52.3867 53.1055 52.5527L51.9033 54.958L48.5846 49.6491C50.2924 49.1928 51.8486 48.2918 53.0947 47.038L56.1953 52H54ZM54.8038 46L54.416 45.3796C55.5201 43.6675 56.0706 41.657 55.9928 39.6212C55.9149 37.5854 55.2125 35.6229 53.9809 34H54V8C53.9977 7.827 53.9726 7.65506 53.9255 7.48859L58 3.41406V46H54.8038Z" fill="#FFB75E"/>
<path d="M50.2422 35.7573L48.8281 37.1714C49.1996 37.5428 49.4944 37.9838 49.6954 38.4691C49.8965 38.9545 50 39.4747 50 40C50 40.5253 49.8965 41.0455 49.6954 41.5309C49.4944 42.0162 49.1996 42.4572 48.8281 42.8286C47.3164 44.3394 44.6836 44.3394 43.1719 42.8286L41.7578 44.2427C42.3149 44.8001 42.9763 45.2422 43.7044 45.5439C44.4324 45.8456 45.2127 46.001 46.0007 46.001C46.7888 46.0011 47.5691 45.8459 48.2972 45.5444C49.0253 45.2428 49.6868 44.8008 50.244 44.2435C50.8012 43.6862 51.2432 43.0247 51.5446 42.2966C51.8461 41.5685 52.0012 40.7881 52.001 40C52.0009 39.212 51.8454 38.4317 51.5437 37.7037C51.2419 36.9757 50.7996 36.3144 50.2422 35.7573Z" fill="#FFB75E"/>
</svg>
