<svg width="60" height="60" viewBox="0 0 60 60" fill="none" xmlns="http://www.w3.org/2000/svg">
<path d="M1 57H12.6728C15.3949 58.9444 18.6548 59.9929 22 60H31.0001C31.4801 60.0002 31.9531 59.8851 32.3794 59.6645C32.8056 59.4439 33.1728 59.1242 33.4498 58.7323C33.7269 58.3404 33.9059 57.8877 33.9717 57.4122C34.0375 56.9368 33.9882 56.4524 33.828 56H55C55.1313 56 55.2614 55.9741 55.3827 55.9239C55.504 55.8736 55.6143 55.8 55.7071 55.7071C55.8 55.6143 55.8736 55.504 55.9239 55.3827C55.9741 55.2614 56 55.1313 56 55V36H59C59.181 36 59.3586 35.9509 59.5139 35.8579C59.6691 35.7648 59.7963 35.6314 59.8817 35.4719C59.9671 35.3123 60.0076 35.1325 59.9988 34.9517C59.9901 34.7709 59.9324 34.5959 59.832 34.4453L55.832 28.4453C55.7407 28.3083 55.617 28.196 55.4719 28.1183C55.3267 28.0406 55.1646 28 55 28H51.0711L50.1102 27.0391C49.9441 26.873 49.8315 26.661 49.7868 26.4304C49.7422 26.1998 49.7675 25.9611 49.8596 25.7449L49.8673 25.7263C49.9559 25.5109 50.1067 25.3268 50.3004 25.1974C50.4941 25.0681 50.7219 24.9993 50.9548 25H55C55.1313 25 55.2614 24.9741 55.3827 24.9239C55.504 24.8736 55.6143 24.8 55.7071 24.7071C55.8 24.6143 55.8736 24.504 55.9239 24.3827C55.9741 24.2614 56 24.1313 56 24V16C56 15.8687 55.9741 15.7386 55.9239 15.6173C55.8736 15.496 55.8 15.3857 55.7071 15.2929C55.6143 15.2 55.504 15.1264 55.3827 15.0761C55.2614 15.0259 55.1313 15 55 15H50.9548C50.7222 15.0007 50.4945 14.9322 50.301 14.8031C50.1074 14.674 49.9566 14.4902 49.8679 14.2751L49.8554 14.2452C49.7655 14.03 49.7418 13.7929 49.7871 13.5642C49.8325 13.3355 49.945 13.1254 50.1102 12.9609L52.9705 10.1005C53.0634 10.0076 53.1371 9.89738 53.1873 9.77605C53.2376 9.65473 53.2635 9.52469 53.2635 9.39337C53.2635 9.26205 53.2376 9.13201 53.1873 9.01069C53.1371 8.88937 53.0634 8.77913 52.9705 8.68628L47.3137 3.02948C47.2209 2.93662 47.1106 2.86296 46.9893 2.8127C46.868 2.76245 46.738 2.73658 46.6066 2.73658C46.4753 2.73658 46.3453 2.76245 46.224 2.8127C46.1026 2.86296 45.9924 2.93662 45.8995 3.02948L43.0391 5.88983C42.8744 6.05516 42.6641 6.16765 42.4352 6.21294C42.2062 6.25823 41.9689 6.23427 41.7537 6.1441L41.7263 6.13275C41.5109 6.04413 41.3268 5.89335 41.1974 5.69965C41.0681 5.50594 40.9993 5.27809 41 5.04517V1C41 0.868677 40.9741 0.738639 40.9239 0.617312C40.8736 0.495985 40.8 0.385744 40.7071 0.292885C40.6143 0.200025 40.504 0.126366 40.3827 0.0761127C40.2614 0.0258594 40.1313 -3.77528e-06 40 4.13365e-10H32C31.8687 -3.77528e-06 31.7386 0.0258594 31.6173 0.0761127C31.496 0.126366 31.3857 0.200025 31.2929 0.292885C31.2 0.385744 31.1264 0.495985 31.0761 0.617312C31.0259 0.738639 31 0.868677 31 1V5.04517C31.0006 5.27822 30.9318 5.50618 30.8023 5.69995C30.6728 5.89372 30.4885 6.0445 30.273 6.13306L30.2452 6.14459C30.03 6.23445 29.793 6.25821 29.5642 6.21284C29.3355 6.16747 29.1255 6.05502 28.9609 5.88983L26.1005 3.02948C25.9129 2.84195 25.6586 2.7366 25.3934 2.7366C25.1282 2.7366 24.8738 2.84195 24.6863 3.02948L19.0295 8.68628C18.9366 8.77913 18.8629 8.88937 18.8127 9.01069C18.7624 9.13201 18.7366 9.26205 18.7366 9.39337C18.7366 9.52469 18.7624 9.65473 18.8127 9.77605C18.8629 9.89738 18.9366 10.0076 19.0295 10.1005L21.8898 12.9609C22.0559 13.127 22.1685 13.339 22.2132 13.5696C22.2578 13.8002 22.2325 14.039 22.1404 14.2551L22.1328 14.2737C22.0441 14.4891 21.8934 14.6732 21.6997 14.8026C21.5059 14.9319 21.2781 15.0007 21.0452 15H17C16.8687 15 16.7386 15.0259 16.6173 15.0761C16.496 15.1264 16.3857 15.2 16.2929 15.2929C16.2 15.3857 16.1264 15.496 16.0761 15.6173C16.0259 15.7386 16 15.8687 16 16V24C16 24.1313 16.0259 24.2614 16.0761 24.3827C16.1264 24.504 16.2 24.6143 16.2929 24.7071C16.3857 24.8 16.496 24.8736 16.6173 24.9239C16.7386 24.9741 16.8687 25 17 25H21.0452C21.2778 24.9993 21.5055 25.0678 21.6991 25.1969C21.8926 25.326 22.0434 25.5098 22.1321 25.7249L22.1446 25.7548C22.2345 25.97 22.2582 26.2071 22.2129 26.4358C22.1675 26.6645 22.055 26.8746 21.8898 27.0391L20.929 28H15C14.8354 28 14.6733 28.0406 14.5281 28.1183C14.383 28.196 14.2593 28.3083 14.168 28.4453L10.168 34.4453C10.0676 34.5959 10.0099 34.7709 10.0012 34.9517C9.99246 35.1325 10.0329 35.3123 10.1184 35.4719C10.2038 35.6314 10.3309 35.7648 10.4861 35.8579C10.6414 35.9509 10.819 36 11 36H14V47.0056C13.9189 47.0039 13.8381 47 13.7567 47H11.0991L1.19611 45.0194C1.05103 44.9904 0.901323 44.994 0.757783 45.0298C0.614242 45.0656 0.480442 45.1329 0.366028 45.2267C0.251614 45.3205 0.159437 45.4385 0.0961423 45.5722C0.0328471 45.7059 1.0683e-05 45.8521 4.13479e-10 46V56C-3.77528e-06 56.1313 0.0258594 56.2614 0.0761128 56.3827C0.126366 56.504 0.200026 56.6143 0.292885 56.7071C0.385744 56.8 0.495985 56.8736 0.617312 56.9239C0.73864 56.9741 0.868677 57 1 57ZM54 54H38V32.3027L40.168 35.5547C40.2593 35.6917 40.383 35.804 40.5281 35.8817C40.6733 35.9594 40.8354 36 41 36H54V54ZM57.1315 34H41.5352L38.8685 30H54.4649L57.1315 34ZM23.9921 24.989C23.9918 24.9882 23.9869 24.9765 23.9866 24.9758L23.9814 24.9631C23.7424 24.3812 23.3354 23.8837 22.8125 23.5341C22.2895 23.1844 21.6742 22.9985 21.0452 23H18V17H21.0452C21.6742 17.0015 22.2895 16.8156 22.8125 16.4659C23.3354 16.1163 23.7424 15.6188 23.9814 15.0369L23.9866 15.0242L23.9917 15.0121C24.2342 14.4315 24.2983 13.7918 24.1758 13.1746C24.0534 12.5575 23.7499 11.9907 23.304 11.5467L21.1508 9.39338L25.3934 5.15076L27.5467 7.30402C27.9906 7.74972 28.5571 8.05319 29.174 8.17573C29.791 8.29828 30.4305 8.23436 31.011 7.99212L31.0369 7.98138C31.6188 7.74238 32.1163 7.33544 32.4659 6.81248C32.8156 6.28952 33.0015 5.67425 33 5.04517V2H39V5.04517C38.9984 5.67412 39.1843 6.28928 39.5338 6.81218C39.8833 7.33508 40.3807 7.74201 40.9624 7.98108L40.9879 7.9917C41.5685 8.23416 42.2082 8.29823 42.8253 8.17576C43.4425 8.05329 44.0093 7.74981 44.4533 7.30402L46.6066 5.15076L50.8493 9.39338L48.696 11.5467C48.2503 11.9905 47.9468 12.557 47.8242 13.174C47.7017 13.791 47.7656 14.4305 48.0079 15.011C48.0082 15.0118 48.0131 15.0235 48.0134 15.0242L48.0186 15.0369C48.2576 15.6188 48.6646 16.1163 49.1875 16.4659C49.7105 16.8156 50.3258 17.0015 50.9548 17H54V23H50.9548C50.3258 22.9985 49.7105 23.1844 49.1875 23.5341C48.6646 23.8837 48.2576 24.3812 48.0186 24.9631L48.0134 24.9758L48.0083 24.9879C47.8046 25.4761 47.7266 26.0076 47.7813 26.5338C47.8361 27.06 48.0219 27.5641 48.3217 28H43.5497C44.613 26.9965 45.4657 25.7911 46.0578 24.4543C46.6498 23.1174 46.9694 21.676 46.9979 20.2142C47.0264 18.7523 46.7632 17.2995 46.2236 15.9406C45.6841 14.5817 44.879 13.3441 43.8555 12.2999L42.4273 13.7001C43.4136 14.7064 44.1498 15.9302 44.5768 17.2729C45.0038 18.6157 45.1095 20.04 44.8856 21.4311C44.6616 22.8222 44.1142 24.1413 43.2874 25.2822C42.4606 26.4232 41.3775 27.3541 40.1253 28H31.8788C30.8223 27.4538 29.8839 26.7046 29.1174 25.7952C28.3509 24.8858 27.7713 23.8341 27.4119 22.7004L25.5038 23.2996C26.07 25.0923 27.0853 26.7103 28.4532 28H23.6783C23.9781 27.5643 24.1639 27.0605 24.2187 26.5345C24.2735 26.0085 24.1956 25.4771 23.9921 24.989ZM15.5352 30H35.1315L32.4648 34H12.8685L15.5352 30ZM16 36H33C33.1646 36 33.3267 35.9594 33.4719 35.8817C33.617 35.804 33.7407 35.6917 33.832 35.5547L36 32.3027V54L27.8279 54.0002C27.988 53.5477 28.0372 53.0634 27.9714 52.588C27.9055 52.1126 27.7265 51.6599 27.4495 51.268C27.1724 50.8761 26.8054 50.5564 26.3791 50.3358C25.9529 50.1151 25.48 50 25 50L21.4034 50.0007C19.894 48.5931 18.0234 47.6321 16 47.2249V36ZM20.293 51.7078C20.3859 51.8007 20.4961 51.8744 20.6175 51.9247C20.7388 51.9749 20.8689 52.0008 21.0002 52.0008L24.9999 52C25.1312 52 25.2612 52.0258 25.3826 52.076C25.5039 52.1263 25.6142 52.1999 25.707 52.2927C25.7999 52.3856 25.8736 52.4958 25.9239 52.6171C25.9742 52.7384 26.0001 52.8685 26.0001 52.9998C26.0001 53.1311 25.9743 53.2611 25.9241 53.3825C25.8738 53.5038 25.8002 53.6141 25.7073 53.707C25.6145 53.7998 25.5043 53.8735 25.383 53.9238C25.2617 53.9741 25.1316 54 25.0003 54H21V56L30.9999 56.0001C31.1314 55.9999 31.2615 56.0257 31.383 56.0758C31.5044 56.126 31.6148 56.1996 31.7078 56.2925C31.8007 56.3854 31.8745 56.4957 31.9248 56.617C31.9752 56.7384 32.0011 56.8686 32.0011 57C32.0011 57.1314 31.9752 57.2615 31.9249 57.3829C31.8746 57.5043 31.8008 57.6146 31.7079 57.7075C31.6149 57.8003 31.5045 57.874 31.3831 57.9242C31.2616 57.9744 31.1315 58.0001 31.0001 58H22C18.9718 57.9937 16.0263 57.0119 13.6 55.2C13.4269 55.0702 13.2164 55 13 55H12V49H13.7567C14.9711 48.9967 16.1741 49.2343 17.2961 49.6991C18.4181 50.1639 19.4367 50.8467 20.293 51.7078ZM2 47.2198L10 48.8198V55H2V47.2198Z" fill="#FFB75E"/>
<path d="M36 26C37.1867 26 38.3467 25.6481 39.3334 24.9888C40.3201 24.3295 41.0891 23.3925 41.5433 22.2961C41.9974 21.1997 42.1162 19.9933 41.8847 18.8295C41.6532 17.6656 41.0818 16.5965 40.2426 15.7574C39.4035 14.9182 38.3344 14.3468 37.1705 14.1153C36.0067 13.8838 34.8003 14.0026 33.7039 14.4567C32.6075 14.9108 31.6705 15.6799 31.0112 16.6666C30.3519 17.6533 30 18.8133 30 20C30.0018 21.5907 30.6345 23.1158 31.7593 24.2407C32.8842 25.3655 34.4092 25.9982 36 26ZM36 16C36.7911 16 37.5645 16.2346 38.2223 16.6741C38.8801 17.1136 39.3928 17.7384 39.6955 18.4693C39.9983 19.2002 40.0775 20.0044 39.9231 20.7804C39.7688 21.5563 39.3878 22.269 38.8284 22.8284C38.269 23.3878 37.5563 23.7688 36.7804 23.9231C36.0044 24.0775 35.2002 23.9983 34.4693 23.6955C33.7384 23.3928 33.1136 22.8801 32.6741 22.2223C32.2346 21.5645 32 20.7911 32 20C32.0012 18.9395 32.423 17.9228 33.1729 17.1729C33.9228 16.423 34.9395 16.0012 36 16Z" fill="#FFB75E"/>
<path d="M30 40H28V42H30V40Z" fill="#FFB75E"/>
<path d="M26 40H22V42H26V40Z" fill="#FFB75E"/>
<path d="M32 44H25V46H32V44Z" fill="#FFB75E"/>
<path d="M23 44H20V46H23V44Z" fill="#FFB75E"/>
</svg>
