<svg width="70" height="70" viewBox="0 0 70 70" fill="none" xmlns="http://www.w3.org/2000/svg">
<g clip-path="url(#clip0)">
<path d="M61.8333 40.834H60.6667V32.6673C60.6667 30.0902 58.5771 28.0006 56 28.0006H53.6667V24.5007C53.6667 23.8564 53.1443 23.334 52.5 23.334C51.8557 23.334 51.3333 23.8564 51.3333 24.5007V28.0006H4.66667C3.37809 28.0006 2.33333 26.9559 2.33333 25.6673C2.33333 25.023 1.81095 24.5007 1.16667 24.5007C0.522379 24.5007 0 25.023 0 25.6673V65.334C0 67.9111 2.08952 70.0006 4.66667 70.0006H56C58.5771 70.0006 60.6667 67.9111 60.6667 65.334V57.1673H61.8333C66.3439 57.1673 70 53.5112 70 49.0006C70 44.4901 66.3439 40.834 61.8333 40.834ZM4.66667 30.334H56C57.2886 30.334 58.3333 31.3787 58.3333 32.6673V35.0006H2.33333V29.7039C3.04256 30.1152 3.84692 30.3323 4.66667 30.334ZM58.3333 60.6673H34.2765C33.6322 60.6673 33.1099 61.1897 33.1099 61.834C33.1099 62.4783 33.6322 63.0006 34.2765 63.0006H58.3333V65.334C58.3333 66.6225 57.2886 67.6673 56 67.6673H25.5499C31.2824 64.0773 33.9444 57.1257 32.0771 50.6253C30.2097 44.1249 24.2636 39.6468 17.5 39.6468C10.7364 39.6468 4.79028 44.1249 2.92293 50.6253C1.05558 57.1257 3.71761 64.0773 9.45011 67.6673H4.66667C3.37809 67.6673 2.33333 66.6225 2.33333 65.334V37.334H58.3333V40.834H47.8333C43.3228 40.834 39.6667 44.4901 39.6667 49.0006C39.6667 53.5112 43.3228 57.1673 47.8333 57.1673H58.3333V60.6673ZM17.5 67.6673C10.4123 67.6673 4.66667 61.9217 4.66667 54.834C4.66667 47.7463 10.4123 42.0006 17.5 42.0006C24.5877 42.0006 30.3333 47.7463 30.3333 54.834C30.3333 61.9217 24.5877 67.6673 17.5 67.6673ZM61.8333 54.834H47.8333C44.6119 54.834 42 52.2221 42 49.0006C42 45.7792 44.6119 43.1673 47.8333 43.1673H61.8333C65.0548 43.1673 67.6667 45.7792 67.6667 49.0006C67.6667 52.2221 65.0548 54.834 61.8333 54.834Z" fill="white"/>
<path d="M47.8334 45.5C45.9005 45.5 44.3334 47.0671 44.3334 49C44.3334 50.9329 45.9005 52.5 47.8334 52.5C49.7662 52.5 51.3334 50.9329 51.3334 49C51.3334 47.0671 49.7662 45.5 47.8334 45.5ZM47.8334 50.1667C47.1891 50.1667 46.6667 49.6443 46.6667 49C46.6667 48.3557 47.1891 47.8333 47.8334 47.8333C48.4777 47.8333 49 48.3557 49 49C49 49.6443 48.4777 50.1667 47.8334 50.1667Z" fill="white"/>
<path d="M17.4999 50.1667C18.4667 50.1667 19.2499 50.95 19.2499 51.9167C19.2499 52.561 19.7723 53.0833 20.4166 53.0833C21.0609 53.0833 21.5833 52.561 21.5833 51.9167C21.5759 50.1171 20.3915 48.534 18.6666 48.0202V46.6667C18.6666 46.0224 18.1442 45.5 17.4999 45.5C16.8557 45.5 16.3333 46.0224 16.3333 46.6667V48.0202C14.3839 48.5893 13.1523 50.5079 13.4457 52.5177C13.7396 54.5269 15.4691 56.0125 17.4999 56C18.4667 56 19.2499 56.7833 19.2499 57.75C19.2499 58.7167 18.4667 59.5 17.4999 59.5C16.5332 59.5 15.7499 58.7167 15.7499 57.75C15.7499 57.1057 15.2276 56.5833 14.5833 56.5833C13.939 56.5833 13.4166 57.1057 13.4166 57.75C13.424 59.5496 14.6083 61.1327 16.3333 61.6465V63C16.3333 63.6443 16.8557 64.1667 17.4999 64.1667C18.1442 64.1667 18.6666 63.6443 18.6666 63V61.6465C20.616 61.0774 21.8476 59.1588 21.5542 57.149C21.2603 55.1398 19.5308 53.6541 17.4999 53.6667C16.5332 53.6667 15.7499 52.8834 15.7499 51.9167C15.7499 50.95 16.5332 50.1667 17.4999 50.1667Z" fill="white"/>
<path d="M6.99998 25.6667C7.64427 25.6667 8.16665 25.1443 8.16665 24.5V2.33333H33.8333V24.5C33.8333 25.1443 34.3557 25.6667 35 25.6667C35.6443 25.6667 36.1666 25.1443 36.1666 24.5V16.3333H37.3333C37.3333 18.9105 39.4228 21 42 21V24.5C42 25.1443 42.5224 25.6667 43.1666 25.6667C43.8109 25.6667 44.3333 25.1443 44.3333 24.5V19.8333C44.3333 19.189 43.8109 18.6667 43.1666 18.6667H42C40.7114 18.6667 39.6666 17.6219 39.6666 16.3333V15.1667C39.6666 14.5224 39.1443 14 38.5 14H36.1666V11.6667H46.6666V24.5C46.6666 25.1443 47.189 25.6667 47.8333 25.6667C48.4776 25.6667 49 25.1443 49 24.5V10.5C49 9.85571 48.4776 9.33333 47.8333 9.33333H36.1666V1.16667C36.1666 0.52238 35.6443 0 35 0H6.99998C6.35569 0 5.83331 0.52238 5.83331 1.16667V24.5C5.83331 25.1443 6.35569 25.6667 6.99998 25.6667Z" fill="white"/>
<path d="M30.3333 25.666C30.9776 25.666 31.5 25.1436 31.5 24.4993V10.4993C31.5 9.85506 30.9776 9.33268 30.3333 9.33268H29.1667C27.8781 9.33268 26.8333 8.28792 26.8333 6.99935V5.83268C26.8333 5.1884 26.311 4.66602 25.6667 4.66602H16.3333C15.689 4.66602 15.1667 5.1884 15.1667 5.83268V6.99935C15.1667 8.28792 14.1219 9.33268 12.8333 9.33268H11.6667C11.0224 9.33268 10.5 9.85506 10.5 10.4993V24.4993C10.5 25.1436 11.0224 25.666 11.6667 25.666C12.311 25.666 12.8333 25.1436 12.8333 24.4993V11.666C15.4105 11.666 17.5 9.5765 17.5 6.99935H24.5C24.5 9.5765 26.5895 11.666 29.1667 11.666V24.4993C29.1667 25.1436 29.689 25.666 30.3333 25.666Z" fill="white"/>
<path d="M21 18.666C17.7786 18.666 15.1667 21.2779 15.1667 24.4993C15.1667 25.1436 15.6891 25.666 16.3334 25.666C16.9776 25.666 17.5 25.1436 17.5 24.4993C17.5 22.5665 19.0672 20.9993 21 20.9993C22.9329 20.9993 24.5 22.5665 24.5 24.4993C24.5 25.1436 25.0224 25.666 25.6667 25.666C26.311 25.666 26.8333 25.1436 26.8333 24.4993C26.8333 21.2779 24.2214 18.666 21 18.666Z" fill="white"/>
</g>
<defs>
<clipPath id="clip0">
<rect width="70" height="70" fill="white"/>
</clipPath>
</defs>
</svg>
