<svg width="310" height="310" viewBox="0 0 310 310" fill="none" xmlns="http://www.w3.org/2000/svg">
<g clip-path="url(#clip0)">
<path d="M274.426 297.295H30.4918C27.6853 297.295 25.4098 299.571 25.4098 302.377C25.4098 305.184 27.6853 307.459 30.4918 307.459H274.426C277.233 307.459 279.508 305.184 279.508 302.377C279.508 299.571 277.233 297.295 274.426 297.295Z" fill="#FFBC6A"/>
<path d="M55.9016 185.492C69.9341 185.492 81.3115 196.869 81.3115 210.902V231.23C81.3115 234.036 83.587 236.312 86.3934 236.312C89.1999 236.312 91.4754 234.036 91.4754 231.23V210.902C91.4804 195.167 81.1452 181.298 66.0656 176.802V164.655C77.897 162.241 86.3959 151.831 86.3934 139.754V113.684C95.3638 111.367 101.632 103.28 101.639 94.0164V78.7705C101.639 75.964 99.3639 73.6886 96.5574 73.6886H40.6557C23.8168 73.6886 10.1639 87.3414 10.1639 104.18V124.508C10.1714 133.771 16.4395 141.858 25.4098 144.176V176.802C10.3302 181.298 -0.00496107 195.167 1.78656e-06 210.902V282.049C1.78656e-06 284.856 2.27547 287.131 5.08197 287.131C7.88847 287.131 10.1639 284.856 10.1639 282.049V210.902C10.1639 196.869 21.5413 185.492 35.5738 185.492H55.9016ZM76.2295 139.754C76.2295 148.174 69.4031 155 60.9836 155H35.5738V144.836H40.6557C46.2687 144.836 50.8197 140.285 50.8197 134.672V114.344H76.2295V139.754ZM20.3279 124.508V104.18C20.3279 92.9544 29.4298 83.8525 40.6557 83.8525H91.4754V94.0164C91.4754 99.6294 86.9245 104.18 81.3115 104.18H45.7377C42.9312 104.18 40.6557 106.456 40.6557 109.262V134.672H30.4918C24.8788 134.672 20.3279 130.121 20.3279 124.508ZM35.5738 165.164H55.9016V175.328H35.5738V165.164Z" fill="#FFBC6A"/>
<path d="M289.672 149.918V136.297C302.079 130.414 309.99 117.912 310 104.18V99.0982C310 79.4503 294.074 63.5245 274.426 63.5245H223.607C216.413 63.4897 209.542 66.5071 204.698 71.8248C199.854 77.1425 197.492 84.2642 198.197 91.4256C199.517 102.426 207.686 111.371 218.525 113.684V139.754C218.522 151.831 227.021 162.241 238.852 164.655V176.802C223.773 181.298 213.438 195.167 213.443 210.902V231.229C213.443 234.036 215.718 236.311 218.525 236.311C221.331 236.311 223.607 234.036 223.607 231.229V210.902C223.607 196.869 234.984 185.492 249.016 185.492H269.344C283.377 185.492 294.754 196.869 294.754 210.902V282.049C294.754 284.856 297.03 287.131 299.836 287.131C302.643 287.131 304.918 284.856 304.918 282.049V210.902C304.923 195.167 294.588 181.298 279.508 176.802V164.3C285.603 162.146 289.675 156.382 289.672 149.918ZM208.361 90.4579C207.976 86.1774 209.415 81.9342 212.324 78.7704C215.197 75.5569 219.296 73.7107 223.607 73.6884H274.426C288.459 73.6884 299.836 85.0657 299.836 99.0982V104.18C299.829 114.776 293.245 124.255 283.32 127.965H282.913C280.543 128.808 278.059 129.287 275.545 129.387H264.262C261.456 129.387 259.18 127.111 259.18 124.305V109.262C259.18 106.456 256.905 104.18 254.098 104.18H224.47C216.396 104.359 209.467 98.4605 208.361 90.4579ZM228.689 139.754V114.344H249.016V124.508C249.016 132.928 255.843 139.754 264.262 139.754H275.95C277.171 139.754 278.339 139.754 279.508 139.449V149.918C279.508 152.724 277.233 155 274.426 155H243.934C235.515 155 228.689 148.173 228.689 139.754ZM249.016 175.328V165.164H269.344V175.328H249.016Z" fill="#FFBC6A"/>
<path d="M274.426 210.902C271.62 210.902 269.344 213.177 269.344 215.984V261.721C269.344 270.141 262.518 276.967 254.098 276.967H203.279V256.639H243.934C246.741 256.639 249.016 254.364 249.016 251.557V215.984C249.016 213.177 246.741 210.902 243.934 210.902C241.128 210.902 238.852 213.177 238.852 215.984V246.475H188.033C180.775 246.483 174.07 250.361 170.444 256.649C166.819 262.937 166.819 270.682 170.449 276.967H134.469C138.099 270.682 138.099 262.937 134.474 256.649C130.848 250.361 124.143 246.483 116.885 246.475H66.0656V215.984C66.0656 213.177 63.7901 210.902 60.9836 210.902C58.1771 210.902 55.9016 213.177 55.9016 215.984V251.557C55.9016 254.364 58.1771 256.639 60.9836 256.639H101.639V276.967H50.8197C42.4002 276.967 35.5738 270.141 35.5738 261.721V215.984C35.5738 213.177 33.2983 210.902 30.4918 210.902C27.6853 210.902 25.4098 213.177 25.4098 215.984V261.721C25.4098 275.754 36.7872 287.131 50.8197 287.131H254.098C268.131 287.131 279.508 275.754 279.508 261.721V215.984C279.508 213.177 277.233 210.902 274.426 210.902ZM111.803 276.967V256.639H116.885C122.498 256.639 127.049 261.19 127.049 266.803C127.049 272.416 122.498 276.967 116.885 276.967H111.803ZM177.869 266.803C177.869 261.19 182.42 256.639 188.033 256.639H193.115V276.967H188.033C182.42 276.967 177.869 272.416 177.869 266.803Z" fill="#FFBC6A"/>
<path d="M55.9017 63.5246H162.623C173.849 63.5246 182.951 54.4227 182.951 43.1968V17.7869C182.951 9.36743 176.124 2.54102 167.705 2.54102H96.5574C88.1379 2.54102 81.3115 9.36743 81.3115 17.7869V25.8664L52.2937 54.8347C50.8519 56.2962 50.4301 58.4824 51.2266 60.3732C52.0058 62.2715 53.8495 63.5147 55.9017 63.5246ZM90.0015 31.5588C90.9518 30.601 91.4829 29.3007 91.4754 27.9508V17.7869C91.4754 14.9804 93.7509 12.7049 96.5574 12.7049H167.705C170.511 12.7049 172.787 14.9804 172.787 17.7869V43.1968C172.787 48.8097 168.236 53.3607 162.623 53.3607H68.15L90.0015 31.5588Z" fill="#FFBC6A"/>
<path d="M127.049 27.9509H106.721C103.915 27.9509 101.639 30.2263 101.639 33.0328C101.639 35.8393 103.915 38.1148 106.721 38.1148H127.049C129.856 38.1148 132.131 35.8393 132.131 33.0328C132.131 30.2263 129.856 27.9509 127.049 27.9509Z" fill="#FFBC6A"/>
<path d="M157.541 27.9509H147.377C144.571 27.9509 142.295 30.2263 142.295 33.0328C142.295 35.8393 144.571 38.1148 147.377 38.1148H157.541C160.347 38.1148 162.623 35.8393 162.623 33.0328C162.623 30.2263 160.347 27.9509 157.541 27.9509Z" fill="#FFBC6A"/>
<path d="M121.967 114.344C113.548 114.344 106.721 121.171 106.721 129.59V180.41C106.721 188.829 113.548 195.656 121.967 195.656H150.069L173.956 224.319C175.328 225.964 177.584 226.574 179.596 225.842C181.608 225.115 182.951 223.205 182.951 221.066V195.656C191.37 195.656 198.197 188.829 198.197 180.41V129.59C198.197 121.171 191.37 114.344 182.951 114.344H121.967ZM188.033 129.59V180.41C188.033 183.216 185.757 185.492 182.951 185.492H177.869C175.062 185.492 172.787 187.767 172.787 190.574V207.041L156.372 187.321C155.404 186.159 153.97 185.489 152.459 185.492H121.967C119.161 185.492 116.885 183.216 116.885 180.41V129.59C116.885 126.784 119.161 124.508 121.967 124.508H182.951C185.757 124.508 188.033 126.784 188.033 129.59Z" fill="#FFBC6A"/>
<path d="M132.131 144.836H147.377C150.184 144.836 152.459 142.561 152.459 139.754C152.459 136.948 150.184 134.672 147.377 134.672H132.131C129.325 134.672 127.049 136.948 127.049 139.754C127.049 142.561 129.325 144.836 132.131 144.836Z" fill="#FFBC6A"/>
<path d="M167.705 165.164H132.131C129.325 165.164 127.049 167.439 127.049 170.246C127.049 173.052 129.325 175.328 132.131 175.328H167.705C170.511 175.328 172.787 173.052 172.787 170.246C172.787 167.439 170.511 165.164 167.705 165.164Z" fill="#FFBC6A"/>
<path d="M172.787 144.836H162.623C159.816 144.836 157.541 147.112 157.541 149.918C157.541 152.725 159.816 155 162.623 155H172.787C175.593 155 177.869 152.725 177.869 149.918C177.869 147.112 175.593 144.836 172.787 144.836Z" fill="#FFBC6A"/>
</g>
<defs>
<clipPath id="clip0">
<rect width="310" height="310" fill="white"/>
</clipPath>
</defs>
</svg>
