<svg width="310" height="310" viewBox="0 0 310 310" fill="none" xmlns="http://www.w3.org/2000/svg">
<path d="M260.907 101.248L248.232 89.9684L255.624 74.6986C256.818 72.2403 256.907 69.3882 255.862 66.8617C254.817 64.3327 252.742 62.3742 250.16 61.4782L234.136 55.9053L235.122 38.9722C235.284 36.2413 234.269 33.5735 232.336 31.6401C230.403 29.7043 227.732 28.6922 225.001 28.8562L208.073 29.838L202.495 13.8135C201.6 11.2315 199.643 9.15938 197.12 8.11195C194.593 7.06704 191.743 7.15033 189.285 8.3391L174 15.7368L162.726 3.06659C160.861 1.10801 158.274 0 155.57 0C152.865 0 150.278 1.10801 148.412 3.06659L137.138 15.7368L121.871 8.34415C119.41 7.15033 116.555 7.06451 114.029 8.10942C111.502 9.15686 109.544 11.2341 108.648 13.8186L103.075 29.8431L86.1418 28.8613C83.4109 28.6997 80.7431 29.7144 78.8098 31.6477C76.8764 33.581 75.8618 36.2514 76.0258 38.9823L77.0077 55.9104L60.9832 61.4832C58.4037 62.3817 56.3315 64.3403 55.2866 66.8643C54.2417 69.3882 54.325 72.2403 55.5138 74.6986L62.9064 89.9735L50.2362 101.248C48.1943 103.065 47.0258 105.667 47.0258 108.401C47.0258 111.134 48.1943 113.739 50.2362 115.556L62.9114 126.833L55.5264 142.103C54.3326 144.559 54.2442 147.408 55.2866 149.935C56.3265 152.459 58.3961 154.417 60.9731 155.321L76.9976 160.894L76.0157 177.827C75.8542 180.558 76.8688 183.226 78.8022 185.159C80.738 187.092 83.4058 188.104 86.1368 187.943L103.065 186.961L108.638 202.985C109.536 205.565 111.492 207.64 114.019 208.685C116.543 209.732 119.395 209.649 121.853 208.457L137.128 201.062L148.397 213.73C150.215 215.774 152.819 216.943 155.553 216.943C158.289 216.943 160.893 215.774 162.711 213.73L173.99 201.057L189.257 208.447C191.718 209.646 194.575 209.732 197.102 208.685C199.631 207.64 201.592 205.56 202.485 202.973L208.063 186.951L224.996 187.933C227.727 188.094 230.395 187.08 232.328 185.144C234.262 183.21 235.276 180.54 235.112 177.812L234.136 160.894L250.16 155.321C252.742 154.422 254.814 152.464 255.862 149.94C256.907 147.416 256.823 144.564 255.635 142.103L248.237 126.828L260.907 115.556C262.949 113.739 264.118 111.134 264.118 108.401C264.118 105.667 262.949 103.065 260.907 101.248ZM240.923 119.493C237.745 122.351 236.829 126.959 238.674 130.813L245.948 145.841L230.193 151.315C226.16 152.734 223.553 156.651 223.798 160.919L224.764 177.574L208.084 176.613C203.808 176.363 199.883 178.978 198.47 183.021L192.99 198.778L177.97 191.509C174.114 189.664 169.503 190.578 166.643 193.758L155.568 206.221L144.475 193.753C141.618 190.57 137.002 189.654 133.148 191.509L118.128 198.778L112.663 183.021C111.26 178.97 107.33 176.35 103.05 176.613L86.3891 177.579L87.3609 160.924C87.6006 156.651 84.9858 152.734 80.9475 151.32L65.1906 145.846L72.4595 130.818C74.3096 126.964 73.3934 122.351 70.2107 119.493L57.7424 108.381L70.2157 97.2879C73.3934 94.4308 74.307 89.822 72.4595 85.968L65.1906 70.9581L80.9475 65.4786C84.9858 64.0627 87.6006 60.1481 87.3609 55.8725L86.3891 39.2195L103.05 40.1862C107.315 40.3957 111.217 37.7935 112.663 33.7754L118.138 18.0209L133.158 25.2874C137.017 27.1349 141.631 26.2187 144.49 23.0411L155.568 10.5778L166.666 23.0461C169.523 26.2238 174.131 27.1374 177.986 25.2874L193.005 18.0209L198.47 33.7754C199.863 37.8364 203.8 40.4638 208.084 40.1912L224.744 39.2246L223.798 55.8801C223.555 60.1455 226.163 64.0576 230.193 65.4786L245.948 70.953L238.674 85.9781C236.829 89.8347 237.747 94.4459 240.928 97.303L253.391 108.381L240.923 119.493Z" fill="#FFBC6A"/>
<path d="M155.568 36.0138C115.599 36.0138 83.2014 68.4137 83.2014 108.38C83.2014 148.347 115.599 180.747 155.568 180.747C195.534 180.747 227.934 148.347 227.934 108.38C227.884 68.4339 195.514 36.0618 155.568 36.0138ZM155.568 170.409C121.31 170.409 93.5395 142.638 93.5395 108.38C93.5395 74.1228 121.31 46.3519 155.568 46.3519C189.823 46.3519 217.596 74.1228 217.596 108.38C217.558 142.623 189.808 170.371 155.568 170.409Z" fill="#FFBC6A"/>
<path d="M196.92 108.381C196.92 131.22 178.404 149.733 155.568 149.733C132.729 149.733 114.216 131.22 114.216 108.381C114.216 85.5414 132.729 67.0283 155.568 67.0283C158.422 67.0283 160.737 64.7138 160.737 61.8592C160.737 59.0047 158.422 56.6902 155.568 56.6902C127.02 56.6902 103.878 79.8322 103.878 108.381C103.878 136.929 127.02 160.071 155.568 160.071C184.114 160.071 207.258 136.929 207.258 108.381C207.258 105.526 204.944 103.211 202.089 103.211C199.232 103.211 196.92 105.526 196.92 108.381Z" fill="#FFBC6A"/>
<path d="M160.737 87.7047C160.734 87.0283 160.601 86.3595 160.338 85.736C159.677 84.1409 158.263 82.9824 156.57 82.6442C154.876 82.3085 153.127 82.8411 151.908 84.0602L141.57 94.3982C140.225 95.6955 139.687 97.6188 140.159 99.4259C140.634 101.233 142.045 102.644 143.852 103.118C145.659 103.59 147.58 103.053 148.877 101.708L150.399 100.203V123.888H140.061C137.204 123.888 134.892 126.202 134.892 129.057C134.892 131.912 137.204 134.226 140.061 134.226H171.075C173.93 134.226 176.244 131.912 176.244 129.057C176.244 126.202 173.93 123.888 171.075 123.888H160.737V87.7047Z" fill="#FFBC6A"/>
<path d="M231.521 201.584C230.925 199.8 229.411 198.48 227.561 198.137C225.713 197.794 223.825 198.48 222.629 199.929C221.433 201.38 221.12 203.364 221.809 205.113L248.61 278.385L218.815 270.115C214.59 268.936 210.085 270.576 207.604 274.193L190.199 299.703L168.866 241.029C168.271 239.244 166.756 237.924 164.909 237.581C163.059 237.238 161.171 237.924 159.975 239.375C158.778 240.824 158.465 242.811 159.154 244.56L180.507 303.254C181.822 306.863 185.042 309.435 188.854 309.917C192.665 310.402 196.425 308.716 198.598 305.548L216.044 280.059L245.849 288.33C249.554 289.367 253.53 288.244 256.144 285.42C258.759 282.598 259.574 278.547 258.254 274.933L231.521 201.584Z" fill="#FFBC6A"/>
<path d="M193.818 271.072C195.744 271.316 197.644 270.456 198.727 268.843L199.063 268.325C204.098 261.125 213.106 257.849 221.592 260.133L222.21 260.304C224.964 261.064 227.811 259.451 228.57 256.698C229.333 253.947 227.717 251.1 224.966 250.337L224.355 250.173C214.615 247.536 204.202 249.747 196.377 256.117L182.791 218.808C181.935 216.082 179.033 214.568 176.307 215.424C173.584 216.279 172.067 219.184 172.925 221.908L189.588 267.702C190.252 269.532 191.885 270.834 193.818 271.072Z" fill="#FFBC6A"/>
<path d="M148.895 237.937C146.209 236.965 143.243 238.353 142.272 241.039L121.053 299.688L103.552 274.183C101.068 270.569 96.5657 268.928 92.3381 270.1L62.6287 278.489L89.3295 205.113C90.2179 202.458 88.8247 199.578 86.1923 198.622C83.5598 197.665 80.6446 198.977 79.6174 201.585L52.9141 274.948C51.5915 278.562 52.4068 282.616 55.0216 285.44C57.6364 288.267 61.6141 289.39 65.3218 288.35L95.0437 280.029L112.55 305.533C114.723 308.701 118.486 310.387 122.295 309.902C126.106 309.42 129.326 306.848 130.641 303.239L151.999 244.56C152.466 243.27 152.403 241.847 151.82 240.605C151.237 239.363 150.184 238.404 148.895 237.937Z" fill="#FFBC6A"/>
<path d="M102.729 213.659C101.439 213.19 100.016 213.253 98.7715 213.836C97.5298 214.417 96.5681 215.469 96.1012 216.759L82.6839 253.563C82.0252 255.375 82.429 257.404 83.7339 258.825C85.0388 260.244 87.0251 260.822 88.8853 260.32L89.5314 260.143C98.0017 257.876 106.987 261.14 112.027 268.315L112.401 268.833C113.428 270.388 115.215 271.266 117.075 271.135C118.933 271.003 120.578 269.883 121.378 268.199C122.179 266.516 122.012 264.532 120.939 263.008L120.568 262.46C114.852 254.123 105.422 249.106 95.3163 249.02L105.783 220.254C106.745 217.589 105.382 214.649 102.729 213.659Z" fill="#FFBC6A"/>
</svg>
