<svg width="310" height="310" viewBox="0 0 310 310" fill="none" xmlns="http://www.w3.org/2000/svg">
<g opacity="0.5" clip-path="url(#clip0)">
<path d="M56.8302 206.674H30.9983C28.1452 206.674 25.8319 208.987 25.8319 211.84V237.672C25.8319 240.525 28.1452 242.838 30.9983 242.838H56.8302C59.6833 242.838 61.9966 240.525 61.9966 237.672V211.84C61.9966 208.987 59.6833 206.674 56.8302 206.674ZM51.6638 232.506H36.1647V217.007H51.6638V232.506Z" fill="#F8F8F8"/>
<path d="M56.8302 253.172C53.9771 253.172 51.6638 255.485 51.6638 258.338V279.004H36.1647V258.338C36.1647 255.485 33.8514 253.172 30.9983 253.172C28.1452 253.172 25.8319 255.485 25.8319 258.338V284.17C25.8319 287.023 28.1452 289.337 30.9983 289.337H56.8302C59.6833 289.337 61.9966 287.023 61.9966 284.17V258.338C61.9966 255.485 59.6833 253.172 56.8302 253.172Z" fill="#F8F8F8"/>
<path d="M100.744 160.177H74.9125C72.0594 160.177 69.7461 162.49 69.7461 165.343V191.175C69.7461 194.028 72.0594 196.341 74.9125 196.341H100.744C103.598 196.341 105.911 194.028 105.911 191.175V165.343C105.911 162.49 103.598 160.177 100.744 160.177ZM95.578 186.009H80.0789V170.51H95.578V186.009Z" fill="#F8F8F8"/>
<path d="M100.744 206.674C97.8913 206.674 95.578 208.987 95.578 211.84V232.506H80.0789V211.84C80.0789 208.987 77.7656 206.674 74.9125 206.674C72.0594 206.674 69.7461 208.987 69.7461 211.84V237.672C69.7461 240.525 72.0594 242.838 74.9125 242.838H100.744C103.598 242.838 105.911 240.525 105.911 237.672V211.84C105.911 208.987 103.598 206.674 100.744 206.674Z" fill="#F8F8F8"/>
<path d="M100.744 253.172H74.9125C72.0594 253.172 69.7461 255.485 69.7461 258.338V284.17C69.7461 287.023 72.0594 289.337 74.9125 289.337H100.744C103.598 289.337 105.911 287.023 105.911 284.17V258.338C105.911 255.485 103.598 253.172 100.744 253.172ZM95.578 279.004H80.0789V263.505H95.578V279.004Z" fill="#F8F8F8"/>
<path d="M149.825 170.51C152.678 170.51 154.991 168.196 154.991 165.343C154.991 162.49 152.678 160.177 149.825 160.177H123.993C121.14 160.177 118.827 162.49 118.827 165.343V191.175C118.827 194.028 121.14 196.341 123.993 196.341H149.825C152.678 196.341 154.991 194.028 154.991 191.175C154.991 188.322 152.678 186.009 149.825 186.009H129.16V170.51H149.825Z" fill="#F8F8F8"/>
<path d="M149.825 206.674H123.993C121.14 206.674 118.827 208.987 118.827 211.84V237.672C118.827 240.525 121.14 242.838 123.993 242.838H149.825C152.678 242.838 154.991 240.525 154.991 237.672V211.84C154.991 208.987 152.678 206.674 149.825 206.674ZM144.659 232.506H129.16V217.007H144.659V232.506Z" fill="#F8F8F8"/>
<path d="M193.739 242.839C196.592 242.839 198.906 240.525 198.906 237.672C198.906 234.819 196.592 232.506 193.739 232.506H173.074V222.173C173.074 219.32 170.76 217.007 167.907 217.007C165.054 217.007 162.741 219.32 162.741 222.173V237.672C162.741 240.525 165.054 242.839 167.907 242.839H193.739Z" fill="#F8F8F8"/>
<path d="M237.654 206.674C234.8 206.674 232.487 208.987 232.487 211.84V232.506H216.988V211.84C216.988 208.987 214.675 206.674 211.822 206.674C208.969 206.674 206.655 208.987 206.655 211.84V237.672C206.655 240.525 208.969 242.838 211.822 242.838H237.654C240.507 242.838 242.82 240.525 242.82 237.672V211.84C242.82 208.987 240.507 206.674 237.654 206.674Z" fill="#F8F8F8"/>
<path d="M149.825 253.172H123.993C121.14 253.172 118.827 255.485 118.827 258.338V284.17C118.827 287.023 121.14 289.337 123.993 289.337H149.825C152.678 289.337 154.991 287.023 154.991 284.17V258.338C154.991 255.485 152.678 253.172 149.825 253.172ZM144.659 279.004H129.16V263.505H144.659V279.004Z" fill="#F8F8F8"/>
<path d="M196.323 263.505C199.176 263.505 201.489 261.191 201.489 258.338C201.489 255.485 199.176 253.172 196.323 253.172H170.491C167.637 253.172 165.324 255.485 165.324 258.338V284.17C165.324 287.023 167.637 289.337 170.491 289.337H196.323C199.176 289.337 201.489 287.023 201.489 284.17C201.489 281.317 199.176 279.004 196.323 279.004H175.657V263.505H196.323Z" fill="#F8F8F8"/>
<path d="M307.4 47.8499C304.927 46.4221 301.767 47.2722 300.341 49.7444L235.762 161.596L226.814 156.43L309.292 13.5797C310.228 11.9804 310.238 10.0026 309.314 8.39316C308.391 6.78623 306.676 5.79736 304.822 5.79988C302.967 5.80492 301.26 6.80137 300.341 8.41334L217.866 151.263L213.393 148.68L208.918 146.097L288.8 7.76754C290.228 5.29535 289.38 2.13447 286.908 0.709176C284.436 -0.718643 281.275 0.128967 279.847 2.60116L199.97 140.931L191.022 135.764L264.921 7.76754C266.326 5.30039 265.473 2.1597 263.014 0.739447C260.554 -0.680803 257.411 0.15167 255.973 2.60116L203.772 93.0128H154.991V87.8465C154.991 76.434 145.738 67.1809 134.326 67.1809C122.913 67.1809 113.66 76.434 113.66 87.8465V93.0128H82.6621V87.8465C82.6621 76.434 73.409 67.1809 61.9966 67.1809C50.5841 67.1809 41.3311 76.434 41.3311 87.8465V93.0128H25.8319C11.5714 93.0305 0.0176586 104.587 0 118.845V284.169C0.0176586 298.429 11.5714 309.983 25.8319 310.001H242.82C257.08 309.983 268.634 298.429 268.652 284.169V125.298L309.292 54.9108C309.978 53.7251 310.165 52.3124 309.809 50.9881C309.456 49.6637 308.588 48.5335 307.4 47.8499ZM186.063 188.891L186.542 180.93L198.719 187.96L185.881 196.34C185.712 196.262 185.616 196.081 185.644 195.896L186.063 188.891ZM208.411 181.628L187.231 169.399L188.613 146.342L227.79 168.955L208.411 181.628ZM123.993 87.8465C123.993 82.1402 128.62 77.5137 134.326 77.5137C140.032 77.5137 144.659 82.1402 144.659 87.8465V108.512C144.659 114.218 140.032 118.845 134.326 118.845C128.62 118.845 123.993 114.218 123.993 108.512V87.8465ZM51.6638 87.8465C51.6638 82.1402 56.2903 77.5137 61.9966 77.5137C67.7028 77.5137 72.3293 82.1402 72.3293 87.8465V108.512C72.3293 114.218 67.7028 118.845 61.9966 118.845C56.2903 118.845 51.6638 114.218 51.6638 108.512V87.8465ZM258.319 284.169C258.319 292.728 251.379 299.668 242.82 299.668H25.8319C17.2726 299.668 10.3328 292.728 10.3328 284.169V149.843H160.158C163.011 149.843 165.324 147.53 165.324 144.677C165.324 141.824 163.011 139.51 160.158 139.51H10.3328V118.845C10.3328 110.285 17.2726 103.346 25.8319 103.346H41.3311V108.512C41.3311 119.927 50.5841 129.178 61.9966 129.178C73.409 129.178 82.6621 119.927 82.6621 108.512V103.346H113.66V108.512C113.66 119.927 122.913 129.178 134.326 129.178C145.738 129.178 154.991 119.927 154.991 108.512V103.346H197.806L179.486 135.073C179.449 135.146 179.449 135.227 179.413 135.3C179.181 135.749 179.017 136.228 178.926 136.725C178.901 136.867 178.866 136.99 178.851 137.129C178.835 137.268 178.813 137.273 178.808 137.346L176.742 171.962L175.342 195.286C175.089 199.378 177.173 203.258 180.72 205.306C184.269 207.354 188.671 207.218 192.087 204.953L211.59 192.08L240.522 172.988C240.661 172.895 240.769 172.766 240.898 172.663C241.079 172.532 241.253 172.385 241.415 172.229C241.586 172.04 241.74 171.838 241.879 171.626C241.982 171.51 242.078 171.386 242.164 171.258L258.319 143.193V284.169Z" fill="#F8F8F8"/>
</g>
<defs>
<clipPath id="clip0">
<rect width="310" height="310" fill="white"/>
</clipPath>
</defs>
</svg>
