<svg width="70" height="70" viewBox="0 0 70 70" fill="none" xmlns="http://www.w3.org/2000/svg">
<g clip-path="url(#clip0)">
<path d="M12.8326 46.6689H6.99961C6.35536 46.6689 5.83301 47.1913 5.83301 47.8355V53.6686C5.83301 54.3128 6.35536 54.8352 6.99961 54.8352H12.8326C13.4769 54.8352 13.9992 54.3128 13.9992 53.6686V47.8355C13.9992 47.1913 13.4769 46.6689 12.8326 46.6689ZM11.666 52.502H8.16621V49.0021H11.666V52.502Z" fill="#FFB75E"/>
<path d="M12.8326 57.167C12.1884 57.167 11.666 57.6893 11.666 58.3336V63H8.16621V58.3336C8.16621 57.6893 7.64386 57.167 6.99961 57.167C6.35536 57.167 5.83301 57.6893 5.83301 58.3336V64.1666C5.83301 64.8109 6.35536 65.3332 6.99961 65.3332H12.8326C13.4769 65.3332 13.9992 64.8109 13.9992 64.1666V58.3336C13.9992 57.6893 13.4769 57.167 12.8326 57.167Z" fill="#FFB75E"/>
<path d="M22.7486 36.1689H16.9156C16.2714 36.1689 15.749 36.6913 15.749 37.3355V43.1686C15.749 43.8128 16.2714 44.3352 16.9156 44.3352H22.7486C23.3929 44.3352 23.9152 43.8128 23.9152 43.1686V37.3355C23.9152 36.6913 23.3929 36.1689 22.7486 36.1689ZM21.582 42.002H18.0822V38.5022H21.582V42.002Z" fill="#FFB75E"/>
<path d="M22.7486 46.6689C22.1044 46.6689 21.582 47.1913 21.582 47.8355V52.502H18.0822V47.8355C18.0822 47.1913 17.5599 46.6689 16.9156 46.6689C16.2714 46.6689 15.749 47.1913 15.749 47.8355V53.6686C15.749 54.3128 16.2714 54.8352 16.9156 54.8352H22.7486C23.3929 54.8352 23.9152 54.3128 23.9152 53.6686V47.8355C23.9152 47.1913 23.3929 46.6689 22.7486 46.6689Z" fill="#FFB75E"/>
<path d="M22.7486 57.167H16.9156C16.2714 57.167 15.749 57.6893 15.749 58.3336V64.1666C15.749 64.8109 16.2714 65.3332 16.9156 65.3332H22.7486C23.3929 65.3332 23.9152 64.8109 23.9152 64.1666V58.3336C23.9152 57.6893 23.3929 57.167 22.7486 57.167ZM21.582 63H18.0822V59.5002H21.582V63Z" fill="#FFB75E"/>
<path d="M33.8315 38.5022C34.4758 38.5022 34.9981 37.9798 34.9981 37.3355C34.9981 36.6913 34.4758 36.1689 33.8315 36.1689H27.9985C27.3543 36.1689 26.8319 36.6913 26.8319 37.3355V43.1686C26.8319 43.8128 27.3543 44.3352 27.9985 44.3352H33.8315C34.4758 44.3352 34.9981 43.8128 34.9981 43.1686C34.9981 42.5243 34.4758 42.002 33.8315 42.002H29.1651V38.5022H33.8315Z" fill="#FFB75E"/>
<path d="M33.8315 46.6689H27.9985C27.3543 46.6689 26.8319 47.1913 26.8319 47.8355V53.6686C26.8319 54.3128 27.3543 54.8352 27.9985 54.8352H33.8315C34.4758 54.8352 34.9981 54.3128 34.9981 53.6686V47.8355C34.9981 47.1913 34.4758 46.6689 33.8315 46.6689ZM32.6649 52.502H29.1651V49.0021H32.6649V52.502Z" fill="#FFB75E"/>
<path d="M43.7475 54.834C44.3918 54.834 44.9141 54.3116 44.9141 53.6674C44.9141 53.0231 44.3918 52.5008 43.7475 52.5008H39.0811V50.1676C39.0811 49.5233 38.5588 49.001 37.9145 49.001C37.2703 49.001 36.7479 49.5233 36.7479 50.1676V53.6674C36.7479 54.3116 37.2703 54.834 37.9145 54.834H43.7475Z" fill="#FFB75E"/>
<path d="M53.6637 46.6689C53.0194 46.6689 52.4971 47.1913 52.4971 47.8355V52.502H48.9973V47.8355C48.9973 47.1913 48.4749 46.6689 47.8307 46.6689C47.1864 46.6689 46.6641 47.1913 46.6641 47.8355V53.6686C46.6641 54.3128 47.1864 54.8352 47.8307 54.8352H53.6637C54.3079 54.8352 54.8303 54.3128 54.8303 53.6686V47.8355C54.8303 47.1913 54.3079 46.6689 53.6637 46.6689Z" fill="#FFB75E"/>
<path d="M33.8315 57.167H27.9985C27.3543 57.167 26.8319 57.6893 26.8319 58.3336V64.1666C26.8319 64.8109 27.3543 65.3332 27.9985 65.3332H33.8315C34.4758 65.3332 34.9981 64.8109 34.9981 64.1666V58.3336C34.9981 57.6893 34.4758 57.167 33.8315 57.167ZM32.6649 63H29.1651V59.5002H32.6649V63Z" fill="#FFB75E"/>
<path d="M44.3309 59.5002C44.9752 59.5002 45.4975 58.9778 45.4975 58.3336C45.4975 57.6893 44.9752 57.167 44.3309 57.167H38.4979C37.8537 57.167 37.3313 57.6893 37.3313 58.3336V64.1666C37.3313 64.8109 37.8537 65.3332 38.4979 65.3332H44.3309C44.9752 65.3332 45.4975 64.8109 45.4975 64.1666C45.4975 63.5223 44.9752 63 44.3309 63H39.6645V59.5002H44.3309Z" fill="#FFB75E"/>
<path d="M69.4129 10.8052C68.8546 10.4828 68.1409 10.6747 67.819 11.233L53.2365 36.4898L51.216 35.3232L69.8401 3.06677C70.0514 2.70562 70.0537 2.25903 69.8452 1.89561C69.6367 1.53275 69.2494 1.30946 68.8307 1.31003C68.412 1.31117 68.0264 1.53617 67.819 1.90016L49.1955 34.1566L48.1856 33.5733L47.1751 32.99L65.213 1.75434C65.5354 1.1961 65.344 0.482355 64.7858 0.160515C64.2275 -0.161896 63.5138 0.0294995 63.1914 0.587737L45.1546 31.8234L43.1341 30.6568L59.8209 1.75434C60.1381 1.19724 59.9456 0.488052 59.3902 0.16735C58.8348 -0.153352 58.1251 0.0346262 57.8004 0.587737L46.013 21.0033H34.9981V19.8367C34.9981 17.2597 32.9087 15.1703 30.3317 15.1703C27.7547 15.1703 25.6653 17.2597 25.6653 19.8367V21.0033H18.6656V19.8367C18.6656 17.2597 16.5762 15.1703 13.9992 15.1703C11.4222 15.1703 9.33282 17.2597 9.33282 19.8367V21.0033H5.83301C2.61289 21.0073 0.00398742 23.6167 0 26.8363V64.1676C0.00398742 67.3877 2.61289 69.9966 5.83301 70.0006H54.8303C58.0504 69.9966 60.6594 67.3877 60.6633 64.1676V28.2934L69.8401 12.3996C69.995 12.1319 70.0372 11.8129 69.9569 11.5138C69.8771 11.2148 69.6812 10.9596 69.4129 10.8052ZM42.0142 42.6532L42.1224 40.8555L44.8721 42.443L41.9732 44.3353C41.935 44.3177 41.9134 44.2766 41.9197 44.2351L42.0142 42.6532ZM47.0606 41.0132L42.278 38.2517L42.5901 33.0453L51.4365 38.1514L47.0606 41.0132ZM27.9985 19.8367C27.9985 18.5482 29.0432 17.5035 30.3317 17.5035C31.6202 17.5035 32.6649 18.5482 32.6649 19.8367V24.5031C32.6649 25.7916 31.6202 26.8363 30.3317 26.8363C29.0432 26.8363 27.9985 25.7916 27.9985 24.5031V19.8367ZM11.666 19.8367C11.666 18.5482 12.7107 17.5035 13.9992 17.5035C15.2877 17.5035 16.3324 18.5482 16.3324 19.8367V24.5031C16.3324 25.7916 15.2877 26.8363 13.9992 26.8363C12.7107 26.8363 11.666 25.7916 11.666 24.5031V19.8367ZM58.3301 64.1676C58.3301 66.1003 56.7631 67.6674 54.8303 67.6674H5.83301C3.90026 67.6674 2.33321 66.1003 2.33321 64.1676V33.8359H36.1647C36.8089 33.8359 37.3313 33.3135 37.3313 32.6693C37.3313 32.025 36.8089 31.5027 36.1647 31.5027H2.33321V26.8363C2.33321 24.9035 3.90026 23.3365 5.83301 23.3365H9.33282V24.5031C9.33282 27.0807 11.4222 29.1695 13.9992 29.1695C16.5762 29.1695 18.6656 27.0807 18.6656 24.5031V23.3365H25.6653V24.5031C25.6653 27.0807 27.7547 29.1695 30.3317 29.1695C32.9087 29.1695 34.9981 27.0807 34.9981 24.5031V23.3365H44.6658L40.5292 30.5007C40.5206 30.5172 40.5206 30.5355 40.5127 30.552C40.4603 30.6534 40.4232 30.7616 40.4027 30.8738C40.397 30.9057 40.3891 30.9336 40.3856 30.965C40.3822 30.9963 40.3771 30.9974 40.376 31.014L39.9094 38.8304L39.5933 44.0972C39.5363 45.0212 40.0068 45.8972 40.8077 46.3598C41.6092 46.8223 42.6032 46.7916 43.3745 46.28L47.7783 43.3732L54.3114 39.0623C54.3427 39.0412 54.3672 39.0121 54.3963 38.9888C54.4373 38.9592 54.4766 38.9261 54.513 38.8908C54.5518 38.8481 54.5865 38.8025 54.6179 38.7547C54.6412 38.7285 54.6629 38.7005 54.6822 38.6715L58.3301 32.3344V64.1676Z" fill="#FFB75E"/>
</g>
<defs>
<clipPath id="clip0">
<rect width="70" height="70" fill="white"/>
</clipPath>
</defs>
</svg>
