<svg width="310" height="310" viewBox="0 0 310 310" fill="none" xmlns="http://www.w3.org/2000/svg">
<g opacity="0.5" clip-path="url(#clip0)">
<path d="M103.337 180.838C109.046 180.838 113.67 185.465 113.67 191.171C113.67 194.024 115.983 196.337 118.837 196.337C121.69 196.337 124.003 194.024 124.003 191.171C123.968 181.776 117.601 173.588 108.504 171.239V165.338C108.504 162.485 106.19 160.172 103.337 160.172C100.484 160.172 98.1705 162.485 98.1705 165.338V171.239C88.1048 173.83 81.5406 183.504 82.8525 193.815C84.1643 204.125 92.9434 211.85 103.337 211.837C109.046 211.837 113.67 216.464 113.67 222.17C113.67 227.877 109.046 232.503 103.337 232.503C97.6306 232.503 93.0039 227.877 93.0039 222.17C93.0039 219.317 90.6906 217.004 87.8374 217.004C84.9842 217.004 82.6708 219.317 82.6708 222.17C82.7061 231.565 89.076 239.754 98.1705 242.102V248.003C98.1705 250.856 100.484 253.17 103.337 253.17C106.19 253.17 108.504 250.856 108.504 248.003V242.117C118.602 239.552 125.199 229.859 123.885 219.526C122.57 209.191 113.756 201.459 103.337 201.504C97.6306 201.504 93.0039 196.877 93.0039 191.171C93.0039 185.465 97.6306 180.838 103.337 180.838Z" fill="#F8F8F8"/>
<path d="M118.837 129.172H87.8374C84.9842 129.172 82.6708 131.485 82.6708 134.338C82.6708 137.192 84.9842 139.505 87.8374 139.505H118.837C121.69 139.505 124.003 137.192 124.003 134.338C124.003 131.485 121.69 129.172 118.837 129.172Z" fill="#F8F8F8"/>
<path d="M118.837 273.836H87.8374C84.9842 273.836 82.6708 276.149 82.6708 279.002C82.6708 281.855 84.9842 284.169 87.8374 284.169H118.837C121.69 284.169 124.003 281.855 124.003 279.002C124.003 276.149 121.69 273.836 118.837 273.836Z" fill="#F8F8F8"/>
<path d="M283.097 198.919L207.248 67.5584C211.915 62.9292 216.045 57.7853 219.554 52.2252C228.167 38.2745 229.706 25.0327 223.883 14.9494C212.296 -5.12396 175.702 -4.96251 140.573 15.3152C135.908 18.0473 131.423 21.0721 127.142 24.3718L122.972 19.6391C117.999 14.0084 110.85 10.7793 103.337 10.7743C95.827 10.7793 88.6776 14.0084 83.7053 19.6391L27.2239 83.6433C23.0009 88.4264 20.6699 94.5894 20.6724 100.972V263.501C20.7027 289.17 41.5026 309.972 67.1713 310H139.503C165.172 309.972 185.974 289.17 186.002 263.501V100.972C185.992 95.9946 184.556 91.1232 181.87 86.9329H181.91C188.088 83.3608 193.951 79.2714 199.436 74.7103L274.149 204.086C284.144 221.384 278.22 243.509 260.917 253.499L198.278 289.664C195.523 291.239 192.569 292.442 189.496 293.239C186.739 293.973 185.096 296.804 185.83 299.561C186.562 302.319 189.393 303.961 192.152 303.227C196.093 302.19 199.882 300.638 203.419 298.613L266.058 262.447C288.311 249.614 295.943 221.167 283.097 198.919ZM175.669 263.501C175.646 283.466 159.468 299.644 139.503 299.667H67.1713C47.209 299.644 31.0282 283.466 31.0055 263.501V100.972C31.0055 97.1071 32.4157 93.376 34.9737 90.4774L91.4551 26.4808C94.4622 23.0675 98.7887 21.1099 103.337 21.1074C107.886 21.1099 112.215 23.0675 115.222 26.4808L165.611 83.5853C154.092 89.0192 141.504 91.8119 128.769 91.7589C129.003 90.4648 129.137 89.1529 129.17 87.8386C129.155 73.5776 117.598 62.0235 103.337 62.0059C102.77 62.0235 102.21 62.137 101.68 62.3414C99.0763 62.021 96.6545 63.7264 96.0742 66.2844C94.2352 73.3455 95.1383 80.8406 98.5995 87.2634C102.033 92.9497 107.374 97.2307 113.67 99.3397C109.142 103.472 102.596 104.529 96.995 102.037C91.3921 99.5415 87.7997 93.9688 87.8375 87.8386C87.8375 84.9854 85.5242 82.6721 82.671 82.6721C79.8178 82.6721 77.5044 84.9854 77.5044 87.8386C77.4918 99.2918 85.0297 109.383 96.0188 112.617C107.005 115.851 118.809 111.454 125.002 101.82C127.036 102.034 129.079 102.148 131.125 102.155C145.548 101.719 159.705 98.154 172.616 91.7085C174.587 94.3977 175.654 97.6394 175.669 100.972V263.501ZM118.837 87.8386C118.817 88.5954 118.741 89.3497 118.61 90.0964C114.051 88.9108 110.103 86.0575 107.55 82.0969C105.956 79.1882 105.272 75.8682 105.585 72.566C113.173 73.6785 118.807 80.1695 118.837 87.8386ZM176.739 77.9394C176.224 78.2396 175.707 78.4969 175.19 78.787L134.011 32.1166C137.76 29.2734 141.678 26.6599 145.739 24.2885C174.844 7.47707 206.534 5.57745 214.93 20.1563C218.77 26.7961 217.286 36.2765 210.76 46.8417C208.179 50.9412 205.205 54.7782 201.875 58.2949L201.822 58.2016C198.636 52.6743 193.535 48.5017 187.485 46.4684L167.253 39.6292C164.579 38.8144 161.741 40.2751 160.85 42.9239C159.957 45.5753 161.337 48.4538 163.963 49.42L184.196 56.2238C187.856 57.4574 190.941 59.9826 192.874 63.3278L194.191 65.6058C188.769 70.2552 182.927 74.3874 176.739 77.9545V77.9394Z" fill="#F8F8F8"/>
<path d="M197.029 208.258C198.454 210.728 201.615 211.575 204.085 210.147L239.88 189.481C241.492 188.565 242.488 186.855 242.493 185.001C242.496 183.147 241.507 181.434 239.9 180.51C238.29 179.587 236.313 179.595 234.713 180.533L198.918 201.199C196.449 202.627 195.601 205.786 197.029 208.258Z" fill="#F8F8F8"/>
<path d="M203.57 240.251C204.993 242.723 208.154 243.573 210.626 242.145L255.369 216.312C257.841 214.887 258.689 211.726 257.261 209.254C255.836 206.782 252.675 205.934 250.203 207.359L205.46 233.192C202.99 234.62 202.142 237.778 203.57 240.251Z" fill="#F8F8F8"/>
<path d="M206.489 178.132C207.395 178.132 208.285 177.892 209.072 177.438L226.968 167.105C228.58 166.189 229.577 164.479 229.582 162.625C229.584 160.773 228.596 159.058 226.989 158.134C225.382 157.211 223.401 157.219 221.802 158.157L203.906 168.49C201.88 169.661 200.893 172.042 201.499 174.303C202.104 176.56 204.15 178.132 206.489 178.132Z" fill="#F8F8F8"/>
</g>
<defs>
<clipPath id="clip0">
<rect width="310" height="310" fill="white"/>
</clipPath>
</defs>
</svg>
