<svg width="70" height="70" viewBox="0 0 70 70" fill="none" xmlns="http://www.w3.org/2000/svg">
<g clip-path="url(#clip0)">
<path d="M61.9673 67.1309H6.88527C6.25155 67.1309 5.73773 67.6447 5.73773 68.2784C5.73773 68.9121 6.25155 69.4259 6.88527 69.4259H61.9673C62.601 69.4259 63.1148 68.9121 63.1148 68.2784C63.1148 67.6447 62.601 67.1309 61.9673 67.1309Z" fill="white"/>
<path d="M12.623 41.8846C15.7916 41.8846 18.3607 44.4536 18.3607 47.6223V52.2124C18.3607 52.8462 18.8745 53.36 19.5082 53.36C20.1419 53.36 20.6557 52.8462 20.6557 52.2124V47.6223C20.6569 44.0693 18.3231 40.9376 14.918 39.9223V37.1795C17.5897 36.6343 19.5088 34.2838 19.5082 31.5567V25.67C21.5338 25.1466 22.9491 23.3205 22.9508 21.2288V17.7862C22.9508 17.1525 22.437 16.6387 21.8033 16.6387H9.18033C5.37798 16.6387 2.29508 19.7216 2.29508 23.5239V28.1141C2.29676 30.2058 3.71214 32.0319 5.73771 32.5552V39.9223C2.33262 40.9376 -0.00112024 44.0693 4.03418e-07 47.6223V63.6878C4.03418e-07 64.3216 0.513816 64.8354 1.14754 64.8354C1.78127 64.8354 2.29508 64.3216 2.29508 63.6878V47.6223C2.29508 44.4536 4.86416 41.8846 8.03279 41.8846H12.623ZM17.2131 31.5567C17.2131 33.4579 15.6717 34.9993 13.7705 34.9993H8.03279V32.7042H9.18033C10.4478 32.7042 11.4754 31.6766 11.4754 30.4092V25.819H17.2131V31.5567ZM4.59016 28.1141V23.5239C4.59016 20.989 6.64543 18.9338 9.18033 18.9338H20.6557V21.2288C20.6557 22.4963 19.6281 23.5239 18.3607 23.5239H10.3279C9.69414 23.5239 9.18033 24.0377 9.18033 24.6715V30.4092H6.88525C5.6178 30.4092 4.59016 29.3815 4.59016 28.1141ZM8.03279 37.2944H12.623V39.5895H8.03279V37.2944Z" fill="white"/>
<path d="M65.4099 33.853V30.7774C68.2115 29.4489 69.9978 26.626 70 23.5251V22.3776C70 17.9409 66.4039 14.3448 61.9672 14.3448H50.4918C48.8675 14.3369 47.3159 15.0183 46.2222 16.2191C45.1284 17.4198 44.595 19.028 44.7541 20.6451C45.0522 23.129 46.8968 25.1489 49.3443 25.6712V31.5579C49.3437 34.285 51.2628 36.6356 53.9345 37.1808V39.9235C50.5294 40.9388 48.1956 44.0705 48.1968 47.6235V52.2137C48.1968 52.8474 48.7106 53.3612 49.3443 53.3612C49.978 53.3612 50.4918 52.8474 50.4918 52.2137V47.6235C50.4918 44.4549 53.0609 41.8858 56.2295 41.8858H60.8197C63.9883 41.8858 66.5574 44.4549 66.5574 47.6235V63.6891C66.5574 64.3228 67.0712 64.8366 67.7049 64.8366C68.3387 64.8366 68.8525 64.3228 68.8525 63.6891V47.6235C68.8536 44.0705 66.5199 40.9388 63.1148 39.9235V37.1006C64.4909 36.6143 65.4104 35.3126 65.4099 33.853ZM47.0492 20.4265C46.9624 19.46 47.2873 18.5018 47.944 17.7874C48.5929 17.0618 49.5186 16.6449 50.4918 16.6399H61.9672C65.1359 16.6399 67.7049 19.209 67.7049 22.3776V23.5251C67.7033 25.9177 66.2167 28.0581 63.9754 28.8958H63.8835C63.3484 29.0863 62.7876 29.1945 62.2199 29.2169H59.6722C59.0384 29.2169 58.5246 28.7031 58.5246 28.0693V24.6727C58.5246 24.0389 58.0108 23.5251 57.3771 23.5251H50.6868C48.8635 23.5655 47.2991 22.2336 47.0492 20.4265ZM51.6394 31.5579V25.8202H56.2295V28.1153C56.2295 30.0165 57.771 31.5579 59.6722 31.5579H62.3113C62.587 31.5579 62.8509 31.5579 63.1148 31.489V33.853C63.1148 34.4867 62.601 35.0005 61.9672 35.0005H55.082C53.1808 35.0005 51.6394 33.4591 51.6394 31.5579ZM56.2295 39.5907V37.2956H60.8197V39.5907H56.2295Z" fill="white"/>
<path d="M61.9673 47.6221C61.3335 47.6221 60.8197 48.1359 60.8197 48.7696V59.0975C60.8197 60.9987 59.2783 62.5401 57.3771 62.5401H45.9017V57.9499H55.082C55.7157 57.9499 56.2296 57.4361 56.2296 56.8024V48.7696C56.2296 48.1359 55.7157 47.6221 55.082 47.6221C54.4483 47.6221 53.9345 48.1359 53.9345 48.7696V55.6549H42.4591C40.8201 55.6565 39.3061 56.5323 38.4875 57.9522C37.6689 59.372 37.6689 61.1208 38.4886 62.5401H30.3639C31.1837 61.1208 31.1837 59.372 30.365 57.9522C29.5464 56.5323 28.0324 55.6565 26.3935 55.6549H14.9181V48.7696C14.9181 48.1359 14.4042 47.6221 13.7705 47.6221C13.1368 47.6221 12.623 48.1359 12.623 48.7696V56.8024C12.623 57.4361 13.1368 57.9499 13.7705 57.9499H22.9509V62.5401H11.4754C9.57426 62.5401 8.03281 60.9987 8.03281 59.0975V48.7696C8.03281 48.1359 7.519 47.6221 6.88527 47.6221C6.25155 47.6221 5.73773 48.1359 5.73773 48.7696V59.0975C5.73773 62.2661 8.30681 64.8352 11.4754 64.8352H57.3771C60.5457 64.8352 63.1148 62.2661 63.1148 59.0975V48.7696C63.1148 48.1359 62.601 47.6221 61.9673 47.6221ZM25.2459 62.5401V57.9499H26.3935C27.6609 57.9499 28.6886 58.9776 28.6886 60.245C28.6886 61.5125 27.6609 62.5401 26.3935 62.5401H25.2459ZM40.164 60.245C40.164 58.9776 41.1916 57.9499 42.4591 57.9499H43.6066V62.5401H42.4591C41.1916 62.5401 40.164 61.5125 40.164 60.245Z" fill="white"/>
<path d="M12.6229 14.3447H36.7213C39.2562 14.3447 41.3115 12.2894 41.3115 9.75455V4.01684C41.3115 2.11567 39.77 0.574219 37.8688 0.574219H21.8033C19.9021 0.574219 18.3607 2.11567 18.3607 4.01684V5.84125L11.8082 12.3825C11.4827 12.7125 11.3874 13.2061 11.5673 13.6331C11.7432 14.0617 12.1596 14.3425 12.6229 14.3447ZM20.3229 7.12663C20.5375 6.91035 20.6574 6.61674 20.6557 6.31192V4.01684C20.6557 3.38312 21.1695 2.8693 21.8033 2.8693H37.8688C38.5026 2.8693 39.0164 3.38312 39.0164 4.01684V9.75455C39.0164 11.022 37.9888 12.0496 36.7213 12.0496H15.3887L20.3229 7.12663Z" fill="white"/>
<path d="M28.6885 6.31152H24.0983C23.4646 6.31152 22.9508 6.82534 22.9508 7.45907C22.9508 8.09279 23.4646 8.60661 24.0983 8.60661H28.6885C29.3222 8.60661 29.836 8.09279 29.836 7.45907C29.836 6.82534 29.3222 6.31152 28.6885 6.31152Z" fill="white"/>
<path d="M35.5738 6.31152H33.2787C32.645 6.31152 32.1312 6.82534 32.1312 7.45907C32.1312 8.09279 32.645 8.60661 33.2787 8.60661H35.5738C36.2075 8.60661 36.7213 8.09279 36.7213 7.45907C36.7213 6.82534 36.2075 6.31152 35.5738 6.31152Z" fill="white"/>
<path d="M27.541 25.8203C25.6398 25.8203 24.0984 27.3618 24.0984 29.2629V40.7383C24.0984 42.6395 25.6398 44.181 27.541 44.181H33.8866L39.2803 50.6532C39.5902 51.0247 40.0995 51.1626 40.5539 50.9973C41.0083 50.8331 41.3115 50.4017 41.3115 49.9187V44.181C43.2126 44.181 44.7541 42.6395 44.7541 40.7383V29.2629C44.7541 27.3618 43.2126 25.8203 41.3115 25.8203H27.541ZM42.459 29.2629V40.7383C42.459 41.3721 41.9452 41.8859 41.3115 41.8859H40.1639C39.5302 41.8859 39.0164 42.3997 39.0164 43.0334V46.7517L35.3099 42.2988C35.0913 42.0366 34.7675 41.8853 34.4262 41.8859H27.541C26.9073 41.8859 26.3934 41.3721 26.3934 40.7383V29.2629C26.3934 28.6292 26.9073 28.1154 27.541 28.1154H41.3115C41.9452 28.1154 42.459 28.6292 42.459 29.2629Z" fill="white"/>
<path d="M29.836 32.7052H33.2787C33.9124 32.7052 34.4262 32.1914 34.4262 31.5577C34.4262 30.924 33.9124 30.4102 33.2787 30.4102H29.836C29.2023 30.4102 28.6885 30.924 28.6885 31.5577C28.6885 32.1914 29.2023 32.7052 29.836 32.7052Z" fill="white"/>
<path d="M37.8688 37.2949H29.836C29.2023 37.2949 28.6885 37.8087 28.6885 38.4425C28.6885 39.0762 29.2023 39.59 29.836 39.59H37.8688C38.5026 39.59 39.0164 39.0762 39.0164 38.4425C39.0164 37.8087 38.5026 37.2949 37.8688 37.2949Z" fill="white"/>
<path d="M39.0164 32.7051H36.7213C36.0875 32.7051 35.5737 33.2189 35.5737 33.8526C35.5737 34.4863 36.0875 35.0002 36.7213 35.0002H39.0164C39.6501 35.0002 40.1639 34.4863 40.1639 33.8526C40.1639 33.2189 39.6501 32.7051 39.0164 32.7051Z" fill="white"/>
</g>
<defs>
<clipPath id="clip0">
<rect width="70" height="70" fill="white"/>
</clipPath>
</defs>
</svg>
