<svg width="310" height="310" viewBox="0 0 310 310" fill="none" xmlns="http://www.w3.org/2000/svg">
<g opacity="0.5">
<path d="M296.438 87.1872L157.47 10.3169C156.734 9.89178 155.899 9.66797 155.048 9.66797C154.198 9.66797 153.363 9.89178 152.627 10.3169L12.1578 87.8169C11.4371 88.2684 10.8361 88.8874 10.406 89.6211C9.9759 90.3548 9.72941 91.1815 9.6875 92.031V110.534C9.66129 110.824 9.66129 111.116 9.6875 111.406V251.875C9.6875 253.159 10.1978 254.391 11.1062 255.3C12.0146 256.208 13.2466 256.718 14.5313 256.718C15.8159 256.718 17.0479 256.208 17.9563 255.3C18.8647 254.391 19.375 253.159 19.375 251.875V116.25H81.4719C81.7942 116.277 82.1183 116.277 82.4406 116.25C82.7781 116.297 83.1204 116.297 83.4578 116.25H155H226.736H227.705H228.528H290.722V145.312C290.722 146.597 291.232 147.829 292.141 148.737C293.049 149.646 294.281 150.156 295.566 150.156C296.85 150.156 298.082 149.646 298.991 148.737C299.899 147.829 300.409 146.597 300.409 145.312V92.031C300.428 90.884 300.039 89.7677 299.312 88.8807C298.584 87.9936 297.566 87.3935 296.438 87.1872ZM191.038 62.9685L218.647 106.562H163.719L191.038 62.9685ZM146.233 106.562H91.0141L118.914 62.9685L146.233 106.562ZM205.23 67.231L236.666 84.62L226.978 101.961L205.23 67.231ZM155 102.251L125.938 55.5091L155 39.4278L184.062 55.5575L155 102.251ZM82.5859 101.718L73.1891 84.4747L104.673 67.1825L82.5859 101.718ZM64.6641 89.1247L74.3516 106.465H33.2766L64.6641 89.1247ZM235.745 106.562L245.142 89.3185L276.094 106.562H235.745ZM155 20.0528L290.625 95.131V103.462L157.422 29.6919C156.686 29.2668 155.85 29.043 155 29.043C154.15 29.043 153.314 29.2668 152.578 29.6919L116.492 49.5513L19.375 102.929V94.6466L155 20.0528Z" fill="#F8F8F8"/>
<path d="M295.469 159.844C294.184 159.844 292.952 160.354 292.044 161.262C291.135 162.171 290.625 163.403 290.625 164.688V290.625H271.25V135.625C271.25 134.34 270.74 133.108 269.831 132.2C268.923 131.292 267.691 130.781 266.406 130.781H174.375C173.09 130.781 171.858 131.292 170.95 132.2C170.042 133.108 169.531 134.34 169.531 135.625V150.156H125.938C124.653 150.156 123.421 150.667 122.512 151.575C121.604 152.483 121.094 153.715 121.094 155V198.594C121.094 199.878 121.604 201.11 122.512 202.019C123.421 202.927 124.653 203.438 125.938 203.438H140.469V232.5H106.562V179.219C106.562 177.934 106.052 176.702 105.144 175.794C104.235 174.885 103.003 174.375 101.719 174.375H43.5938C42.3091 174.375 41.0771 174.885 40.1687 175.794C39.2603 176.702 38.75 177.934 38.75 179.219V217.969C38.75 219.253 39.2603 220.485 40.1687 221.394C41.0771 222.302 42.3091 222.812 43.5938 222.812C44.8784 222.812 46.1104 222.302 47.0188 221.394C47.9272 220.485 48.4375 219.253 48.4375 217.969V184.062H58.125V203.438C58.125 204.722 58.6353 205.954 59.5437 206.863C60.4521 207.771 61.6841 208.281 62.9688 208.281H82.3438C83.6284 208.281 84.8604 207.771 85.7688 206.863C86.6772 205.954 87.1875 204.722 87.1875 203.438V184.062H96.875V232.5H43.5938C42.3091 232.5 41.0771 233.01 40.1687 233.919C39.2603 234.827 38.75 236.059 38.75 237.344V290.625H19.375V271.25C19.375 269.965 18.8647 268.733 17.9563 267.825C17.0479 266.917 15.8159 266.406 14.5312 266.406C13.2466 266.406 12.0146 266.917 11.1062 267.825C10.1978 268.733 9.6875 269.965 9.6875 271.25V295.469C9.6875 296.753 10.1978 297.985 11.1062 298.894C12.0146 299.802 13.2466 300.312 14.5312 300.312H295.469C296.753 300.312 297.985 299.802 298.894 298.894C299.802 297.985 300.312 296.753 300.312 295.469V164.688C300.312 163.403 299.802 162.171 298.894 161.262C297.985 160.354 296.753 159.844 295.469 159.844ZM77.5 198.594H67.8125V184.062H77.5V198.594ZM130.781 193.75V159.844H217.969V193.75H208.281V179.219C208.281 177.934 207.771 176.702 206.863 175.794C205.954 174.885 204.722 174.375 203.438 174.375H145.312C144.028 174.375 142.796 174.885 141.887 175.794C140.979 176.702 140.469 177.934 140.469 179.219V193.75H130.781ZM184.062 242.188H193.75V256.719H184.062V242.188ZM169.531 184.062H179.219V198.594H169.531V184.062ZM150.156 184.062H159.844V203.438C159.844 204.722 160.354 205.954 161.262 206.863C162.171 207.771 163.403 208.281 164.688 208.281H184.062C185.347 208.281 186.579 207.771 187.488 206.863C188.396 205.954 188.906 204.722 188.906 203.438V184.062H198.594V232.5H150.156V184.062ZM135.625 242.188V256.719H125.938V242.188H135.625ZM77.5 242.188V256.719H67.8125V242.188H77.5ZM48.4375 242.188H58.125V261.562C58.125 262.847 58.6353 264.079 59.5437 264.988C60.4521 265.896 61.6841 266.406 62.9688 266.406H82.3438C83.6284 266.406 84.8604 265.896 85.7688 264.988C86.6772 264.079 87.1875 262.847 87.1875 261.562V242.188H96.875V290.625H48.4375V242.188ZM106.562 242.188H116.25V261.562C116.25 262.847 116.76 264.079 117.669 264.988C118.577 265.896 119.809 266.406 121.094 266.406H140.469C141.753 266.406 142.985 265.896 143.894 264.988C144.802 264.079 145.312 262.847 145.312 261.562V242.188H155V290.625H106.562V242.188ZM164.688 290.625V242.188H174.375V261.562C174.375 262.847 174.885 264.079 175.794 264.988C176.702 265.896 177.934 266.406 179.219 266.406H198.594C199.878 266.406 201.11 265.896 202.019 264.988C202.927 264.079 203.438 262.847 203.438 261.562V242.188H213.125V290.625H164.688ZM251.875 290.625V247.031C251.875 245.747 251.365 244.515 250.456 243.606C249.548 242.698 248.316 242.188 247.031 242.188C245.747 242.188 244.515 242.698 243.606 243.606C242.698 244.515 242.188 245.747 242.188 247.031V290.625H222.812V237.344C222.812 236.059 222.302 234.827 221.394 233.919C220.485 233.01 219.253 232.5 217.969 232.5H208.281V203.438H222.812C224.097 203.438 225.329 202.927 226.238 202.019C227.146 201.11 227.656 199.878 227.656 198.594V155C227.656 153.715 227.146 152.483 226.238 151.575C225.329 150.667 224.097 150.156 222.812 150.156H179.219V140.469H242.188V227.656C242.188 228.941 242.698 230.173 243.606 231.081C244.515 231.99 245.747 232.5 247.031 232.5C248.316 232.5 249.548 231.99 250.456 231.081C251.365 230.173 251.875 228.941 251.875 227.656V140.469H261.562V290.625H251.875Z" fill="#F8F8F8"/>
</g>
</svg>
