<svg width="70" height="70" viewBox="0 0 70 70" fill="none" xmlns="http://www.w3.org/2000/svg">
<path d="M58.9146 22.8624L56.0524 20.3155L57.7217 16.8674C57.9913 16.3123 58.0112 15.6683 57.7753 15.0978C57.5393 14.5268 57.0709 14.0845 56.4878 13.8822L52.8694 12.6238L53.0922 8.80017C53.1287 8.18351 52.8996 7.58111 52.463 7.14455C52.0265 6.70742 51.4235 6.47888 50.8068 6.51592L46.9844 6.73762L45.7248 3.11918C45.5225 2.53615 45.0808 2.06825 44.5109 1.83173C43.9404 1.59578 43.297 1.61459 42.7419 1.88302L39.2904 3.55347L36.7446 0.692456C36.3234 0.250196 35.7392 0 35.1289 0C34.5179 0 33.9337 0.250196 33.5126 0.692456L30.9667 3.55347L27.5193 1.88416C26.9636 1.61459 26.319 1.59521 25.7485 1.83116C25.178 2.06768 24.7358 2.53672 24.5334 3.12032L23.275 6.73876L19.4514 6.51706C18.8348 6.48059 18.2324 6.7097 17.7958 7.14626C17.3592 7.58282 17.1301 8.18579 17.1672 8.80245L17.3889 12.6249L13.7704 13.8833C13.188 14.0862 12.7201 14.5285 12.4841 15.0984C12.2482 15.6683 12.267 16.3123 12.5354 16.8674L14.2047 20.3166L11.3437 22.8624C10.8826 23.2728 10.6188 23.8604 10.6188 24.4776C10.6188 25.0948 10.8826 25.683 11.3437 26.0933L14.2059 28.6397L12.5383 32.0878C12.2687 32.6423 12.2488 33.2857 12.4841 33.8562C12.7189 34.4262 13.1863 34.8684 13.7682 35.0724L17.3866 36.3308L17.1649 40.1544C17.1284 40.7711 17.3575 41.3735 17.7941 41.8101C18.2312 42.2466 18.8336 42.4752 19.4503 42.4387L23.2728 42.217L24.5311 45.8354C24.734 46.4179 25.1757 46.8864 25.7462 47.1223C26.3161 47.3588 26.9602 47.34 27.5153 47.071L30.9644 45.4012L33.5091 48.2616C33.9195 48.7232 34.5076 48.9871 35.1249 48.9871C35.7427 48.9871 36.3308 48.7232 36.7412 48.2616L39.2881 45.4L42.7356 47.0687C43.2913 47.3395 43.9364 47.3588 44.5069 47.1223C45.078 46.8864 45.5208 46.4168 45.7226 45.8326L46.9821 42.2147L50.8057 42.4364C51.4224 42.4729 52.0248 42.2438 52.4613 41.8067C52.8979 41.3701 53.127 40.7671 53.09 40.151L52.8694 36.3308L56.4878 35.0724C57.0709 34.8696 57.5388 34.4273 57.7753 33.8574C58.0112 33.2875 57.9924 32.6434 57.724 32.0878L56.0536 28.6386L58.9146 26.0933C59.3756 25.683 59.6395 25.0948 59.6395 24.4776C59.6395 23.8604 59.3756 23.2728 58.9146 22.8624ZM54.4019 26.9824C53.6844 27.6276 53.4775 28.6682 53.8941 29.5385L55.5366 32.9318L51.9792 34.168C51.0684 34.4883 50.4797 35.3728 50.535 36.3365L50.7533 40.0975L46.9867 39.8803C46.0212 39.8239 45.135 40.4143 44.8158 41.3273L43.5785 44.8854L40.1869 43.244C39.3161 42.8274 38.2748 43.0337 37.6291 43.7518L35.1283 46.5661L32.6235 43.7507C31.9783 43.032 30.9359 42.8251 30.0657 43.244L26.6741 44.8854L25.4402 41.3273C25.1233 40.4126 24.2359 39.821 23.2693 39.8803L19.5073 40.0986L19.7267 36.3377C19.7808 35.3728 19.1904 34.4883 18.2785 34.1691L14.7205 32.933L16.3619 29.5396C16.7796 28.6694 16.5728 27.6276 15.8541 26.9824L13.0387 24.473L15.8552 21.9682C16.5728 21.3231 16.7791 20.2824 16.3619 19.4121L14.7205 16.0228L18.2785 14.7855C19.1904 14.4658 19.7808 13.5818 19.7267 12.6164L19.5073 8.85602L23.2693 9.0743C24.2325 9.12161 25.1136 8.53402 25.4402 7.6267L26.6763 4.06925L30.0679 5.71005C30.9394 6.12723 31.9812 5.92035 32.6269 5.20282L35.1283 2.38854L37.6342 5.20396C38.2794 5.92149 39.3201 6.1278 40.1903 5.71005L43.5819 4.06925L44.8158 7.6267C45.1304 8.54371 46.0195 9.13699 46.9867 9.07544L50.7487 8.85716L50.535 12.6181C50.4803 13.5812 51.069 14.4646 51.9792 14.7855L55.5366 16.0217L53.8941 19.4144C53.4775 20.2852 53.685 21.3265 54.4031 21.9716L57.2173 24.473L54.4019 26.9824Z" fill="white"/>
<path d="M35.1283 8.13184C26.103 8.13184 18.7875 15.4479 18.7875 24.4726C18.7875 33.4974 26.103 40.8135 35.1283 40.8135C44.153 40.8135 51.4691 33.4974 51.4691 24.4726C51.4577 15.4525 44.1484 8.14266 35.1283 8.13184ZM35.1283 38.4791C27.3927 38.4791 21.1219 32.2082 21.1219 24.4726C21.1219 16.7371 27.3927 10.4662 35.1283 10.4662C42.8633 10.4662 49.1347 16.7371 49.1347 24.4726C49.1262 32.2048 42.8599 38.4705 35.1283 38.4791Z" fill="white"/>
<path d="M44.4659 24.4728C44.4659 29.63 40.285 33.8104 35.1283 33.8104C29.9711 33.8104 25.7907 29.63 25.7907 24.4728C25.7907 19.3156 29.9711 15.1352 35.1283 15.1352C35.7729 15.1352 36.2955 14.6126 36.2955 13.968C36.2955 13.3234 35.7729 12.8008 35.1283 12.8008C28.6819 12.8008 23.4563 18.0264 23.4563 24.4728C23.4563 30.9192 28.6819 36.1448 35.1283 36.1448C41.5741 36.1448 46.8003 30.9192 46.8003 24.4728C46.8003 23.8282 46.2777 23.3056 45.6331 23.3056C44.988 23.3056 44.4659 23.8282 44.4659 24.4728Z" fill="white"/>
<path d="M36.2955 19.8046C36.2949 19.6519 36.2647 19.5009 36.2054 19.3601C36.0561 18.9999 35.737 18.7383 35.3545 18.6619C34.9721 18.5861 34.5772 18.7064 34.3019 18.9817L31.9675 21.3161C31.6637 21.609 31.5423 22.0433 31.6489 22.4513C31.756 22.8594 32.0746 23.178 32.4827 23.2851C32.8908 23.3917 33.3245 23.2703 33.6174 22.9666L33.9611 22.6269V27.975H31.6267C30.9815 27.975 30.4595 28.4977 30.4595 29.1422C30.4595 29.7868 30.9815 30.3094 31.6267 30.3094H38.6299C39.2745 30.3094 39.7971 29.7868 39.7971 29.1422C39.7971 28.4977 39.2745 27.975 38.6299 27.975H36.2955V19.8046Z" fill="white"/>
<path d="M52.2788 45.5189C52.1443 45.1159 51.8023 44.8179 51.3845 44.7404C50.9674 44.6629 50.5411 44.8179 50.2709 45.145C50.0008 45.4727 49.9301 45.9207 50.0857 46.3156L56.1377 62.861L49.4098 60.9934C48.4557 60.7273 47.4384 61.0977 46.8782 61.9144L42.948 67.6746L38.131 54.4256C37.9965 54.0227 37.6545 53.7246 37.2374 53.6471C36.8196 53.5696 36.3933 53.7246 36.1232 54.0523C35.853 54.3795 35.7823 54.828 35.9379 55.223L40.7595 68.4765C41.0564 69.2915 41.7836 69.8722 42.6442 69.9811C43.5048 70.0905 44.354 69.7098 44.8447 68.9946L48.784 63.2389L55.5142 65.1065C56.3509 65.3408 57.2485 65.0872 57.8389 64.4494C58.4294 63.8123 58.6134 62.8975 58.3154 62.0814L52.2788 45.5189Z" fill="white"/>
<path d="M43.7653 61.2104C44.2001 61.2657 44.6293 61.0714 44.8738 60.7072L44.9496 60.5903C46.0866 58.9644 48.1206 58.2246 50.0367 58.7404L50.1763 58.7791C50.7981 58.9507 51.441 58.5865 51.6125 57.9647C51.7847 57.3435 51.4199 56.7006 50.7987 56.5285L50.6608 56.4915C48.4614 55.8959 46.1099 56.3952 44.3432 57.8336L41.2753 49.409C41.0821 48.7935 40.4267 48.4516 39.8112 48.6448C39.1962 48.838 38.8537 49.494 39.0475 50.1089L42.8101 60.4496C42.96 60.8628 43.3287 61.1568 43.7653 61.2104Z" fill="white"/>
<path d="M33.6213 53.7275C33.0149 53.5081 32.3452 53.8215 32.1258 54.4279L27.3345 67.6712L23.3826 61.9121C22.8218 61.096 21.8051 60.7256 20.8505 60.99L14.1419 62.8844L20.1711 46.3156C20.3717 45.7161 20.0571 45.0658 19.4627 44.8498C18.8683 44.6338 18.21 44.9302 17.9781 45.5189L11.9483 62.0848C11.6496 62.9009 11.8337 63.8162 12.4242 64.454C13.0146 65.0923 13.9128 65.3459 14.75 65.1111L21.4614 63.2321L25.4144 68.9911C25.9051 69.7064 26.7549 70.0871 27.6149 69.9777C28.4755 69.8688 29.2027 69.2881 29.4996 68.4731L34.3223 55.223C34.4277 54.9317 34.4135 54.6103 34.2818 54.3299C34.1502 54.0495 33.9125 53.8329 33.6213 53.7275Z" fill="white"/>
<path d="M23.1968 48.2461C22.9056 48.1401 22.5842 48.1544 22.3032 48.286C22.0228 48.4171 21.8057 48.6547 21.7002 48.946L18.6705 57.2566C18.5218 57.6658 18.6129 58.124 18.9076 58.4449C19.2022 58.7652 19.6508 58.8957 20.0708 58.7823L20.2167 58.7424C22.1294 58.2306 24.1583 58.9675 25.2964 60.5878L25.3808 60.7046C25.6127 61.0557 26.0162 61.254 26.4363 61.2244C26.8557 61.1947 27.2273 60.9417 27.408 60.5616C27.5886 60.1814 27.551 59.7335 27.3088 59.3892L27.225 59.2656C25.9342 57.3831 23.8049 56.2501 21.523 56.2307L23.8864 49.7353C24.1036 49.1335 23.7958 48.4695 23.1968 48.2461Z" fill="white"/>
</svg>
