<svg width="70" height="70" viewBox="0 0 70 70" fill="none" xmlns="http://www.w3.org/2000/svg">
<path d="M66.9375 19.6879L35.5578 2.33013C35.3915 2.23413 35.2029 2.18359 35.0109 2.18359C34.8189 2.18359 34.6303 2.23413 34.4641 2.33013L2.7453 19.8301C2.58255 19.9321 2.44684 20.0718 2.34972 20.2375C2.2526 20.4032 2.19695 20.5899 2.18748 20.7817V24.9598C2.18156 25.0253 2.18156 25.0912 2.18748 25.1567V56.8754C2.18748 57.1655 2.30272 57.4437 2.50784 57.6488C2.71295 57.854 2.99115 57.9692 3.28123 57.9692C3.57131 57.9692 3.84951 57.854 4.05463 57.6488C4.25975 57.4437 4.37498 57.1655 4.37498 56.8754V26.2504H18.3969C18.4696 26.2565 18.5428 26.2565 18.6156 26.2504C18.6918 26.2611 18.7691 26.2611 18.8453 26.2504H35H51.1984H51.4172H51.6031H65.6469V32.8129C65.6469 33.103 65.7621 33.3812 65.9672 33.5863C66.1723 33.7915 66.4505 33.9067 66.7406 33.9067C67.0307 33.9067 67.3089 33.7915 67.514 33.5863C67.7191 33.3812 67.8344 33.103 67.8344 32.8129V20.7817C67.8386 20.5227 67.7508 20.2706 67.5865 20.0703C67.4223 19.87 67.1923 19.7345 66.9375 19.6879ZM43.1375 14.2192L49.3719 24.0629H36.9687L43.1375 14.2192ZM33.0203 24.0629H20.5515L26.8515 14.2192L33.0203 24.0629ZM46.3422 15.1817L53.4406 19.1083L51.2531 23.0239L46.3422 15.1817ZM35 23.0895L28.4375 12.5348L35 8.90357L41.5625 12.5458L35 23.0895ZM18.6484 22.9692L16.5265 19.0754L23.6359 15.1708L18.6484 22.9692ZM14.6015 20.1254L16.789 24.0411H7.51405L14.6015 20.1254ZM53.2328 24.0629L55.3547 20.1692L62.3437 24.0629H53.2328ZM35 4.52857L65.625 21.4817V23.3629L35.5469 6.70513C35.3806 6.60913 35.192 6.55859 35 6.55859C34.808 6.55859 34.6194 6.60913 34.4531 6.70513L26.3047 11.1895L4.37498 23.2426V21.3723L35 4.52857Z" fill="#FFB75E"/>
<path d="M66.7188 36.0938C66.4287 36.0938 66.1505 36.209 65.9454 36.4141C65.7402 36.6192 65.625 36.8974 65.625 37.1875V65.625H61.25V30.625C61.25 30.3349 61.1348 30.0567 60.9296 29.8516C60.7245 29.6465 60.4463 29.5312 60.1562 29.5312H39.375C39.0849 29.5312 38.8067 29.6465 38.6016 29.8516C38.3965 30.0567 38.2812 30.3349 38.2812 30.625V33.9062H28.4375C28.1474 33.9062 27.8692 34.0215 27.6641 34.2266C27.459 34.4317 27.3438 34.7099 27.3438 35V44.8438C27.3438 45.1338 27.459 45.412 27.6641 45.6171C27.8692 45.8223 28.1474 45.9375 28.4375 45.9375H31.7188V52.5H24.0625V40.4688C24.0625 40.1787 23.9473 39.9005 23.7421 39.6954C23.537 39.4902 23.2588 39.375 22.9688 39.375H9.84375C9.55367 39.375 9.27547 39.4902 9.07035 39.6954C8.86523 39.9005 8.75 40.1787 8.75 40.4688V49.2188C8.75 49.5088 8.86523 49.787 9.07035 49.9921C9.27547 50.1973 9.55367 50.3125 9.84375 50.3125C10.1338 50.3125 10.412 50.1973 10.6171 49.9921C10.8223 49.787 10.9375 49.5088 10.9375 49.2188V41.5625H13.125V45.9375C13.125 46.2276 13.2402 46.5058 13.4454 46.7109C13.6505 46.916 13.9287 47.0312 14.2188 47.0312H18.5938C18.8838 47.0312 19.162 46.916 19.3671 46.7109C19.5723 46.5058 19.6875 46.2276 19.6875 45.9375V41.5625H21.875V52.5H9.84375C9.55367 52.5 9.27547 52.6152 9.07035 52.8204C8.86523 53.0255 8.75 53.3037 8.75 53.5938V65.625H4.375V61.25C4.375 60.9599 4.25977 60.6817 4.05465 60.4766C3.84953 60.2715 3.57133 60.1562 3.28125 60.1562C2.99117 60.1562 2.71297 60.2715 2.50785 60.4766C2.30273 60.6817 2.1875 60.9599 2.1875 61.25V66.7188C2.1875 67.0088 2.30273 67.287 2.50785 67.4921C2.71297 67.6973 2.99117 67.8125 3.28125 67.8125H66.7188C67.0088 67.8125 67.287 67.6973 67.4921 67.4921C67.6973 67.287 67.8125 67.0088 67.8125 66.7188V37.1875C67.8125 36.8974 67.6973 36.6192 67.4921 36.4141C67.287 36.209 67.0088 36.0938 66.7188 36.0938ZM17.5 44.8438H15.3125V41.5625H17.5V44.8438ZM29.5312 43.75V36.0938H49.2188V43.75H47.0312V40.4688C47.0312 40.1787 46.916 39.9005 46.7109 39.6954C46.5058 39.4902 46.2276 39.375 45.9375 39.375H32.8125C32.5224 39.375 32.2442 39.4902 32.0391 39.6954C31.834 39.9005 31.7188 40.1787 31.7188 40.4688V43.75H29.5312ZM41.5625 54.6875H43.75V57.9688H41.5625V54.6875ZM38.2812 41.5625H40.4688V44.8438H38.2812V41.5625ZM33.9062 41.5625H36.0938V45.9375C36.0938 46.2276 36.209 46.5058 36.4141 46.7109C36.6192 46.916 36.8974 47.0312 37.1875 47.0312H41.5625C41.8526 47.0312 42.1308 46.916 42.3359 46.7109C42.541 46.5058 42.6562 46.2276 42.6562 45.9375V41.5625H44.8438V52.5H33.9062V41.5625ZM30.625 54.6875V57.9688H28.4375V54.6875H30.625ZM17.5 54.6875V57.9688H15.3125V54.6875H17.5ZM10.9375 54.6875H13.125V59.0625C13.125 59.3526 13.2402 59.6308 13.4454 59.8359C13.6505 60.041 13.9287 60.1562 14.2188 60.1562H18.5938C18.8838 60.1562 19.162 60.041 19.3671 59.8359C19.5723 59.6308 19.6875 59.3526 19.6875 59.0625V54.6875H21.875V65.625H10.9375V54.6875ZM24.0625 54.6875H26.25V59.0625C26.25 59.3526 26.3652 59.6308 26.5704 59.8359C26.7755 60.041 27.0537 60.1562 27.3438 60.1562H31.7188C32.0088 60.1562 32.287 60.041 32.4921 59.8359C32.6973 59.6308 32.8125 59.3526 32.8125 59.0625V54.6875H35V65.625H24.0625V54.6875ZM37.1875 65.625V54.6875H39.375V59.0625C39.375 59.3526 39.4902 59.6308 39.6954 59.8359C39.9005 60.041 40.1787 60.1562 40.4688 60.1562H44.8438C45.1338 60.1562 45.412 60.041 45.6171 59.8359C45.8223 59.6308 45.9375 59.3526 45.9375 59.0625V54.6875H48.125V65.625H37.1875ZM56.875 65.625V55.7812C56.875 55.4912 56.7598 55.213 56.5546 55.0079C56.3495 54.8027 56.0713 54.6875 55.7812 54.6875C55.4912 54.6875 55.213 54.8027 55.0079 55.0079C54.8027 55.213 54.6875 55.4912 54.6875 55.7812V65.625H50.3125V53.5938C50.3125 53.3037 50.1973 53.0255 49.9921 52.8204C49.787 52.6152 49.5088 52.5 49.2188 52.5H47.0312V45.9375H50.3125C50.6026 45.9375 50.8808 45.8223 51.0859 45.6171C51.291 45.412 51.4062 45.1338 51.4062 44.8438V35C51.4062 34.7099 51.291 34.4317 51.0859 34.2266C50.8808 34.0215 50.6026 33.9062 50.3125 33.9062H40.4688V31.7188H54.6875V51.4062C54.6875 51.6963 54.8027 51.9745 55.0079 52.1796C55.213 52.3848 55.4912 52.5 55.7812 52.5C56.0713 52.5 56.3495 52.3848 56.5546 52.1796C56.7598 51.9745 56.875 51.6963 56.875 51.4062V31.7188H59.0625V65.625H56.875Z" fill="#FFB75E"/>
</svg>
