<svg width="310" height="310" viewBox="0 0 310 310" fill="none" xmlns="http://www.w3.org/2000/svg">
<path d="M273.833 180.833H268.667V144.667C268.667 133.254 259.413 124 248 124H237.667V108.5C237.667 105.647 235.353 103.333 232.5 103.333C229.647 103.333 227.333 105.647 227.333 108.5V124H20.6667C14.9601 124 10.3333 119.373 10.3333 113.667C10.3333 110.813 8.01994 108.5 5.16667 108.5C2.31339 108.5 0 110.813 0 113.667V289.333C0 300.746 9.25358 310 20.6667 310H248C259.413 310 268.667 300.746 268.667 289.333V253.167H273.833C293.809 253.167 310 236.975 310 217C310 197.025 293.809 180.833 273.833 180.833ZM20.6667 134.333H248C253.707 134.333 258.333 138.96 258.333 144.667V155H10.3333V131.543C13.4742 133.365 17.0364 134.326 20.6667 134.333ZM258.333 268.667H151.796C148.943 268.667 146.629 270.98 146.629 273.833C146.629 276.687 148.943 279 151.796 279H258.333V289.333C258.333 295.04 253.707 299.667 248 299.667H113.149C138.536 283.768 150.325 252.983 142.056 224.195C133.786 195.407 107.453 175.576 77.5 175.576C47.547 175.576 21.2141 195.407 12.9444 224.195C4.67472 252.983 16.4637 283.768 41.8505 299.667H20.6667C14.9601 299.667 10.3333 295.04 10.3333 289.333V165.333H258.333V180.833H211.833C191.858 180.833 175.667 197.025 175.667 217C175.667 236.975 191.858 253.167 211.833 253.167H258.333V268.667ZM77.5 299.667C46.1115 299.667 20.6667 274.222 20.6667 242.833C20.6667 211.445 46.1115 186 77.5 186C108.889 186 134.333 211.445 134.333 242.833C134.333 274.222 108.889 299.667 77.5 299.667ZM273.833 242.833H211.833C197.567 242.833 186 231.266 186 217C186 202.734 197.567 191.167 211.833 191.167H273.833C288.1 191.167 299.667 202.734 299.667 217C299.667 231.266 288.1 242.833 273.833 242.833Z" fill="#FFBC6A"/>
<path d="M211.833 201.5C203.274 201.5 196.333 208.44 196.333 217C196.333 225.56 203.274 232.5 211.833 232.5C220.393 232.5 227.333 225.56 227.333 217C227.333 208.44 220.393 201.5 211.833 201.5ZM211.833 222.167C208.98 222.167 206.667 219.853 206.667 217C206.667 214.147 208.98 211.833 211.833 211.833C214.687 211.833 217 214.147 217 217C217 219.853 214.687 222.167 211.833 222.167Z" fill="#FFBC6A"/>
<path d="M77.5 222.167C81.7812 222.167 85.25 225.635 85.25 229.917C85.25 232.77 87.5634 235.083 90.4167 235.083C93.2699 235.083 95.5833 232.77 95.5833 229.917C95.5505 221.947 90.3057 214.936 82.6667 212.661V206.667C82.6667 203.813 80.3533 201.5 77.5 201.5C74.6467 201.5 72.3333 203.813 72.3333 206.667V212.661C63.7004 215.181 58.2461 223.678 59.5453 232.578C60.8471 241.476 68.5063 248.056 77.5 248C81.7812 248 85.25 251.469 85.25 255.75C85.25 260.031 81.7812 263.5 77.5 263.5C73.2188 263.5 69.75 260.031 69.75 255.75C69.75 252.897 67.4366 250.583 64.5833 250.583C61.7301 250.583 59.4167 252.897 59.4167 255.75C59.4495 263.72 64.6943 270.73 72.3333 273.006V279C72.3333 281.853 74.6467 284.167 77.5 284.167C80.3533 284.167 82.6667 281.853 82.6667 279V273.006C91.2996 270.486 96.7539 261.989 95.4547 253.088C94.1529 244.191 86.4937 237.611 77.5 237.667C73.2188 237.667 69.75 234.198 69.75 229.917C69.75 225.635 73.2188 222.167 77.5 222.167Z" fill="#FFBC6A"/>
<path d="M31 113.667C33.8533 113.667 36.1667 111.353 36.1667 108.5V10.3333H149.833V108.5C149.833 111.353 152.147 113.667 155 113.667C157.853 113.667 160.167 111.353 160.167 108.5V72.3333H165.333C165.333 83.7464 174.587 93 186 93V108.5C186 111.353 188.313 113.667 191.167 113.667C194.02 113.667 196.333 111.353 196.333 108.5V87.8333C196.333 84.9801 194.02 82.6667 191.167 82.6667H186C180.293 82.6667 175.667 78.0399 175.667 72.3333V67.1667C175.667 64.3134 173.353 62 170.5 62H160.167V51.6667H206.667V108.5C206.667 111.353 208.98 113.667 211.833 113.667C214.687 113.667 217 111.353 217 108.5V46.5C217 43.6467 214.687 41.3333 211.833 41.3333H160.167V5.16667C160.167 2.3134 157.853 0 155 0H31C28.1467 0 25.8333 2.3134 25.8333 5.16667V108.5C25.8333 111.353 28.1467 113.667 31 113.667Z" fill="#FFBC6A"/>
<path d="M134.333 113.667C137.187 113.667 139.5 111.353 139.5 108.5V46.5C139.5 43.6467 137.187 41.3333 134.333 41.3333H129.167C123.46 41.3333 118.833 36.7065 118.833 31V25.8333C118.833 22.9801 116.52 20.6667 113.667 20.6667H72.3333C69.4801 20.6667 67.1667 22.9801 67.1667 25.8333V31C67.1667 36.7065 62.5399 41.3333 56.8333 41.3333H51.6667C48.8134 41.3333 46.5 43.6467 46.5 46.5V108.5C46.5 111.353 48.8134 113.667 51.6667 113.667C54.5199 113.667 56.8333 111.353 56.8333 108.5V51.6667C68.2464 51.6667 77.5 42.4131 77.5 31H108.5C108.5 42.4131 117.754 51.6667 129.167 51.6667V108.5C129.167 111.353 131.48 113.667 134.333 113.667Z" fill="#FFBC6A"/>
<path d="M93 82.6667C78.7336 82.6667 67.1667 94.2337 67.1667 108.5C67.1667 111.353 69.4801 113.667 72.3333 113.667C75.1866 113.667 77.5 111.353 77.5 108.5C77.5 99.9402 84.4402 93 93 93C101.56 93 108.5 99.9402 108.5 108.5C108.5 111.353 110.813 113.667 113.667 113.667C116.52 113.667 118.833 111.353 118.833 108.5C118.833 94.2337 107.266 82.6667 93 82.6667Z" fill="#FFBC6A"/>
</svg>
