<svg width="62" height="70" viewBox="0 0 62 70" fill="none" xmlns="http://www.w3.org/2000/svg">
<path d="M19.3342 40.834C20.6233 40.834 21.6674 41.8787 21.6674 43.1673C21.6674 43.8115 22.1898 44.3339 22.8341 44.3339C23.4784 44.3339 24.0007 43.8115 24.0007 43.1673C23.9927 41.0459 22.555 39.1968 20.5008 38.6665V37.3341C20.5008 36.6898 19.9784 36.1674 19.3342 36.1674C18.6899 36.1674 18.1675 36.6898 18.1675 37.3341V38.6665C15.8946 39.2515 14.4124 41.4361 14.7086 43.7642C15.0048 46.0924 16.9872 47.8367 19.3342 47.8338C20.6233 47.8338 21.6674 48.8785 21.6674 50.1671C21.6674 51.4556 20.6233 52.5004 19.3342 52.5004C18.0456 52.5004 17.0009 51.4556 17.0009 50.1671C17.0009 49.5228 16.4785 49.0005 15.8342 49.0005C15.19 49.0005 14.6676 49.5228 14.6676 50.1671C14.6756 52.2885 16.1139 54.1375 18.1675 54.6679V56.0003C18.1675 56.6446 18.6899 57.1669 19.3342 57.1669C19.9784 57.1669 20.5008 56.6446 20.5008 56.0003V54.6713C22.7811 54.092 24.2707 51.9034 23.9739 49.5701C23.6772 47.2363 21.6868 45.4903 19.3342 45.5005C18.0456 45.5005 17.0009 44.4558 17.0009 43.1673C17.0009 41.8787 18.0456 40.834 19.3342 40.834Z" fill="#FFB75E"/>
<path d="M22.8341 29.1676H15.8342C15.19 29.1676 14.6676 29.69 14.6676 30.3342C14.6676 30.9785 15.19 31.5009 15.8342 31.5009H22.8341C23.4784 31.5009 24.0007 30.9785 24.0007 30.3342C24.0007 29.69 23.4784 29.1676 22.8341 29.1676Z" fill="#FFB75E"/>
<path d="M22.8341 61.8335H15.8342C15.19 61.8335 14.6676 62.3558 14.6676 63.0001C14.6676 63.6444 15.19 64.1668 15.8342 64.1668H22.8341C23.4784 64.1668 24.0007 63.6444 24.0007 63.0001C24.0007 62.3558 23.4784 61.8335 22.8341 61.8335Z" fill="#FFB75E"/>
<path d="M59.925 44.9173L42.798 15.2551C43.8519 14.2098 44.7844 13.0483 45.5767 11.7928C47.5215 8.64264 47.869 5.65255 46.5543 3.37567C43.9379 -1.15702 35.6745 -1.12057 27.7422 3.45827C26.6889 4.0752 25.6761 4.75821 24.7094 5.50331L23.7678 4.43464C22.645 3.16319 21.0306 2.43404 19.3342 2.4329C17.6383 2.43404 16.024 3.16319 14.9012 4.43464L2.14732 18.8872C1.19372 19.9672 0.667369 21.3589 0.667939 22.8001V59.5003C0.674774 65.2964 5.37153 69.9938 11.1677 70H27.5007C33.2968 69.9938 37.9942 65.2964 38.0004 59.5003V22.8001C37.9981 21.6762 37.674 20.5762 37.0673 19.63H37.0765C38.4715 18.8234 39.7954 17.9 41.0338 16.8701L57.9045 46.0839C60.1615 49.99 58.8239 54.9858 54.9167 57.2416L40.7723 65.4081C40.1503 65.7636 39.4832 66.0353 38.7894 66.2153C38.1668 66.3811 37.7959 67.0202 37.9617 67.6428C38.1269 68.2655 38.766 68.6363 39.3892 68.4705C40.279 68.2364 41.1346 67.8861 41.9333 67.4286L56.0776 59.2622C61.1025 56.3644 62.8257 49.941 59.925 44.9173ZM35.6671 59.5003C35.662 64.0085 32.0089 67.6616 27.5007 67.6668H11.1677C6.66007 67.6616 3.00635 64.0085 3.00122 59.5003V22.8001C3.00122 21.9274 3.31965 21.0849 3.89728 20.4304L16.6511 5.97953C17.3302 5.2088 18.3071 4.76675 19.3342 4.76618C20.3613 4.76675 21.3388 5.2088 22.0178 5.97953L33.396 18.8741C30.7949 20.1011 27.9524 20.7317 25.0768 20.7198C25.1298 20.4275 25.16 20.1313 25.1674 19.8345C25.164 16.6143 22.5544 14.0053 19.3342 14.0013C19.206 14.0053 19.0795 14.0309 18.9599 14.0771C18.372 14.0047 17.8252 14.3898 17.6942 14.9674C17.2789 16.5619 17.4828 18.2543 18.2644 19.7046C19.0397 20.9886 20.2456 21.9553 21.6675 22.4315C20.6449 23.3646 19.1667 23.6033 17.9021 23.0405C16.6369 22.4771 15.8257 21.2188 15.8343 19.8345C15.8343 19.1902 15.3119 18.6679 14.6676 18.6679C14.0233 18.6679 13.501 19.1902 13.501 19.8345C13.4981 22.4207 15.2002 24.6993 17.6816 25.4296C20.1624 26.1599 22.8278 25.167 24.2263 22.9915C24.6855 23.0399 25.1469 23.0656 25.6089 23.0673C28.8655 22.9687 32.0624 22.1638 34.9779 20.7084C35.4228 21.3156 35.6637 22.0476 35.6671 22.8001V59.5003ZM22.8341 19.8345C22.8295 20.0054 22.8125 20.1757 22.7828 20.3444C21.7535 20.0766 20.862 19.4323 20.2855 18.538C19.9255 17.8812 19.7711 17.1315 19.8417 16.3859C21.5552 16.6371 22.8273 18.1028 22.8341 19.8345ZM35.9087 17.5992C35.7925 17.667 35.6757 17.7251 35.5589 17.7906L26.2605 7.25213C27.107 6.61013 27.9917 6.01998 28.9088 5.48451C35.4809 1.68837 42.6368 1.25942 44.5326 4.55142C45.3996 6.05074 45.0646 8.19148 43.591 10.5772C43.0082 11.5028 42.3366 12.3693 41.5846 13.1634L41.5727 13.1423C40.8532 11.8942 39.7014 10.952 38.3354 10.4929L33.7668 8.94854C33.163 8.76454 32.5221 9.09437 32.321 9.6925C32.1194 10.2912 32.431 10.9412 33.024 11.1593L37.5926 12.6957C38.4191 12.9742 39.1158 13.5445 39.5521 14.2998L39.8495 14.8142C38.6253 15.8641 37.306 16.7972 35.9087 17.6026V17.5992Z" fill="#FFB75E"/>
<path d="M40.4903 47.0256C40.8122 47.5833 41.526 47.7747 42.0836 47.4523L50.1664 42.7857C50.5304 42.5789 50.7554 42.1927 50.7565 41.774C50.7571 41.3553 50.5338 40.9685 50.1709 40.76C49.8075 40.5515 49.3609 40.5532 48.9997 40.7652L40.917 45.4317C40.3593 45.7541 40.1679 46.4673 40.4903 47.0256Z" fill="#FFB75E"/>
<path d="M41.9674 54.2498C42.2887 54.8081 43.0025 55.0001 43.5607 54.6776L53.664 48.8444C54.2223 48.5226 54.4137 47.8088 54.0912 47.2506C53.7694 46.6923 53.0556 46.5009 52.4974 46.8228L42.3941 52.656C41.8364 52.9784 41.645 53.6916 41.9674 54.2498Z" fill="#FFB75E"/>
<path d="M42.6265 40.2232C42.831 40.2232 43.0321 40.1691 43.2098 40.0666L47.2509 37.7333C47.6149 37.5265 47.8399 37.1403 47.8411 36.7216C47.8416 36.3035 47.6183 35.9161 47.2555 35.7076C46.8926 35.4991 46.4454 35.5008 46.0843 35.7127L42.0432 38.046C41.5858 38.3103 41.363 38.8481 41.4997 39.3585C41.6365 39.8683 42.0984 40.2232 42.6265 40.2232Z" fill="#FFB75E"/>
</svg>
