<svg width="100" height="100" viewBox="0 0 100 100" fill="none" xmlns="http://www.w3.org/2000/svg">
<g clip-path="url(#clip0)">
<path d="M90.0816 64.4531H69.1451C67.8004 64.4531 66.4675 64.1997 65.2166 63.7062L27.6045 48.8689C26.3535 48.3753 25.0207 48.122 23.6759 48.122H9.91833C4.56755 48.122 0.09079 43.8814 0.00133683 38.5312C-0.0900694 33.0657 4.31306 28.6066 9.75759 28.6066H27.3857C28.7304 28.6066 30.0632 28.8599 31.3142 29.3534L68.9263 44.1907C70.1773 44.6843 71.5101 44.9376 72.8549 44.9376H90.242C95.6865 44.9376 100.09 49.3968 99.9982 54.8622C99.9091 60.2124 95.4326 64.4531 90.0816 64.4531Z" fill="#544F57"/>
<path d="M90.2422 44.9376H85.85C91.2945 44.9376 95.6977 49.3968 95.6063 54.8622C95.517 60.2124 91.0404 64.4531 85.6897 64.4531H90.0819C95.4326 64.4531 99.9094 60.2124 99.9988 54.8622C100.09 49.397 95.6867 44.9376 90.2422 44.9376Z" fill="#454045"/>
<path d="M10.4926 42.4353C12.6192 42.4353 14.3432 40.7113 14.3432 38.5847C14.3432 36.4581 12.6192 34.7341 10.4926 34.7341C8.366 34.7341 6.64203 36.4581 6.64203 38.5847C6.64203 40.7113 8.366 42.4353 10.4926 42.4353Z" fill="#909BA5"/>
<path d="M89.2287 58.5461C91.3553 58.5461 93.0793 56.8222 93.0793 54.6956C93.0793 52.5689 91.3553 50.845 89.2287 50.845C87.1021 50.845 85.3781 52.5689 85.3781 54.6956C85.3781 56.8222 87.1021 58.5461 89.2287 58.5461Z" fill="#909BA5"/>
<path d="M62.7019 55.8078C62.2844 55.8078 61.8598 55.7308 61.4476 55.5683L31.7559 43.8554C29.9986 43.1623 29.1359 41.1757 29.8291 39.4183C30.5223 37.6609 32.5086 36.7982 34.2662 37.4916L63.958 49.2042C65.7152 49.8974 66.5779 51.8841 65.8848 53.6414C65.3541 54.9867 64.0654 55.8078 62.7019 55.8078Z" fill="#909BA5"/>
<path d="M63.958 49.2042L60.708 48.0144C62.4652 48.7076 63.3279 50.6943 62.6348 52.4515C62.1041 53.7966 60.8152 54.6179 59.4518 54.6179C59.2775 54.6179 59.102 54.6011 58.9266 54.5738L61.4475 55.5683C61.8596 55.7308 62.2842 55.8078 62.7018 55.8078C64.0652 55.8078 65.3539 54.9867 65.8848 53.6414C66.5781 51.8843 65.7152 49.8976 63.958 49.2042Z" fill="#808B95"/>
<path d="M27.3859 28.6066C28.4168 28.6066 29.44 28.7568 30.4252 29.0486V17.7285C30.4252 16.5834 29.4969 15.6553 28.352 15.6553H14.3426C13.1975 15.6553 12.2693 16.5836 12.2693 17.7285V28.6066H27.3859Z" fill="#FFB75E"/>
<path d="M30.4252 29.0487V24.954C29.44 24.6622 28.4166 24.5122 27.3859 24.5122H12.2693V28.6067H27.3859C28.4166 28.6067 29.44 28.7569 30.4252 29.0487Z" fill="#FF9F29"/>
<path d="M19.838 15.6553V19.3926C19.838 20.226 20.5136 20.9016 21.347 20.9016C22.1804 20.9016 22.856 20.226 22.856 19.3926V15.6553H19.838Z" fill="#FFECD3"/>
<path d="M89.9316 33.8582V44.9387H72.8552C72.4931 44.9387 72.133 44.9186 71.7747 44.8824V33.8582C71.7747 32.7114 72.7042 31.7838 73.8492 31.7838H87.8572C89.0019 31.7838 89.9316 32.7114 89.9316 33.8582Z" fill="#FFB75E"/>
<path d="M72.855 40.8432C72.4937 40.8432 72.1334 40.8234 71.775 40.7871V44.8816C72.1334 44.918 72.4937 44.9377 72.855 44.9377H89.9308V40.8432H72.855Z" fill="#FF9F29"/>
<path d="M82.3621 31.7838V35.5223C82.3621 36.3553 81.6862 37.0313 80.8532 37.0313C80.0202 37.0313 79.3442 36.3553 79.3442 35.5223V31.7838H82.3621Z" fill="#FFECD3"/>
<path d="M57.3175 39.6113L61.3267 29.7258C61.757 28.6647 61.2457 27.4557 60.1845 27.0252L47.2023 21.7602C46.1412 21.3299 44.9322 21.8412 44.5017 22.9024L40.4273 32.9486L57.3175 39.6113Z" fill="#FFB75E"/>
<path d="M41.859 29.4185L40.4275 32.9483L57.3175 39.6112L58.749 36.0813L41.859 29.4185Z" fill="#FF9F29"/>
<path d="M52.2951 23.8256L50.8904 27.2888C50.5771 28.0611 50.9494 28.9412 51.7219 29.2545C51.9076 29.3299 52.0996 29.3654 52.2883 29.3654C52.8846 29.3654 53.4494 29.0097 53.6873 28.4232L55.092 24.9599L52.2951 23.8256Z" fill="#FFECD3"/>
<path d="M14.2815 48.1221H20.7123V78.2873H14.2815V48.1221Z" fill="#544F57"/>
<path d="M80.6187 64.4531H87.0496V78.2873H80.6187V64.4531Z" fill="#544F57"/>
<path d="M14.2815 48.1221H20.7123V51.8334H14.2815V48.1221Z" fill="#454045"/>
<path d="M80.6187 64.4531H87.0496V68.1645H80.6187V64.4531Z" fill="#454045"/>
<path d="M25.1092 84.3447H9.8844C9.20491 84.3447 8.65393 83.7939 8.65393 83.1142V81.9224C8.65393 79.9148 10.2815 78.2872 12.2891 78.2872H22.7045C24.7121 78.2872 26.3397 79.9148 26.3397 81.9224V83.1142C26.3397 83.7937 25.7889 84.3447 25.1092 84.3447Z" fill="#909BA5"/>
<path d="M91.4465 84.3447H76.2217C75.5422 84.3447 74.9912 83.7939 74.9912 83.1142V81.9224C74.9912 79.9148 76.6188 78.2872 78.6264 78.2872H89.0418C91.0494 78.2872 92.677 79.9148 92.677 81.9224V83.1142C92.677 83.7937 92.1262 84.3447 91.4465 84.3447Z" fill="#909BA5"/>
</g>
<defs>
<clipPath id="clip0">
<rect width="100" height="100" fill="white"/>
</clipPath>
</defs>
</svg>
