<svg width="100" height="100" viewBox="0 0 100 100" fill="none" xmlns="http://www.w3.org/2000/svg">
<g clip-path="url(#clip0)">
<path d="M83.2604 12.1472L71.5424 0.428905C71.2678 0.154297 70.8952 0 70.5067 0H17.7751C16.9662 0 16.3103 0.655663 16.3103 1.46484V90.034C16.3103 90.843 16.9662 91.4989 17.7751 91.4989H82.2246C83.0336 91.4989 83.6895 90.843 83.6895 90.034V13.1832C83.6895 12.7947 83.5352 12.4222 83.2604 12.1472Z" fill="#E6E9ED"/>
<path d="M43.3647 30.2737C43.3633 30.2737 43.3621 30.2737 43.3608 30.2737H29.494C29.0801 30.2737 28.6856 30.0987 28.4079 29.7916C28.1301 29.4848 27.9952 29.0748 28.0364 28.6629L29.2085 16.9442C29.2835 16.1954 29.9135 15.6252 30.6661 15.6252H42.3844C43.1463 15.6252 43.7809 16.2092 43.8442 16.9684L44.8116 28.5782C44.8235 28.6534 44.8295 28.7303 44.8295 28.8088C44.8295 29.6178 44.1737 30.2737 43.3647 30.2737Z" fill="#FFB75E"/>
<path d="M36.5253 9.76562C34.1021 9.76562 32.1308 11.7369 32.1308 14.1601V17.09C32.1308 17.899 32.7867 18.5549 33.5956 18.5549C34.4046 18.5549 35.0605 17.899 35.0605 17.09V14.1601C35.0605 13.3523 35.7175 12.6953 36.5253 12.6953C37.3331 12.6953 37.9902 13.3523 37.9902 14.1601V17.09C37.9902 17.899 38.646 18.5549 39.455 18.5549C40.264 18.5549 40.9198 17.899 40.9198 17.09V14.1601C40.9198 11.7369 38.9486 9.76562 36.5253 9.76562Z" fill="#515760"/>
<path d="M71.5424 0.42893C71.3868 0.273266 71.1989 0.157641 70.9952 0.0855713V11.2299C70.9952 12.0389 71.651 12.6947 72.46 12.6947H83.6039C83.5317 12.491 83.4162 12.3031 83.2606 12.1473L71.5424 0.42893Z" fill="#F5F7FA"/>
<path d="M70.5067 44.6274H29.4935C28.6845 44.6274 28.0287 43.9716 28.0287 43.1626C28.0287 42.3534 28.6845 41.6978 29.4935 41.6978H70.5067C71.3157 41.6978 71.9716 42.3534 71.9716 43.1626C71.9716 43.9716 71.3157 44.6274 70.5067 44.6274Z" fill="#656D78"/>
<path d="M70.5067 52.4416H29.4935C28.6845 52.4416 28.0287 51.7858 28.0287 50.9768C28.0287 50.1676 28.6845 49.512 29.4935 49.512H70.5067C71.3157 49.512 71.9716 50.1676 71.9716 50.9768C71.9716 51.7858 71.3157 52.4416 70.5067 52.4416Z" fill="#656D78"/>
<path d="M70.5067 60.2539H29.4935C28.6845 60.2539 28.0287 59.598 28.0287 58.7891C28.0287 57.9799 28.6845 57.3242 29.4935 57.3242H70.5067C71.3157 57.3242 71.9716 57.9799 71.9716 58.7891C71.9716 59.598 71.3157 60.2539 70.5067 60.2539Z" fill="#656D78"/>
<path d="M47.0704 68.0664H29.4935C28.6845 68.0664 28.0287 67.4105 28.0287 66.6016C28.0287 65.7924 28.6845 65.1367 29.4935 65.1367H47.0704C47.8794 65.1367 48.5353 65.7924 48.5353 66.6016C48.5353 67.4105 47.8794 68.0664 47.0704 68.0664Z" fill="#656D78"/>
<path d="M77.7442 12.6953C77.799 12.8508 77.8297 13.0152 77.8297 13.1832V90.034C77.8297 90.843 77.1739 91.4989 76.3649 91.4989H82.2248C83.0338 91.4989 83.6897 90.843 83.6897 90.034V13.1832C83.6897 13.0152 83.6592 12.8508 83.6041 12.6953H77.7442Z" fill="#DADDE1"/>
<path d="M61.72 89.5511C56.0659 89.5511 51.4661 84.9511 51.4661 79.2972C51.4661 73.6431 56.0659 69.0433 61.72 69.0433C67.3741 69.0433 71.9739 73.6431 71.9739 79.2972C71.9739 84.9511 67.3741 89.5511 61.72 89.5511Z" fill="#FFB75E"/>
<path d="M61.72 89.5511C59.3245 89.5511 57.1202 88.7231 55.3727 87.3413V98.535C55.3727 98.5507 55.3745 98.5657 55.3751 98.5811C55.3761 98.611 55.3768 98.6409 55.3796 98.6706C55.3815 98.6915 55.3848 98.7122 55.3876 98.7327C55.3911 98.7596 55.3948 98.7862 55.3999 98.8128C55.4042 98.835 55.4099 98.8569 55.4151 98.8788C55.421 98.9032 55.4266 98.9274 55.4339 98.9516C55.4407 98.9745 55.4487 98.9969 55.4567 99.0196C55.4645 99.0419 55.4722 99.0643 55.4811 99.0864C55.4907 99.1098 55.5015 99.1323 55.5122 99.1553C55.5218 99.1757 55.5309 99.1962 55.5415 99.2163C55.5542 99.2401 55.5681 99.2632 55.5819 99.2862C55.5927 99.3044 55.603 99.3225 55.6145 99.3399C55.6308 99.3645 55.6485 99.388 55.6661 99.4116C55.6757 99.4241 55.6839 99.4376 55.6938 99.4501C55.6958 99.4526 55.6981 99.4544 55.7001 99.4569C55.7329 99.4975 55.7677 99.5364 55.8046 99.5733C55.8149 99.5837 55.8263 99.5927 55.837 99.6026C55.8638 99.6278 55.8911 99.6524 55.9198 99.6755C55.937 99.6893 55.9548 99.702 55.9725 99.7149C55.9966 99.7325 56.0206 99.7497 56.0454 99.7657C56.0641 99.778 56.0831 99.7891 56.1024 99.8005C56.1284 99.8155 56.155 99.8298 56.1819 99.8434C56.2003 99.8526 56.2186 99.8618 56.2376 99.8702C56.2675 99.8837 56.2981 99.8958 56.329 99.9071C56.3458 99.9134 56.3624 99.92 56.3794 99.9257C56.4139 99.9372 56.4495 99.9464 56.4852 99.9553C56.4995 99.9589 56.5136 99.9632 56.5278 99.9663C56.5673 99.9749 56.6075 99.9809 56.6481 99.9862C56.6595 99.9878 56.6706 99.9903 56.6819 99.9913C56.7298 99.9964 56.7784 99.9989 56.8276 99.9993C56.8313 99.9993 56.835 99.9999 56.8388 99.9999C56.8403 99.9999 56.8417 99.9995 56.8432 99.9995C56.9147 99.9993 56.9845 99.9925 57.053 99.9823C57.0679 99.98 57.0823 99.9782 57.0972 99.9755C57.1669 99.9632 57.2347 99.9462 57.3005 99.9241C57.3126 99.92 57.3243 99.9153 57.3362 99.911C57.4063 99.8856 57.4747 99.8565 57.5395 99.821C57.5419 99.8196 57.544 99.818 57.5464 99.8169C57.6147 99.7792 57.679 99.7356 57.7399 99.6878C57.7442 99.6845 57.7489 99.6823 57.7532 99.679L61.7208 96.5048L65.6882 99.679C65.6924 99.6823 65.6969 99.6843 65.7012 99.6876C65.7624 99.7354 65.8266 99.7792 65.895 99.8171C65.8973 99.8182 65.8995 99.8198 65.9018 99.8212C65.9665 99.8567 66.035 99.8858 66.1051 99.9112C66.1171 99.9155 66.1288 99.9204 66.1407 99.9243C66.2065 99.946 66.2745 99.9632 66.344 99.9757C66.3587 99.9784 66.3733 99.9802 66.3881 99.9825C66.4567 99.9927 66.5262 99.9995 66.5977 99.9997C66.5993 99.9997 66.6008 100 66.6024 100C66.6057 100 66.609 99.9997 66.6124 99.9995C66.662 99.9993 66.711 99.9966 66.7594 99.9915C66.7702 99.9903 66.7807 99.988 66.7917 99.9868C66.8327 99.9815 66.8737 99.9751 66.9135 99.9665C66.9274 99.9634 66.9409 99.9593 66.9546 99.9557C66.9909 99.9467 67.027 99.9372 67.0622 99.9257C67.0786 99.9204 67.0948 99.9137 67.111 99.9077C67.1426 99.896 67.1737 99.8839 67.2042 99.8702C67.2225 99.862 67.2407 99.853 67.2587 99.844C67.286 99.8303 67.313 99.8157 67.3393 99.8003C67.3583 99.7893 67.377 99.7782 67.3958 99.7661C67.4208 99.7499 67.4452 99.7327 67.4692 99.7149C67.4868 99.702 67.5046 99.6895 67.5215 99.6759C67.5503 99.6526 67.5778 99.6278 67.6047 99.6024C67.6153 99.5925 67.6262 99.5837 67.6366 99.5735C67.6735 99.5368 67.7085 99.4977 67.7413 99.4571C67.7432 99.4546 67.7456 99.4528 67.7475 99.4503C67.7575 99.438 67.7655 99.4247 67.7751 99.4122C67.7928 99.3885 67.8106 99.3649 67.827 99.3401C67.8385 99.3225 67.8487 99.3044 67.8596 99.2866C67.8735 99.2634 67.8876 99.2403 67.9003 99.2163C67.9108 99.1964 67.92 99.1761 67.9294 99.1557C67.9401 99.1329 67.9508 99.1102 67.9604 99.0866C67.9694 99.0645 67.977 99.0421 67.9848 99.0198C67.9928 98.9973 68.0008 98.9749 68.0077 98.9518C68.0149 98.9276 68.0206 98.9032 68.0264 98.8788C68.0317 98.8571 68.0374 98.8352 68.0417 98.813C68.0467 98.7862 68.0503 98.7594 68.054 98.7327C68.0567 98.7122 68.06 98.6917 68.062 98.6708C68.0647 98.6411 68.0655 98.611 68.0665 98.5811C68.0671 98.5657 68.0688 98.5507 68.0688 98.535L68.0684 87.3415C66.32 88.7231 64.1155 89.5511 61.72 89.5511Z" fill="#FF9F29"/>
<path d="M61.7201 83.6915C59.2969 83.6915 57.3256 81.72 57.3256 79.297C57.3256 76.8738 59.2969 74.9025 61.7201 74.9025C64.1434 74.9025 66.1147 76.8738 66.1147 79.297C66.1147 81.72 64.1434 83.6915 61.7201 83.6915Z" fill="#FF9F29"/>
<path d="M56.6145 17.4H59.3865V30H56.1645V20.784L53.9685 21.342L53.1945 18.624L56.6145 17.4ZM70.0616 28.488C69.1496 29.676 67.8716 30.27 66.2276 30.27C64.5836 30.27 63.2996 29.676 62.3756 28.488C61.4636 27.288 61.0076 25.692 61.0076 23.7C61.0076 21.708 61.4636 20.118 62.3756 18.93C63.2996 17.73 64.5836 17.13 66.2276 17.13C67.8716 17.13 69.1496 17.73 70.0616 18.93C70.9856 20.118 71.4476 21.708 71.4476 23.7C71.4476 25.692 70.9856 27.288 70.0616 28.488ZM64.2296 23.7C64.2296 25.992 64.8956 27.138 66.2276 27.138C67.5596 27.138 68.2256 25.992 68.2256 23.7C68.2256 21.408 67.5596 20.262 66.2276 20.262C64.8956 20.262 64.2296 21.408 64.2296 23.7Z" fill="#656D78"/>
</g>
<defs>
<clipPath id="clip0">
<rect width="100" height="100" fill="white"/>
</clipPath>
</defs>
</svg>
