<svg width="100" height="100" viewBox="0 0 100 100" fill="none" xmlns="http://www.w3.org/2000/svg">
<g clip-path="url(#clip0)">
<path d="M4.96815 70.5086C4.82395 70.5086 4.67899 70.5009 4.5348 70.4849C2.54658 70.2721 0.915413 68.8835 0.276833 66.861C-0.492973 64.4196 0.367622 61.734 2.52216 59.8534C6.71604 56.1928 13.9128 56.8985 18.6751 57.3662C19.4953 57.4471 20.0957 58.1772 20.0148 58.9973C19.9347 59.8175 19.2038 60.4187 18.3837 60.3371C14.1326 59.9205 7.7071 59.2896 4.48521 62.1025C3.21873 63.2072 2.70985 64.6507 3.12412 65.963C3.40412 66.8503 4.05033 67.4316 4.85294 67.5171C5.26035 67.5598 5.74406 67.3637 6.08585 67.0158C6.21555 66.8831 6.51157 66.5306 6.45969 66.1209C6.35517 65.303 6.93348 64.5554 7.75135 64.4516C8.56922 64.3471 9.31614 64.9254 9.42066 65.7433C9.57325 66.9441 9.13456 68.1694 8.21751 69.1055C7.33936 70.0012 6.1507 70.5086 4.96815 70.5086Z" fill="#EDAA9D"/>
<path d="M91.7647 52.6291C89.8612 43.6791 83.9194 36.2267 75.9391 32.2594V20.4033C75.9391 19.3993 75.0564 18.6188 74.0615 18.75C68.3295 19.5076 63.6786 23.6885 62.2252 29.1703H43.4661C27.1102 29.1703 13.4711 42.5515 13.5154 58.9073C13.5405 68.4227 18.0518 76.8784 25.0403 82.2876C25.1334 86.5555 25.608 90.8799 26.0665 94.1765C26.5235 97.4587 29.3288 99.9001 32.643 99.9001C35.9572 99.9001 38.7626 97.4587 39.2196 94.1765C39.4599 92.4485 39.7048 90.4366 39.8963 88.2996C40.9728 88.4178 42.0638 88.4835 43.1716 88.4835H62.7616C63.5276 88.4835 64.2859 88.4529 65.0367 88.3965C65.2221 90.4389 65.4548 92.3645 65.6852 94.0338C66.1406 97.3313 68.9177 99.8818 72.2457 99.9001C75.5759 99.9176 78.3996 97.4709 78.8581 94.1765C79.2899 91.0759 79.7355 87.0659 79.8636 83.0498C84.3291 79.8882 87.8837 75.5249 90.0535 70.4293C90.2694 69.9211 90.7676 69.5908 91.3199 69.5908H97.0977C98.7006 69.5908 99.9999 68.2915 99.9999 66.6886V55.5313C99.9999 53.9284 98.7006 52.6291 97.0977 52.6291H91.7647Z" fill="#FFD2C0"/>
<path d="M97.0977 52.6292H95.4528C95.4582 52.7032 95.4635 52.7764 95.4635 52.8512V64.0084C95.4635 65.6113 94.1642 66.9106 92.5613 66.9106H86.6775C86.1892 66.9106 85.7482 67.2013 85.5583 67.6507C83.4709 72.6044 80.0765 76.8708 75.8087 80.021C75.5073 80.2437 75.3211 80.5886 75.3066 80.9632C75.1548 84.7786 74.7329 88.5483 74.3224 91.4963C73.8639 94.7907 71.0395 97.2374 67.7093 97.2199C67.456 97.2184 67.2065 97.2008 66.9601 97.1703C68.1724 98.8175 70.0935 99.8887 72.2457 99.9001C75.576 99.9176 78.3996 97.4709 78.8581 94.1765C79.2899 91.0759 79.7355 87.0659 79.8637 83.0498C84.3292 79.8882 87.8837 75.525 90.0535 70.4293C90.2694 69.9212 90.7676 69.5908 91.32 69.5908H97.0977C98.7007 69.5908 99.9999 68.2915 99.9999 66.6886V55.5314C99.9999 53.9292 98.7007 52.6292 97.0977 52.6292Z" fill="#EDAA9D"/>
<path d="M65.0467 88.4834H43.1725C42.0654 88.4834 40.9729 88.4178 39.8964 88.3003C39.7041 90.4366 39.4615 92.4484 39.2197 94.1765C38.7619 97.4586 35.9581 99.9001 32.6424 99.9001C30.455 99.9001 28.4882 98.8342 27.2736 97.1664C27.5475 97.2015 27.8236 97.2198 28.1067 97.2198C31.4217 97.2198 34.2262 94.7784 34.684 91.4963C34.9251 89.7682 35.1685 87.7556 35.36 85.6201C36.4365 85.7376 37.529 85.8032 38.6368 85.8032C38.6368 85.8032 57.5027 85.7826 64.8308 85.7452C64.8903 86.673 64.9643 87.5908 65.0467 88.4834Z" fill="#EDAA9D"/>
<path d="M80.2978 50.8507C79.473 50.8507 78.8047 50.1824 78.8047 49.3584V45.9733C78.8047 45.1485 79.473 44.481 80.2978 44.481C81.1217 44.481 81.7901 45.1485 81.7901 45.9733V49.3584C81.7901 50.1824 81.1217 50.8507 80.2978 50.8507Z" fill="#EDAA9D"/>
<path d="M65.0146 88.398C65.0131 88.3805 65.0116 88.3629 65.0101 88.3462C64.9231 87.4093 64.8514 86.5021 64.7964 85.6499C64.7377 84.7253 64.6942 83.8227 64.6667 82.9682C64.6416 82.161 63.9786 81.5232 63.176 81.5232C63.1599 81.5232 63.1439 81.5232 63.1279 81.524C62.3039 81.5499 61.6569 82.2388 61.6829 83.0628C61.7111 83.9486 61.7561 84.8832 61.8172 85.8414C61.8713 86.6799 61.9415 87.5695 62.0247 88.4835H62.7617C63.52 88.4835 64.2708 88.4537 65.0146 88.398Z" fill="#EDAA9D"/>
<path d="M24.3637 71.856C23.555 71.6996 22.7714 72.2283 22.615 73.0378C22.2297 75.0268 22.0428 77.2584 21.9948 79.5777C22.9316 80.5329 23.9319 81.4248 24.9901 82.2473C24.9031 77.9328 25.2433 75.1664 25.5455 73.6047C25.7019 72.7952 25.1732 72.0124 24.3637 71.856Z" fill="#EDAA9D"/>
<path d="M58.049 26.632C58.049 31.0715 55.7007 34.964 52.1766 37.13H42.102C41.8937 37.13 41.6855 37.1323 41.4779 37.1407C40.8195 37.1559 40.1657 37.2017 39.5195 37.2734C35.865 35.1349 33.4114 31.1707 33.4114 26.632C33.4114 19.8281 38.9267 14.312 45.7313 14.312C52.5329 14.312 58.049 19.8281 58.049 26.632Z" fill="#FFB75E"/>
<path d="M50.5425 15.2878C52.9404 17.5355 54.4411 20.7299 54.4411 24.276C54.4411 31.0792 48.9258 36.5952 42.1219 36.5952C40.4145 36.5952 38.7879 36.2473 37.3101 35.6194C37.9822 36.2496 38.7261 36.8043 39.5264 37.2727C41.2728 37.0797 41.3544 37.1323 52.1752 37.13C60.4927 32.0122 60.4935 20.2798 50.5425 15.2878Z" fill="#FF9F29"/>
<path d="M50.599 28.965C50.599 26.8555 48.8824 25.1381 46.7721 25.1381H44.6885C44.2246 25.1381 43.847 24.7604 43.847 24.2966C43.847 23.8319 44.2246 23.4543 44.6885 23.4543H48.6756C49.4996 23.4543 50.1679 22.7867 50.1679 21.962C50.1679 21.1372 49.4996 20.4697 48.6756 20.4697H47.4473V19.7083C47.4473 18.8835 46.7789 18.2159 45.955 18.2159C45.1302 18.2159 44.4619 18.8835 44.4619 19.7083V20.4811C42.4576 20.5994 40.8616 22.2626 40.8616 24.2966C40.8616 26.4069 42.5782 28.1235 44.6885 28.1235H46.7721C47.2359 28.1235 47.6136 28.5011 47.6136 28.965C47.6136 29.4296 47.2359 29.8073 46.7721 29.8073H42.7849C41.961 29.8073 41.2926 30.4756 41.2926 31.2996C41.2926 32.1243 41.961 32.7927 42.7849 32.7927H44.4626V33.5533C44.4626 34.3781 45.1302 35.0456 45.955 35.0456C46.7797 35.0456 47.4473 34.3781 47.4473 33.5533V32.7293C49.2356 32.4089 50.599 30.8449 50.599 28.965Z" fill="#FF9F29"/>
<path d="M35.8756 39.4677C35.221 39.4677 34.6213 39.0343 34.4382 38.3728C34.2185 37.5779 34.6839 36.7562 35.4781 36.5364C36.7476 36.1847 38.0523 35.9337 39.3554 35.7895C40.0534 35.7125 40.7515 35.6652 41.4313 35.6484C41.6549 35.64 41.8784 35.6377 42.1019 35.6377H57.8902C58.715 35.6377 59.3825 36.306 59.3825 37.1308C59.3825 37.9547 58.715 38.6231 57.8902 38.6231H42.1019C41.9127 38.6231 41.7235 38.6246 41.5351 38.6322C41.5274 38.6322 41.5206 38.6322 41.5137 38.633C40.9156 38.6467 40.2999 38.6887 39.6834 38.7566C38.5382 38.8832 37.3916 39.1045 36.2746 39.4135C36.1411 39.4501 36.0076 39.4677 35.8756 39.4677Z" fill="#EDAA9D"/>
<path d="M30.8487 12.3192C30.8487 19.1231 25.3334 24.6384 18.5295 24.6384C11.7256 24.6384 6.21033 19.1231 6.21033 12.3192C6.21033 5.51529 11.7256 0 18.5295 0C25.3334 0 30.8487 5.51529 30.8487 12.3192Z" fill="#FFB75E"/>
<path d="M23.3422 0.97583C25.7401 3.22345 27.2408 6.41788 27.2408 9.96402C27.2408 16.7672 21.7255 22.2832 14.9216 22.2832C13.2141 22.2832 11.5876 21.9353 10.1097 21.3074C12.3123 23.3719 15.2726 24.6384 18.5295 24.6384C25.3334 24.6384 30.8487 19.1231 30.8487 12.3192C30.8487 7.22278 27.7542 2.85037 23.3422 0.97583Z" fill="#FF9F29"/>
<path d="M23.3978 14.6537C23.3978 12.5435 21.6812 10.8268 19.5709 10.8268H17.488C17.0234 10.8268 16.6465 10.4492 16.6465 9.98456C16.6465 9.52069 17.0234 9.14304 17.488 9.14304H21.4744C22.2991 9.14304 22.9675 8.4747 22.9675 7.65073C22.9675 6.82599 22.2991 6.15765 21.4744 6.15765H20.2468V5.397C20.2468 4.57227 19.5785 3.90393 18.7538 3.90393C17.9298 3.90393 17.2614 4.57227 17.2614 5.397V6.1691C15.2572 6.28735 13.6611 7.95132 13.6611 9.98456C13.6611 12.0948 15.3777 13.8122 17.488 13.8122H19.5709C20.0355 13.8122 20.4131 14.1891 20.4131 14.6537C20.4131 15.1184 20.0355 15.496 19.5709 15.496H15.5845C14.7598 15.496 14.0922 16.1636 14.0922 16.9883C14.0922 17.8131 14.7598 18.4807 15.5845 18.4807H17.2614V19.2421C17.2614 20.066 17.9298 20.7344 18.7545 20.7344C19.5785 20.7344 20.2468 20.066 20.2468 19.2421V18.4173C22.0352 18.0969 23.3978 16.5329 23.3978 14.6537Z" fill="#FF9F29"/>
</g>
<defs>
<clipPath id="clip0">
<rect width="100" height="100" fill="white"/>
</clipPath>
</defs>
</svg>
