<svg width="100" height="100" viewBox="0 0 100 100" fill="none" xmlns="http://www.w3.org/2000/svg">
<path d="M19.6499 95.2933H10.4755C9.66071 95.2933 9 95.954 9 96.7689C9 97.5837 9.66071 98.2444 10.4755 98.2444H19.6499V95.2933Z" fill="#576574"/>
<path d="M25.9735 55.3413C28.4782 50.5332 33.5068 47.2503 39.3028 47.2503C51.5907 47.2503 61.5524 37.2886 61.5524 25.0007C61.5524 12.712 51.5915 2.7511 39.3028 2.7511C27.0149 2.7511 17.0532 12.7128 17.0532 25.0007V55.3413H25.9735Z" fill="#FFB75E"/>
<path d="M39.3028 2.7511C38.4872 2.7511 37.6816 2.79459 36.8881 2.88004C48.0407 4.08395 56.7238 13.5284 56.7238 25.0007C56.7238 37.2894 46.7621 47.2503 34.4742 47.2503C28.6781 47.2503 23.6488 50.5332 21.1448 55.3413H25.9735C28.4782 50.5332 33.5067 47.2503 39.3028 47.2503C51.5915 47.2503 61.5524 37.2894 61.5524 25.0007C61.5524 12.7128 51.5915 2.7511 39.3028 2.7511Z" fill="#FF9F29"/>
<path d="M48.6183 25.0008C48.6183 30.146 44.4481 34.3163 39.3028 34.3163C34.1583 34.3163 29.9873 30.146 29.9873 25.0008C29.9873 19.8563 34.1583 15.6853 39.3028 15.6853C44.4481 15.6853 48.6183 19.8563 48.6183 25.0008Z" fill="#576574"/>
<path d="M23.4558 94.5405V55.3414H17.0532V98.2446H19.7517C21.7972 98.2446 23.4558 96.5859 23.4558 94.5405Z" fill="#909BA5"/>
<path d="M17.0532 55.3414H23.4558V60.1319H17.0532V55.3414Z" fill="#808B95"/>
<path d="M13.0851 30.3856H17.0532V42.7582H13.0851C12.2184 42.7582 11.5165 42.0555 11.5165 41.1896V31.9542C11.5165 31.0883 12.2184 30.3856 13.0851 30.3856Z" fill="#576574"/>
<path d="M74.2805 0H92.0737V96.8132H74.2805V0Z" fill="#E4EAF8"/>
<path d="M87.2231 0H92.0739V96.8132H87.2231V0Z" fill="#D8DCE5"/>
<path d="M42.4705 82.8598V97.3167C42.4705 98.7983 43.6714 100 45.1538 100H88.5063C91.1491 100 92.8718 97.2244 91.6992 94.8562L85.4133 82.1586C84.8129 80.9448 83.5754 80.1765 82.2204 80.1765H45.1538C43.6714 80.1765 42.4705 81.3781 42.4705 82.8598Z" fill="#544F57"/>
<path d="M91.6993 94.8562L85.4134 82.1586C84.813 80.9448 83.5755 80.1765 82.2205 80.1765H76.9036C78.2585 80.1765 79.496 80.9448 80.0972 82.1586L86.3823 94.8562C87.555 97.2244 85.8322 100 83.1894 100H88.5063C91.1492 100 92.8719 97.2244 91.6993 94.8562Z" fill="#454045"/>
<path d="M39.3028 2.7511C34.3384 2.7511 29.7546 4.37692 26.0529 7.12503V10.5071C26.0529 12.8105 28.6606 14.1494 30.5298 12.8028C32.9979 11.0244 36.0283 9.97614 39.3028 9.97614C42.5774 9.97614 45.6078 11.0244 48.0766 12.8028C49.9451 14.1494 52.5528 12.8105 52.5528 10.5064V7.12503C48.8518 4.37692 44.2673 2.7511 39.3028 2.7511Z" fill="#544F57"/>
<path d="M36.8889 2.88015C43.1869 3.55993 48.6976 6.86879 52.3018 11.686C52.7214 10.7644 52.4879 10.1418 52.5528 7.12514C47.3991 3.299 43.0443 2.62151 36.8889 2.88015Z" fill="#454045"/>
<path d="M87.2184 31.9343H92.0737V34.8854H87.2184C86.4035 34.8854 85.7428 34.2247 85.7428 33.4099C85.7428 32.5943 86.4035 31.9343 87.2184 31.9343ZM85.7428 67.2493C85.7428 68.0641 86.4035 68.7248 87.2184 68.7248H92.0737V65.773H87.2184C86.4035 65.773 85.7428 66.4337 85.7428 67.2493ZM87.2184 25.1663C86.4035 25.1663 85.7428 25.827 85.7428 26.6418C85.7428 27.4566 86.4035 28.1173 87.2184 28.1173H92.0737V25.1663H87.2184ZM92.0737 14.5813V11.6302H87.2184C86.4035 11.6302 85.7428 12.2909 85.7428 13.1057C85.7428 13.9206 86.4035 14.5813 87.2184 14.5813H92.0737ZM81.7015 19.8738C81.7015 20.6886 82.3615 21.3493 83.1771 21.3493H92.0737V18.3983H83.1771C82.3615 18.3983 81.7015 19.059 81.7015 19.8738ZM87.2184 55.1887H92.0737V52.2377H87.2184C86.4035 52.2377 85.7428 52.8984 85.7428 53.7132C85.7428 54.528 86.4035 55.1887 87.2184 55.1887ZM83.1771 41.6534H92.0737V38.7016H83.1771C82.3615 38.7016 81.7015 39.3623 81.7015 40.1771C81.7015 40.9919 82.3615 41.6534 83.1771 41.6534ZM92.0737 72.541H87.2184C86.4035 72.541 85.7428 73.2017 85.7428 74.0165C85.7428 74.8321 86.4035 75.4921 87.2184 75.4921H92.0737V72.541ZM83.1771 61.9568H92.0737V59.0049H83.1771C82.3615 59.0049 81.7015 59.6656 81.7015 60.4805C81.7015 61.2961 82.3615 61.9568 83.1771 61.9568ZM85.7428 6.33771C85.7428 7.15329 86.4035 7.814 87.2184 7.814H92.0737V4.86218H87.2184C86.4035 4.86218 85.7428 5.52289 85.7428 6.33771ZM85.7428 46.9452C85.7428 47.76 86.4035 48.4207 87.2184 48.4207H92.0737V45.4696H87.2184C86.4035 45.4696 85.7428 46.1303 85.7428 46.9452Z" fill="#576574"/>
<path d="M87.2231 45.4696H92.0739V48.4207H87.2231V45.4696Z" fill="#3E4B5A"/>
<path d="M87.2231 52.2377H92.0739V55.1887H87.2231V52.2377Z" fill="#3E4B5A"/>
<path d="M87.2231 59.0057H92.0739V61.9568H87.2231V59.0057Z" fill="#3E4B5A"/>
<path d="M87.2231 65.7729H92.0739V68.7248H87.2231V65.7729Z" fill="#3E4B5A"/>
<path d="M87.2231 72.541H92.0739V75.4928H87.2231V72.541Z" fill="#3E4B5A"/>
<path d="M87.2231 18.3983H92.0739V21.3494H87.2231V18.3983Z" fill="#3E4B5A"/>
<path d="M87.2231 11.6301H92.0739V14.5812H87.2231V11.6301Z" fill="#3E4B5A"/>
<path d="M87.2231 4.86218H92.0739V7.814H87.2231V4.86218Z" fill="#3E4B5A"/>
<path d="M87.2231 31.9343H92.0739V34.8854H87.2231V31.9343Z" fill="#3E4B5A"/>
<path d="M87.2231 25.1663H92.0739V28.1173H87.2231V25.1663Z" fill="#3E4B5A"/>
<path d="M87.2231 38.7015H92.0739V41.6534H87.2231V38.7015Z" fill="#3E4B5A"/>
</svg>
