<svg width="100" height="100" viewBox="0 0 100 100" fill="none" xmlns="http://www.w3.org/2000/svg">
<path d="M7.99997 93.4354L10.0408 53.2993L15.483 51.0317L21.8322 13.8435L45.4149 10.6689L47.6825 5.22676L64.4626 5L68.7709 15.2041L79.4285 16.3379L82.8299 57.1542L90.0861 59.4218L91.9002 93.4354H7.99997Z" fill="#CCCCCC"/>
<path d="M26.4492 63.6H29.8372V79H25.8992V67.736L23.2152 68.418L22.2692 65.096L26.4492 63.6ZM42.8846 77.152C41.7699 78.604 40.2079 79.33 38.1986 79.33C36.1892 79.33 34.6199 78.604 33.4906 77.152C32.3759 75.6853 31.8186 73.7347 31.8186 71.3C31.8186 68.8653 32.3759 66.922 33.4906 65.47C34.6199 64.0033 36.1892 63.27 38.1986 63.27C40.2079 63.27 41.7699 64.0033 42.8846 65.47C44.0139 66.922 44.5786 68.8653 44.5786 71.3C44.5786 73.7347 44.0139 75.6853 42.8846 77.152ZM35.7566 71.3C35.7566 74.1013 36.5706 75.502 38.1986 75.502C39.8266 75.502 40.6406 74.1013 40.6406 71.3C40.6406 68.4987 39.8266 67.098 38.1986 67.098C36.5706 67.098 35.7566 68.4987 35.7566 71.3ZM56.742 77.152C55.6273 78.604 54.0653 79.33 52.056 79.33C50.0466 79.33 48.4773 78.604 47.348 77.152C46.2333 75.6853 45.676 73.7347 45.676 71.3C45.676 68.8653 46.2333 66.922 47.348 65.47C48.4773 64.0033 50.0466 63.27 52.056 63.27C54.0653 63.27 55.6273 64.0033 56.742 65.47C57.8713 66.922 58.436 68.8653 58.436 71.3C58.436 73.7347 57.8713 75.6853 56.742 77.152ZM49.614 71.3C49.614 74.1013 50.428 75.502 52.056 75.502C53.684 75.502 54.498 74.1013 54.498 71.3C54.498 68.4987 53.684 67.098 52.056 67.098C50.428 67.098 49.614 68.4987 49.614 71.3ZM70.5994 77.152C69.4847 78.604 67.9227 79.33 65.9134 79.33C63.9041 79.33 62.3347 78.604 61.2054 77.152C60.0907 75.6853 59.5334 73.7347 59.5334 71.3C59.5334 68.8653 60.0907 66.922 61.2054 65.47C62.3347 64.0033 63.9041 63.27 65.9134 63.27C67.9227 63.27 69.4847 64.0033 70.5994 65.47C71.7287 66.922 72.2934 68.8653 72.2934 71.3C72.2934 73.7347 71.7287 75.6853 70.5994 77.152ZM63.4714 71.3C63.4714 74.1013 64.2854 75.502 65.9134 75.502C67.5414 75.502 68.3554 74.1013 68.3554 71.3C68.3554 68.4987 67.5414 67.098 65.9134 67.098C64.2854 67.098 63.4714 68.4987 63.4714 71.3Z" fill="#EFEFEF"/>
<path d="M45.4648 10.7142L40.2501 23.4736L41.3587 11.2671L45.4648 10.7142Z" fill="#B3B3B3"/>
<path d="M15.5329 51.0771L22.263 48.2728L16.2127 47.095L15.5329 51.0771Z" fill="#B3B3B3"/>
<path d="M82.8798 57.1996L83.5608 74.0406L86.2549 58.2542L82.8798 57.1996Z" fill="#B3B3B3"/>
<path d="M100 94.9547H0C0 93.3266 1.31973 92.0068 2.94785 92.0068H97.0522C98.6803 92.0068 100 93.3266 100 94.9547Z" fill="#FFB75E"/>
</svg>
