<svg width="36" height="36" viewBox="0 0 36 36" fill="none" xmlns="http://www.w3.org/2000/svg">
<path d="M17.9999 0C8.07482 0 0 8.07463 0 17.9999C0 27.9252 8.07482 36 17.9999 36C27.925 36 35.9998 27.9252 35.9998 17.9999C35.9998 8.07463 27.9252 0 17.9999 0ZM28.3358 14.9596L17.0273 26.268C16.5465 26.7488 15.9073 27.0135 15.2274 27.0135C14.5475 27.0135 13.9083 26.7488 13.4275 26.268L7.66404 20.5046C7.18321 20.0237 6.91837 19.3846 6.91837 18.7046C6.91837 18.0245 7.18321 17.3853 7.66404 16.9045C8.14469 16.4237 8.78386 16.1588 9.46398 16.1588C10.1439 16.1588 10.7833 16.4237 11.2639 16.9047L15.2272 20.8678L24.7355 11.3595C25.2164 10.8787 25.8555 10.614 26.5355 10.614C27.2154 10.614 27.8546 10.8787 28.3354 11.3595C29.3282 12.3524 29.3282 13.9671 28.3358 14.9596Z" fill="#FFB75E"/>
</svg>
