<svg width="36" height="36" viewBox="0 0 36 36" fill="none" xmlns="http://www.w3.org/2000/svg">
<g clip-path="url(#clip0)">
<path d="M18 19.3787C16.9664 19.3787 16.1282 20.2165 16.1282 21.2505C16.1282 21.9436 16.5061 22.5473 17.0662 22.8711V24.952H18.9337V22.8711C19.4939 22.5474 19.8718 21.9436 19.8718 21.2505C19.8718 20.2165 19.0337 19.3787 18 19.3787Z" fill="#A3A3A3"/>
<path d="M18.0006 10.302C16.4273 10.302 15.1476 11.5818 15.1476 13.155V16.1934H20.8534V13.155C20.8533 11.5821 19.5736 10.302 18.0006 10.302Z" fill="#A3A3A3"/>
<path d="M17.9997 0.000976562C8.05885 0.000976562 0 8.06007 0 18.0009C0 27.9415 8.05885 36.0009 17.9997 36.0009C27.9405 36.0009 36 27.9414 36 18.0009C36 8.06007 27.9405 0.000976562 17.9997 0.000976562ZM23.5306 27.2555H12.4696C11.3015 27.2555 10.3545 26.3084 10.3545 25.14V18.3096C10.3545 17.2906 11.0753 16.4397 12.0349 16.2395V13.1558C12.0349 9.8667 14.7109 7.19042 18.0003 7.19042C21.2894 7.19042 23.9655 9.86646 23.9655 13.1558V16.2395C24.9247 16.4403 25.6455 17.2906 25.6455 18.3096V25.14H25.6457C25.6457 26.3083 24.6987 27.2555 23.5306 27.2555Z" fill="#A3A3A3"/>
</g>
<defs>
<clipPath id="clip0">
<rect width="36" height="36" fill="white"/>
</clipPath>
</defs>
</svg>
