<svg width="60" height="60" viewBox="0 0 60 60" fill="none" xmlns="http://www.w3.org/2000/svg">
<g clip-path="url(#clip0)">
<path d="M27.3805 12.2968C27.0321 11.8557 18.775 1.50552 12.2565 2.40498C9.94522 2.72409 8.16521 4.34855 6.96612 7.23313C5.31185 11.2127 5.17437 14.4475 6.55755 16.8475C8.27956 19.8356 11.6928 20.3176 11.8372 20.3368C11.8754 20.3418 11.9139 20.3443 11.9524 20.3443H26.6893C27.1756 20.3443 27.5699 19.95 27.5699 19.4637V12.8425C27.57 12.6446 27.5032 12.4523 27.3805 12.2968Z" fill="#FF3D43"/>
<path d="M53.0338 7.23316C51.8347 4.34857 50.0548 2.72412 47.7435 2.40501C41.2264 1.50531 32.9678 11.8559 32.6195 12.2968C32.4969 12.4523 32.4301 12.6446 32.4301 12.8425V19.4638C32.4301 19.9501 32.8243 20.3443 33.3106 20.3443H48.0475C48.086 20.3443 48.1245 20.3418 48.1627 20.3368C48.3071 20.3177 51.7204 19.8356 53.4424 16.8476C54.8257 14.4474 54.6882 11.2127 53.0338 7.23316Z" fill="#FF3D43"/>
<path d="M26.6895 16.2939H11.9526C11.9141 16.2939 11.8756 16.2914 11.8374 16.2864C11.693 16.2672 8.27971 15.7853 6.55769 12.7971C6.22567 12.221 5.98228 11.5963 5.82542 10.9253C5.38784 13.256 5.63088 15.2396 6.55769 16.8477C8.27971 19.8357 11.693 20.3178 11.8374 20.3369C11.8756 20.342 11.9141 20.3444 11.9526 20.3444H26.6895C27.1758 20.3444 27.57 19.9502 27.57 19.4639V15.4133C27.57 15.8996 27.1758 16.2939 26.6895 16.2939Z" fill="#D62D2D"/>
<path d="M53.4424 12.7971C51.7204 15.7851 48.3071 16.2672 48.1627 16.2864C48.1245 16.2914 48.086 16.2939 48.0475 16.2939H33.3106C32.8243 16.2939 32.4301 15.8996 32.4301 15.4133V19.4639C32.4301 19.9502 32.8243 20.3444 33.3106 20.3444H48.0475C48.086 20.3444 48.1245 20.342 48.1627 20.3369C48.3071 20.3178 51.7204 19.8357 53.4424 16.8477C54.3692 15.2394 54.6122 13.256 54.1747 10.9253C54.0179 11.5963 53.7744 12.221 53.4424 12.7971Z" fill="#D62D2D"/>
<path d="M33.3105 11.9619H26.6893C26.203 11.9619 25.8088 12.3562 25.8088 12.8425V19.4637C25.8088 19.95 26.203 20.3442 26.6893 20.3442H33.3105C33.7968 20.3442 34.1911 19.95 34.1911 19.4637V12.8425C34.1911 12.3562 33.7968 11.9619 33.3105 11.9619Z" fill="#D62D2D"/>
<path d="M25.8089 16.2939V19.464C25.8089 19.9503 26.2032 20.3445 26.6895 20.3445H33.3107C33.797 20.3445 34.1912 19.9503 34.1912 19.464V16.2939H25.8089Z" fill="#9E1219"/>
<path d="M54.6709 27.2812H5.32914C4.84283 27.2812 4.44858 27.6755 4.44858 28.1618V53.8234C4.44858 55.9334 6.1652 57.65 8.27525 57.65H51.7248C53.8348 57.65 55.5514 55.9334 55.5514 53.8234V28.1618C55.5514 27.6754 55.1572 27.2812 54.6709 27.2812Z" fill="#FFB75E"/>
<path d="M54.6709 27.2812H5.32914C4.84283 27.2812 4.44858 27.6755 4.44858 28.1618V31.9452H55.5514V28.1618C55.5514 27.6754 55.1572 27.2812 54.6709 27.2812Z" fill="#FF930D"/>
<path d="M59.1194 18.583H0.880557C0.394255 18.583 0 18.9773 0 19.4636V28.1616C0 28.6479 0.394255 29.0422 0.880557 29.0422H59.1194C59.6057 29.0422 60 28.6479 60 28.1616V19.4636C60 18.9773 59.6057 18.583 59.1194 18.583Z" fill="#FFB75E"/>
<path d="M0 24.9917V28.1617C0 28.648 0.394255 29.0423 0.880557 29.0423H59.1194C59.6057 29.0423 60 28.648 60 28.1617V24.9917H0Z" fill="#FFA331"/>
<path d="M34.3538 18.583H25.6461C25.1598 18.583 24.7655 18.9773 24.7655 19.4636V56.7692C24.7655 57.2556 25.1598 57.6498 25.6461 57.6498H34.3538C34.8401 57.6498 35.2344 57.2556 35.2344 56.7692V19.4636C35.2344 18.9773 34.8402 18.583 34.3538 18.583Z" fill="#FF3D43"/>
<path d="M34.3538 18.583H31.1838V57.6498H34.3538C34.8401 57.6498 35.2344 57.2556 35.2344 56.7692V19.4636C35.2344 18.9773 34.8402 18.583 34.3538 18.583Z" fill="#D62D2D"/>
</g>
<defs>
<clipPath id="clip0">
<rect width="60" height="60" fill="white"/>
</clipPath>
</defs>
</svg>
