<svg width="70" height="70" viewBox="0 0 70 70" fill="none" xmlns="http://www.w3.org/2000/svg">
<circle cx="35" cy="35" r="35" fill="#F8F8F8"/>
<path d="M35 20C26.7156 20 20 26.7156 20 35C20 43.2844 26.7156 50 35 50C43.2844 50 50 43.2844 50 35C49.9906 26.7195 43.2805 20.0094 35 20ZM35 49C27.2679 49 21 42.7321 21 35C21 27.2679 27.2679 21 35 21C42.7321 21 49 27.2679 49 35C48.9911 42.7284 42.7284 48.9911 35 49Z" fill="#FFB75E"/>
<path d="M46.2381 28.477C45.0997 26.5247 43.4755 24.9005 41.5236 23.7618C41.5145 23.7563 41.5094 23.7469 41.5001 23.7414C41.4904 23.736 41.4801 23.7364 41.4701 23.7314C37.4656 21.4229 32.5345 21.4229 28.53 23.7314C28.5199 23.7364 28.5096 23.736 28.5 23.7414C28.4906 23.7469 28.4856 23.7563 28.4764 23.7618C26.5245 24.9003 24.9004 26.5244 23.7619 28.4763C23.7564 28.4855 23.7471 28.4905 23.7416 28.4999C23.7361 28.5095 23.7365 28.5198 23.7315 28.5299C21.423 32.5344 21.423 37.4654 23.7315 41.4699C23.7365 41.48 23.7361 41.4903 23.7416 41.4999C23.7471 41.5093 23.7606 41.5235 23.7695 41.5359C24.908 43.4816 26.5291 45.1005 28.4764 46.236C28.4856 46.2414 28.4906 46.2508 28.5 46.2563C28.5096 46.2618 28.5291 46.2673 28.5435 46.2744C32.5412 48.5724 37.4589 48.5724 41.4566 46.2744C41.471 46.2673 41.4861 46.2643 41.5001 46.2563C41.514 46.2483 41.5145 46.2414 41.5236 46.236C43.471 45.1005 45.0921 43.4816 46.2306 41.5359C46.2395 41.5235 46.2505 41.5134 46.2585 41.4999C46.2665 41.4864 46.2635 41.48 46.2686 41.4699C48.5771 37.4654 48.5771 32.5344 46.2686 28.5299C46.2635 28.5198 46.264 28.5095 46.2585 28.4999C46.253 28.4905 46.2436 28.4855 46.2381 28.477ZM41.4245 45.127L40.6829 43.843C40.5944 43.6869 40.4289 43.5905 40.2494 43.5901C40.07 43.5896 39.9043 43.6855 39.8148 43.8409C39.7255 43.9966 39.7262 44.1881 39.8171 44.3429L40.5596 45.629C38.9947 46.4513 37.2664 46.9153 35.5001 46.9874V45.4999C35.5001 45.2238 35.2761 45 35 45C34.724 45 34.4999 45.2238 34.4999 45.4999V46.9874C32.7337 46.9155 31.0056 46.4516 29.4405 45.6294L30.183 44.3433C30.2739 44.1886 30.2745 43.997 30.1853 43.8416C30.0958 43.686 29.9301 43.5901 29.7506 43.5905C29.5712 43.591 29.4057 43.6874 29.3171 43.8435L28.5756 45.1275C27.0855 44.1783 25.8216 42.9144 24.8725 41.4244L26.1565 40.6828C26.3126 40.5942 26.409 40.4288 26.4094 40.2493C26.4099 40.0699 26.314 39.9042 26.1583 39.8147C26.0029 39.7254 25.8113 39.7261 25.6566 39.817L24.3705 40.5595C23.5482 38.9946 23.0842 37.2663 23.0126 35.5H24.5001C24.7761 35.5 25 35.2759 25 34.9999C25 34.7239 24.7761 34.4998 24.5001 34.4998H23.0126C23.0842 32.7335 23.5482 31.0052 24.3705 29.4404L25.6566 30.1829C25.8113 30.2737 26.0029 30.2744 26.1583 30.1852C26.314 30.0957 26.4099 29.93 26.4094 29.7505C26.409 29.5711 26.3126 29.4056 26.1565 29.317L24.8725 28.5754C25.8216 27.0854 27.0855 25.8215 28.5756 24.8724L29.3171 26.1564C29.4057 26.3125 29.5712 26.4088 29.7506 26.4093C29.9301 26.4098 30.0958 26.3139 30.1853 26.1582C30.2745 26.0028 30.2739 25.8112 30.183 25.6565L29.4405 24.3704C31.0056 23.5483 32.7337 23.0843 34.4999 23.0125V24.5C34.4999 24.776 34.724 24.9998 35 24.9998C35.2761 24.9998 35.5001 24.776 35.5001 24.5V23.0125C37.2664 23.0843 38.9945 23.5483 40.5596 24.3704L39.8171 25.6565C39.7262 25.8112 39.7255 26.0028 39.8148 26.1582C39.9043 26.3139 40.07 26.4098 40.2494 26.4093C40.4289 26.4088 40.5944 26.3125 40.6829 26.1564L41.4245 24.8724C42.9145 25.8215 44.1784 27.0854 45.1276 28.5754L43.8436 29.317C43.6875 29.4056 43.5911 29.5711 43.5907 29.7505C43.5902 29.93 43.6861 30.0957 43.8417 30.1852C43.9972 30.2744 44.1887 30.2737 44.3435 30.1829L45.6295 29.4404C46.4519 31.0052 46.9159 32.7335 46.9875 34.4998H45.5C45.224 34.4998 45.0001 34.7239 45.0001 34.9999C45.0001 35.2759 45.224 35.5 45.5 35.5H46.9875C46.9159 37.2663 46.4519 38.9946 45.6295 40.5595L44.3435 39.817C44.1887 39.7261 43.9972 39.7254 43.8417 39.8147C43.6861 39.9042 43.5902 40.0699 43.5907 40.2493C43.5911 40.4288 43.6875 40.5942 43.8436 40.6828L45.1276 41.4244C44.1784 42.9144 42.9145 44.1783 41.4245 45.1275V45.127Z" fill="#FFB75E"/>
<path d="M35.5003 33.071V26.9999C35.5003 26.7238 35.2762 26.5 35.0001 26.5C34.7241 26.5 34.5 26.7238 34.5 26.9999V33.071C33.7939 33.2495 33.2419 33.8002 33.0618 34.5061C32.8816 35.2119 33.1023 35.9599 33.6367 36.455L31.5612 40.2604C31.4289 40.503 31.5182 40.8067 31.7606 40.939C32.0032 41.0713 32.3069 40.9821 32.4392 40.7394L34.5147 36.9336C34.6731 36.9757 34.8363 36.9981 35.0001 37C36.0061 37.0013 36.8557 36.2538 36.9827 35.2559C37.1098 34.2582 36.4744 33.3216 35.5003 33.071ZM35.0001 36C34.4479 36 34.0002 35.5523 34.0002 35C34.0002 34.4477 34.4479 34 35.0001 34C35.5524 34 36.0001 34.4477 36.0001 35C36.0001 35.5523 35.5524 36 35.0001 36Z" fill="#FFB75E"/>
</svg>
