<svg width="70" height="70" viewBox="0 0 70 70" fill="none" xmlns="http://www.w3.org/2000/svg">
<circle cx="35" cy="35" r="35" fill="#F8F8F8"/>
<g clip-path="url(#clip0)">
<path d="M29.8424 40.5349C31.0779 42.2769 32.3114 43.8349 33.1289 44.8384C33.2479 44.9844 33.3594 45.1199 33.4674 45.2504H31.0004C30.7243 45.2504 30.5004 45.4742 30.5004 45.7503C30.5004 46.0265 30.7243 46.2503 31.0004 46.2503H39.0004C39.2765 46.2503 39.5003 46.0265 39.5003 45.7503C39.5003 45.4742 39.2765 45.2504 39.0004 45.2504H36.5334C36.6414 45.1199 36.7529 44.9843 36.8724 44.8384C37.6894 43.8384 38.9224 42.2769 40.1584 40.5349C41.3847 38.8412 42.4885 37.0622 43.4614 35.2114C44.4824 33.2064 45.0004 31.5419 45.0004 30.2639C45.0038 27.6084 43.9501 25.0607 42.0719 23.1833C41.9465 23.0533 41.7606 23.001 41.5858 23.0466C41.4109 23.0923 41.2743 23.2287 41.2284 23.4035C41.1825 23.5783 41.2345 23.7642 41.3644 23.8898C43.055 25.5799 44.0034 27.8733 44.0004 30.2638C44.0004 31.3829 43.5194 32.8948 42.5704 34.7573C41.6195 36.5653 40.5407 38.303 39.3424 39.9574C38.1234 41.6769 36.9049 43.2174 36.0974 44.2074C35.829 44.5364 35.5874 44.8274 35.3814 45.0734C35.2853 45.1832 35.1464 45.2461 35.0004 45.2461C34.8545 45.2461 34.7156 45.1831 34.6195 45.0734C34.4135 44.8274 34.172 44.5364 33.9035 44.2074C33.096 43.2179 31.8774 41.6774 30.6585 39.9574C29.4602 38.303 28.3814 36.5653 27.4305 34.7573C26.4805 32.8948 26.0005 31.3829 26.0005 30.2638C26.0002 26.6422 28.166 23.3716 31.5005 21.9583C33.741 21.0188 36.265 21.0188 38.5055 21.9583C38.6701 22.028 38.8593 22.0048 39.0019 21.8971C39.1446 21.7896 39.219 21.614 39.1972 21.4366C39.1753 21.2593 39.0605 21.1071 38.896 21.0373C33.8043 18.8897 27.9357 21.2753 25.7865 26.3663C25.2653 27.5995 24.998 28.9251 25.0005 30.2638C25.0005 31.5418 25.5185 33.2064 26.5395 35.2139C27.5123 37.0638 28.6162 38.842 29.8424 40.5349Z" fill="#FFB75E"/>
<path d="M35.0004 25.75C35.2766 25.75 35.5004 25.5261 35.5004 25.25C35.5004 24.9738 35.2766 24.75 35.0004 24.75C32.6151 24.7499 30.5618 26.435 30.0964 28.7745C29.631 31.1141 30.8831 33.4565 33.0869 34.3694C35.2906 35.2823 37.8324 34.5113 39.1577 32.5279C40.4829 30.5446 40.2226 27.9012 38.5359 26.2145C38.4104 26.0845 38.2245 26.0324 38.0497 26.0781C37.8749 26.1239 37.7383 26.2604 37.6926 26.4352C37.6468 26.6101 37.699 26.7959 37.8289 26.9215C39.1784 28.2709 39.3867 30.3855 38.3265 31.9722C37.2664 33.5589 35.233 34.1758 33.47 33.4456C31.7069 32.7154 30.7052 30.8414 31.0774 28.9698C31.4496 27.0981 33.0921 25.75 35.0004 25.75Z" fill="#FFB75E"/>
<path d="M49.8119 47.5366L46.7369 42.0365C46.4588 41.5478 45.9386 41.2475 45.3764 41.251H41.8129C41.5367 41.251 41.3129 41.4748 41.3129 41.751C41.3129 42.0271 41.5367 42.251 41.8129 42.251H45.3764C45.5765 42.2471 45.7633 42.3515 45.8649 42.524L48.9389 48.024C49.0226 48.1671 49.0209 48.3446 48.9344 48.486C48.8322 48.6548 48.6476 48.7558 48.4504 48.751H21.5503C21.3533 48.7557 21.1689 48.6546 21.0668 48.486C20.9803 48.3446 20.9786 48.1671 21.0623 48.024L24.1363 42.524C24.2377 42.3515 24.4243 42.2472 24.6243 42.251H28.1878C28.4639 42.251 28.6878 42.0271 28.6878 41.751C28.6878 41.4748 28.4639 41.251 28.1878 41.251H24.6243C24.0618 41.2473 23.5412 41.5477 23.2628 42.0365L20.1883 47.5366C19.932 47.9894 19.9379 48.5448 20.2038 48.9921C20.484 49.4683 20.9978 49.758 21.5503 49.7511H48.4504C49.0027 49.7578 49.5163 49.4682 49.7964 48.9921C50.0624 48.5448 50.0683 47.9894 49.8119 47.5366Z" fill="#FFB75E"/>
<path d="M44.5005 43.75H42.5005C42.4018 43.7502 42.3053 43.7794 42.223 43.834L40.723 44.8341C40.4932 44.9873 40.4312 45.2978 40.5845 45.5276C40.7377 45.7573 41.0482 45.8193 41.278 45.6661L42.6505 44.7501H44.5005C44.7766 44.7501 45.0005 44.5262 45.0005 44.2501C45.0005 43.9738 44.7766 43.75 44.5005 43.75Z" fill="#FFB75E"/>
<path d="M41.5003 47.251C41.5003 47.5271 41.7241 47.7509 42.0003 47.7509H46.0003C46.2765 47.7509 46.5003 47.5271 46.5003 47.251C46.5003 46.9748 46.2765 46.751 46.0003 46.751H42.0003C41.7241 46.751 41.5003 46.9748 41.5003 47.251Z" fill="#FFB75E"/>
<path d="M29.0003 45.751C29.2207 45.7513 29.4153 45.6072 29.4793 45.3962C29.5434 45.1853 29.4617 44.9573 29.2783 44.835L27.7783 43.835C27.6959 43.7803 27.5992 43.751 27.5003 43.751H25.5003C25.2241 43.751 25.0003 43.9749 25.0003 44.251C25.0003 44.5271 25.2242 44.7509 25.5003 44.7509H27.3503L28.7243 45.6669C28.806 45.7216 28.9021 45.7508 29.0003 45.751Z" fill="#FFB75E"/>
<path d="M24.0004 46.751C23.7243 46.751 23.5004 46.9748 23.5004 47.251C23.5004 47.5271 23.7243 47.7509 24.0004 47.7509H28.0004C28.2766 47.7509 28.5004 47.5271 28.5004 47.251C28.5004 46.9748 28.2766 46.751 28.0004 46.751H24.0004Z" fill="#FFB75E"/>
</g>
<defs>
<clipPath id="clip0">
<rect width="30" height="30" fill="white" transform="translate(20 20)"/>
</clipPath>
</defs>
</svg>
