<svg width="70" height="70" viewBox="0 0 70 70" fill="none" xmlns="http://www.w3.org/2000/svg">
<circle cx="35" cy="35" r="35" fill="#F8F8F8"/>
<g clip-path="url(#clip0)">
<path d="M20.668 29.3934C20.8466 30.0516 21.4469 30.5064 22.1289 30.5003C22.2272 30.5004 22.3253 30.491 22.4219 30.4723L25.4517 29.8914L27.7825 29.3799C28.5497 29.2419 29.0773 28.5312 28.9874 27.757L28.703 25.5756C28.6675 25.3041 29.2899 25.0031 29.8704 24.9157C33.2352 24.3713 36.665 24.3623 40.0327 24.8892C40.9581 25.0487 41.1626 25.1972 41.2066 25.2527C41.2995 25.4823 41.3131 25.7364 41.2451 25.9746L41.041 27.4245C40.9263 27.8933 41.0078 28.3886 41.2666 28.796C41.6289 29.1788 42.1185 29.4165 42.6435 29.4644C42.9934 29.5314 43.2629 29.5989 43.5324 29.6644C43.8184 29.7354 44.1039 29.8063 44.4758 29.8774L47.1861 30.4003C47.6575 30.5393 48.1625 30.5099 48.6145 30.3173C49.0904 30.0107 49.3985 29.5021 49.45 28.9384L49.4665 28.8659C49.519 28.635 49.5885 28.4059 49.658 28.177C49.8558 27.6277 49.9625 27.0497 49.9739 26.4661C49.8933 25.4375 49.4191 24.4796 48.6501 23.7917C45.1883 20.394 39.2007 20.001 35.001 20.001C25.4132 20.001 21.7599 22.7609 20.3835 25.0762C20.0055 25.7167 19.9016 26.4825 20.0955 27.2006L20.668 29.3934ZM21.2425 25.5882C22.4864 23.4948 25.8831 21.001 35.0011 21.001C39.0273 21.001 44.7504 21.3645 47.9502 24.5052C48.5319 25.0135 48.8974 25.7248 48.9721 26.4936C48.9547 26.9698 48.8622 27.4402 48.6982 27.8875C48.6226 28.1375 48.5482 28.39 48.4892 28.6434L48.4716 28.7194C48.3882 29.0914 48.3217 29.3419 48.1502 29.4314C47.8955 29.5007 47.6263 29.4959 47.3742 29.4174L44.6659 28.9004C44.3159 28.8335 44.0454 28.766 43.776 28.7005C43.49 28.6294 43.2045 28.5585 42.8335 28.4875C42.5941 28.4415 42.1926 28.365 42.0651 28.1965C41.9848 27.9966 41.9735 27.7756 42.0331 27.5686L42.2376 26.1186C42.3569 25.6311 42.2816 25.1162 42.0276 24.6832C41.7046 24.2233 40.9601 24.0393 40.2047 23.9088C36.7312 23.3637 33.1934 23.3715 29.7224 23.9318C28.6284 24.0978 27.583 24.7118 27.713 25.7102L27.998 27.891C28.0186 28.1456 27.8366 28.3718 27.5835 28.406L25.2517 28.9124L22.2339 29.4904C21.9731 29.5493 21.7111 29.3965 21.634 29.1405L21.0635 26.9506C20.9374 26.4909 21.0019 25.9997 21.2425 25.5882Z" fill="#FFB75E"/>
<path d="M49.9101 42.8245C49.9051 42.8115 49.9001 42.799 49.8946 42.7875C49.8479 42.6633 49.7852 42.5456 49.7081 42.4376L43.353 33.8132C42.9751 33.3026 42.3779 33.0009 41.7426 32.9997H40.4427L40.0007 29.4635C39.9811 28.9255 39.5391 28.4996 39.0008 28.5H37.5009C36.9486 28.5 36.5009 28.9477 36.5009 29.5V33.4997C36.5009 33.7758 36.7247 33.9997 37.0009 33.9997C37.277 33.9997 37.5008 33.7758 37.5008 33.4997V29.5H39.0007C39.0005 29.5207 39.0019 29.5414 39.0047 29.5619L39.5046 33.5617C39.5359 33.8119 39.7485 33.9996 40.0006 33.9997H41.7425C42.06 34.0002 42.3586 34.1509 42.5475 34.4062L48.5106 42.4991H44.5003C44.2242 42.4991 44.0004 42.723 44.0004 42.9991C44.0004 43.2752 44.2242 43.499 44.5003 43.499H49V47.4988C49 48.3271 48.3285 48.9987 47.5001 48.9987H22.5019C21.6736 48.9987 21.002 48.3272 21.002 47.4988V43.499H42.0006C42.2768 43.499 42.5006 43.2751 42.5006 42.9991C42.5006 42.7229 42.2768 42.4991 42.0006 42.4991H21.4915L27.4546 34.4062C27.6435 34.1509 27.942 34.0002 28.2596 33.9997H30.0014C30.2535 33.9996 30.4662 33.8118 30.4974 33.5617L30.9973 29.5619C31.0002 29.5414 31.0015 29.5207 31.0013 29.5H32.5012V33.4997C32.5012 33.7758 32.725 33.9997 33.0012 33.9997H35.001C35.2772 33.9997 35.501 33.7758 35.501 33.4997C35.501 33.2236 35.2772 32.9998 35.001 32.9998H33.5011V29.5C33.5011 28.9477 33.0534 28.5001 32.5012 28.5001H31.0013C30.4629 28.4997 30.021 28.9255 30.0013 29.4635L29.5598 32.9998H28.2599C27.6254 33.0015 27.029 33.3031 26.6515 33.8132L20.2941 42.4381C20.2166 42.5459 20.1539 42.6636 20.1076 42.788C20.1021 42.799 20.0971 42.8115 20.0921 42.824C20.0335 42.9855 20.0031 43.1557 20.0021 43.3275V47.4987C20.0037 48.8786 21.122 49.9969 22.5019 49.9986H47.5003C48.8802 49.9969 49.9984 48.8787 50.0001 47.4987V43.3275C49.9991 43.156 49.9687 42.9858 49.9101 42.8245Z" fill="#FFB75E"/>
<path d="M31.7062 36.744C32.1667 36.4983 32.6586 36.3164 33.1681 36.2035C34.3752 35.9341 35.6268 35.9341 36.8338 36.2035C37.0082 36.2449 37.1913 36.1899 37.3139 36.0592C37.4366 35.9286 37.4799 35.7423 37.4275 35.5709C37.3751 35.3996 37.235 35.2694 37.0603 35.2296C35.7042 34.9261 34.2977 34.9261 32.9416 35.2296C32.3429 35.3632 31.7653 35.5778 31.2247 35.8676C30.7508 36.1156 30.3331 36.4587 29.9978 36.8755C29.3349 37.6722 29.3349 38.8285 29.9978 39.6253C30.3331 40.042 30.7508 40.3852 31.2247 40.6332C31.7654 40.9229 32.3429 41.1375 32.9416 41.2712C34.2975 41.5765 35.7044 41.5765 37.0603 41.2712C37.6589 41.1376 38.2365 40.9229 38.7772 40.6332C39.2511 40.3851 39.6688 40.042 40.0041 39.6253C40.6669 38.8285 40.6669 37.6722 40.0041 36.8755C39.8968 36.7295 39.7188 36.6531 39.5391 36.6757C39.3593 36.6982 39.2059 36.8163 39.1379 36.9842C39.0699 37.1521 39.0982 37.3437 39.2116 37.4849C39.5968 37.9225 39.5968 38.5782 39.2116 39.0158C38.9593 39.322 38.6477 39.574 38.2957 39.7568C37.8352 40.0025 37.3433 40.1844 36.8338 40.2973C35.6267 40.5667 34.3751 40.5667 33.1681 40.2973C32.6586 40.1845 32.1669 40.0026 31.7067 39.7568C31.3544 39.5741 31.0426 39.3221 30.7902 39.0158C30.405 38.5782 30.405 37.9225 30.7902 37.4849C31.0426 37.1788 31.3541 36.9268 31.7062 36.744Z" fill="#FFB75E"/>
</g>
<defs>
<clipPath id="clip0">
<rect width="30" height="30" fill="white" transform="translate(20 20)"/>
</clipPath>
</defs>
</svg>
